<svg width="78" height="78" viewBox="0 0 78 78" fill="none" xmlns="http://www.w3.org/2000/svg">
<path d="M78 39C78.0046 45.0854 76.583 51.0873 73.8494 56.5242C71.1157 61.961 67.1461 66.6817 62.2588 70.3075C61.932 70.552 61.5989 70.7903 61.2637 71.0221C54.7282 75.5651 46.9593 78 39 78C31.0406 78 23.2718 75.5651 16.7363 71.0221C16.4011 70.7903 16.068 70.552 15.7412 70.3075C10.8573 66.6785 6.89008 61.9572 4.15681 56.521C1.42354 51.0849 0 45.0846 0 39C0 32.9154 1.42354 26.9151 4.15681 21.479C6.89008 16.0428 10.8573 11.3215 15.7412 7.69248C16.068 7.44794 16.4011 7.20973 16.7363 6.97784C23.2718 2.4349 31.0406 0 39 0C46.9593 0 54.7282 2.4349 61.2637 6.97784C61.5989 7.20973 61.932 7.44794 62.2588 7.69248C67.1461 11.3183 71.1157 16.0389 73.8494 21.4758C76.583 26.9127 78.0046 32.9146 78 39Z" fill="#6B4B46"/>
<path d="M39.0001 74.6271C58.6763 74.6271 74.6271 58.6763 74.6271 39.0001C74.6271 19.3238 58.6763 3.37305 39.0001 3.37305C19.3238 3.37305 3.37305 19.3238 3.37305 39.0001C3.37305 58.6763 19.3238 74.6271 39.0001 74.6271Z" fill="#F9A826"/>
<path d="M39.1053 0.843262C38.7979 0.843801 38.5033 0.966131 38.286 1.18346C38.0687 1.40078 37.9463 1.69538 37.9458 2.00272V7.06218C37.9458 7.36969 38.068 7.6646 38.2854 7.88204C38.5028 8.09948 38.7978 8.22164 39.1053 8.22164C39.4128 8.22164 39.7077 8.09948 39.9251 7.88204C40.1426 7.6646 40.2647 7.36969 40.2647 7.06218V2.00272C40.2642 1.69538 40.1418 1.40078 39.9245 1.18346C39.7072 0.966131 39.4126 0.843801 39.1053 0.843262Z" fill="#A0616A"/>
<path d="M62.2588 7.69269C61.932 7.44815 61.5989 7.20993 61.2637 6.97804C61.0626 6.96493 60.8615 7.00451 60.6804 7.09287C60.4992 7.18123 60.3442 7.31531 60.2308 7.48188L57.3827 11.6623C57.2097 11.9164 57.1446 12.2288 57.202 12.5309C57.2593 12.8329 57.4343 13.0998 57.6884 13.2728C57.9425 13.4459 58.2549 13.5109 58.557 13.4536C58.859 13.3962 59.1259 13.2213 59.299 12.9672L62.147 8.7868C62.2554 8.6282 62.3224 8.44503 62.3419 8.25394C62.3614 8.06285 62.3328 7.86991 62.2588 7.69269Z" fill="#A0616A"/>
<path d="M75.1981 26.7538C75.1409 26.6129 75.0564 26.4846 74.9495 26.3763C74.8427 26.2681 74.7155 26.1819 74.5754 26.1228C74.4352 26.0636 74.2847 26.0327 74.1326 26.0318C73.9805 26.0308 73.8296 26.0598 73.6887 26.1172L69.0003 28.0208C68.7157 28.1367 68.4888 28.3609 68.3694 28.6441C68.25 28.9272 68.2479 29.2462 68.3636 29.5309C68.4792 29.8156 68.7032 30.0427 68.9863 30.1624C69.2693 30.282 69.5883 30.2844 69.8731 30.169L74.5615 28.2654C74.8459 28.1488 75.0726 27.9244 75.192 27.6411C75.3113 27.3578 75.3135 27.0388 75.1981 26.7538Z" fill="#A0616A"/>
<path d="M20.6175 11.6623L17.7694 7.48188C17.656 7.31531 17.501 7.18123 17.3198 7.09287C17.1387 7.00451 16.9376 6.96493 16.7365 6.97804C16.4013 7.20993 16.0682 7.44815 15.7414 7.69269C15.6674 7.86991 15.6388 8.06285 15.6583 8.25394C15.6778 8.44503 15.7448 8.6282 15.8532 8.7868L18.7012 12.9672C18.8743 13.2213 19.1412 13.3963 19.4432 13.4536C19.7453 13.5109 20.0577 13.4459 20.3118 13.2729C20.5659 13.0998 20.7409 12.8329 20.7982 12.5309C20.8555 12.2288 20.7905 11.9164 20.6175 11.6623Z" fill="#A0616A"/>
<path d="M8.99929 28.021L4.31085 26.1174C4.026 26.0017 3.70687 26.0039 3.42365 26.1236C3.14043 26.2432 2.91631 26.4704 2.80059 26.7552C2.68487 27.04 2.68703 27.3591 2.80658 27.6424C2.92613 27.9256 3.15329 28.1498 3.4381 28.2656L8.12653 30.1692C8.41132 30.2846 8.73029 30.2822 9.01334 30.1625C9.29638 30.0429 9.52034 29.8158 9.636 29.5311C9.75167 29.2464 9.74958 28.9274 9.63019 28.6443C9.5108 28.3611 9.28387 28.1369 8.99929 28.021V28.021Z" fill="#A0616A"/>
<path d="M39.1053 69.7783C38.7979 69.7789 38.5033 69.9012 38.286 70.1185C38.0687 70.3358 37.9463 70.6304 37.9458 70.9378V75.9972C37.9458 76.3047 38.068 76.5997 38.2854 76.8171C38.5028 77.0345 38.7978 77.1567 39.1053 77.1567C39.4128 77.1567 39.7077 77.0345 39.9251 76.8171C40.1426 76.5997 40.2647 76.3047 40.2647 75.9972V70.9378C40.2642 70.6304 40.1418 70.3358 39.9245 70.1185C39.7072 69.9012 39.4126 69.7789 39.1053 69.7783Z" fill="#A0616A"/>
<path d="M62.147 69.2135L59.299 65.0331C59.2133 64.9073 59.1037 64.7996 58.9763 64.7161C58.849 64.6326 58.7065 64.5751 58.557 64.5467C58.4074 64.5183 58.2537 64.5197 58.1047 64.5507C57.9557 64.5817 57.8142 64.6417 57.6884 64.7274C57.5626 64.8131 57.4548 64.9227 57.3714 65.05C57.2879 65.1774 57.2304 65.3199 57.202 65.4694C57.1736 65.619 57.1749 65.7727 57.2059 65.9217C57.237 66.0707 57.297 66.2122 57.3827 66.338L60.2308 70.5184C60.3442 70.685 60.4992 70.819 60.6804 70.9074C60.8615 70.9958 61.0626 71.0354 61.2637 71.0222C61.5989 70.7904 61.932 70.5521 62.2588 70.3076C62.3328 70.1304 62.3614 69.9374 62.3419 69.7463C62.3224 69.5553 62.2554 69.3721 62.147 69.2135Z" fill="#A0616A"/>
<path d="M74.5618 49.7344L69.8734 47.8308C69.5885 47.7151 69.2694 47.7173 68.9862 47.8369C68.7029 47.9565 68.4788 48.1837 68.3631 48.4686C68.2474 48.7534 68.2495 49.0725 68.3691 49.3558C68.4886 49.639 68.7158 49.8632 69.0006 49.9789L73.689 51.8826C73.9738 51.998 74.2928 51.9956 74.5758 51.8759C74.8589 51.7563 75.0828 51.5291 75.1985 51.2445C75.3142 50.9598 75.3121 50.6408 75.1927 50.3576C75.0733 50.0745 74.8464 49.8503 74.5618 49.7344V49.7344Z" fill="#A0616A"/>
<path d="M20.3118 64.7273C20.0577 64.5544 19.7452 64.4894 19.4432 64.5467C19.1412 64.604 18.8743 64.7789 18.7012 65.033L15.8532 69.2134C15.7448 69.372 15.6778 69.5551 15.6583 69.7462C15.6388 69.9373 15.6674 70.1302 15.7414 70.3075C16.0682 70.552 16.4013 70.7902 16.7365 71.0221C16.9376 71.0352 17.1387 70.9957 17.3198 70.9073C17.501 70.8189 17.656 70.6849 17.7694 70.5183L20.6175 66.3379C20.7032 66.2121 20.7633 66.0706 20.7943 65.9216C20.8253 65.7725 20.8266 65.6189 20.7983 65.4693C20.7699 65.3197 20.7123 65.1772 20.6288 65.0499C20.5454 64.9226 20.4376 64.813 20.3118 64.7273Z" fill="#A0616A"/>
<path d="M9.63564 48.4677C9.57838 48.3268 9.4939 48.1985 9.38704 48.0902C9.28018 47.9819 9.15303 47.8958 9.01286 47.8366C8.87268 47.7775 8.72223 47.7466 8.5701 47.7456C8.41797 47.7447 8.26714 47.7737 8.12624 47.8311L3.4378 49.7347C3.15321 49.8506 2.92629 50.0748 2.8069 50.3579C2.68751 50.6411 2.68542 50.9601 2.80108 51.2447C2.91675 51.5294 3.14071 51.7566 3.42375 51.8762C3.70679 51.9959 4.02576 51.9983 4.31056 51.8828L8.99899 49.9792C9.28345 49.8627 9.51015 49.6382 9.62947 49.355C9.7488 49.0717 9.75101 48.7526 9.63564 48.4677Z" fill="#A0616A"/>
<path d="M40.6098 38.4246C40.7168 39.0584 40.5681 39.7087 40.1963 40.233C39.8244 40.7573 39.2598 41.1126 38.6263 41.2211L18.0516 44.7209C17.7377 44.7743 17.4164 44.7653 17.106 44.6945C16.7956 44.6237 16.5022 44.4925 16.2425 44.3083C15.9828 44.1241 15.762 43.8906 15.5925 43.6211C15.4231 43.3515 15.3084 43.0513 15.255 42.7374C15.2016 42.4235 15.2106 42.1022 15.2814 41.7918C15.3522 41.4814 15.4834 41.188 15.6676 40.9283C15.8518 40.6687 16.0853 40.4478 16.3548 40.2784C16.6244 40.1089 16.9246 39.9943 17.2385 39.9409L37.8132 36.4411C38.447 36.3341 39.0974 36.4828 39.6216 36.8546C40.1459 37.2265 40.5013 37.7911 40.6098 38.4246Z" fill="#3F3D56"/>
<path d="M62.2639 61.2201C61.9684 61.5173 61.567 61.6852 61.1478 61.6869C60.7286 61.6885 60.3259 61.5238 60.028 61.2289L37.8796 39.2542C37.5823 38.9588 37.4146 38.5574 37.4131 38.1383C37.4116 37.7193 37.5766 37.3168 37.8718 37.0193C38.1669 36.7218 38.5681 36.5536 38.9872 36.5518C39.4063 36.5499 39.8089 36.7145 40.1067 37.0094L62.2551 58.9841C62.5524 59.2797 62.7203 59.6811 62.7219 60.1003C62.7236 60.5195 62.5589 60.9222 62.2639 61.2201Z" fill="#3F3D56"/>
<path d="M39.0003 41.7404C40.5139 41.7404 41.7408 40.5134 41.7408 38.9998C41.7408 37.4863 40.5139 36.2593 39.0003 36.2593C37.4867 36.2593 36.2598 37.4863 36.2598 38.9998C36.2598 40.5134 37.4867 41.7404 39.0003 41.7404Z" fill="#CCCCCC"/>
</svg>
