<svg width="58" height="68" viewBox="0 0 58 68" fill="none" xmlns="http://www.w3.org/2000/svg">
<path d="M39.4351 6.33154L52.6778 9.14555L49.8638 22.3883" stroke="#6B4B46" stroke-width="5" stroke-linecap="round" stroke-linejoin="round"/>
<path d="M52.6776 9.14551L29.9974 23.8761C29.6235 24.1136 29.1714 24.1951 28.7381 24.1031C28.3048 24.011 27.9249 23.7527 27.6799 23.3836L21.6834 14.151C21.4384 13.782 21.0585 13.5237 20.6252 13.4316C20.1919 13.3395 19.7398 13.421 19.3659 13.6586L4.71416 23.1748" stroke="#6B4B46" stroke-width="5" stroke-linecap="round" stroke-linejoin="round"/>
<path d="M2.40508 37.7515L2.40587 37.751L12.9528 31.7664V66.1989H3.30476C2.29754 66.1989 1.5 65.3904 1.5 64.4207V39.289C1.50071 38.9787 1.58385 38.6733 1.74197 38.4036C1.90033 38.1335 2.12866 37.9081 2.40508 37.7515ZM29.5234 42.8695L34.6233 40.3415V66.1989H21.4609L21.4647 31.6976L27.5574 42.2742L28.2608 43.4953L29.5234 42.8695ZM53.9778 66.1989H43.1312V36.1222L53.1673 31.1424C53.1674 31.1424 53.1674 31.1423 53.1675 31.1423C53.4435 31.0057 53.7509 30.9409 54.0603 30.9548C54.3697 30.9688 54.6697 31.0609 54.9317 31.2217C55.1936 31.3823 55.4083 31.6059 55.5567 31.87C55.7051 32.134 55.7825 32.4304 55.7826 32.7312V64.4207C55.7826 64.8884 55.5954 65.3394 55.2582 65.6738C54.9207 66.0086 54.4603 66.1989 53.9778 66.1989Z" fill="#F9A826" stroke="#6B4B46" stroke-width="3"/>
</svg>
