<svg width="92" height="76" viewBox="0 0 92 76" fill="none" xmlns="http://www.w3.org/2000/svg">
<mask id="mask0_1952_479" style="mask-type:alpha" maskUnits="userSpaceOnUse" x="0" y="0" width="92" height="76">
<rect width="91.5897" height="76" fill="#D9D9D9"/>
</mask>
<g mask="url(#mask0_1952_479)">
<ellipse opacity="0.5" cx="47.6573" cy="40.1601" rx="37.4874" ry="35.613" fill="#FFC882"/>
<path d="M54.4593 19.3H38.9414V28.4882H54.4593V19.3Z" fill="#2F2E41"/>
<path d="M23.5671 20.782H15.5664V17.9921C15.5664 16.9311 15.9879 15.9136 16.7381 15.1634C17.4883 14.4132 18.5058 13.9917 19.5668 13.9917C20.6277 13.9917 21.6452 14.4132 22.3954 15.1634C23.1457 15.9136 23.5671 16.9311 23.5671 17.9921V20.782ZM15.7435 20.6048H23.39V17.9921C23.39 16.9781 22.9872 16.0056 22.2702 15.2886C21.5532 14.5716 20.5807 14.1688 19.5668 14.1688C18.5528 14.1688 17.5803 14.5716 16.8633 15.2886C16.1463 16.0056 15.7435 16.9781 15.7435 17.9921V20.6048Z" fill="#3F3D56"/>
<path d="M27.524 20.3982V19.3079L7.1772 19.853L6.5332 47.4707L9.54449 51.1905L27.524 20.3982Z" fill="#3F3D56"/>
<path d="M31.1238 20.0139L9.07031 20.5158L9.54259 51.1901L30.8253 48.8961L31.1238 20.0139Z" fill="#F9A826"/>
<path d="M33.337 58.9385C33.337 58.9385 29.6796 66.8148 32.9838 82.6686C36.2879 98.5225 36.3153 115.928 36.3153 115.928L41.3675 116.01L44.2056 78.5383L45.6916 115.481H50.6691L55.0559 79.1223C55.0559 79.1223 57.9425 62.8871 51.5052 59.9803L33.337 58.9385Z" fill="#2F2E41"/>
<path d="M50.8401 31.1428L39.778 30.123C36.309 32.6515 34.362 37.1929 34.7616 41.8785C35.3036 48.2316 35.1202 56.9746 30.7715 60.7728C30.7715 60.7728 42.6241 70.1276 53.1529 61.2526C53.1529 61.2526 49.5527 51.6075 52.0245 47.7558C54.4964 43.9041 55.3882 33.0825 50.8401 31.1428Z" fill="#E4E4E4"/>
<path d="M17.9283 15.4448C17.8944 15.7636 17.9308 16.0861 18.035 16.3893C18.1391 16.6926 18.3086 16.9694 18.5312 17.2001C18.7539 17.4308 19.0245 17.6099 19.3239 17.7248C19.6233 17.8396 19.9443 17.8874 20.2641 17.8648L34.8699 31.4955L37.4877 27.5079L22.3075 15.3632C22.2339 14.8284 21.9667 14.3391 21.5565 13.9881C21.1462 13.6371 20.6215 13.4488 20.0817 13.4589C19.5419 13.4689 19.0246 13.6766 18.6277 14.0426C18.2308 14.4087 17.982 14.9075 17.9283 15.4448Z" fill="#FFB6B6"/>
<path d="M32.1421 29.3894L35.607 25.8302C35.7056 25.7289 35.8248 25.6501 35.9566 25.599C36.0884 25.548 36.2297 25.526 36.3708 25.5345C36.5119 25.543 36.6495 25.5818 36.7742 25.6482C36.8989 25.7147 37.0079 25.8072 37.0936 25.9196L40.0975 29.8568C40.6127 30.3641 40.9057 31.0551 40.9123 31.7781C40.9189 32.5012 40.6385 33.1973 40.1326 33.7139C39.6267 34.2306 38.9365 34.5255 38.2135 34.5341C37.4905 34.5428 36.7936 34.2643 36.2755 33.7599L32.2714 30.8731C32.1568 30.7904 32.0613 30.684 31.9915 30.5611C31.9217 30.4382 31.8793 30.3017 31.867 30.1609C31.8547 30.0201 31.8729 29.8783 31.9204 29.7452C31.9679 29.612 32.0435 29.4907 32.1421 29.3894Z" fill="#E4E4E4"/>
<path d="M72.1896 48.6382C72.2058 48.318 72.1515 47.9981 72.0307 47.701C71.9098 47.404 71.7253 47.1371 71.4901 46.9191C71.255 46.7011 70.9748 46.5373 70.6695 46.4393C70.3642 46.3412 70.0411 46.3113 69.723 46.3517L54.3824 33.5535L51.9902 37.6804L67.8217 48.9629C67.9249 49.4929 68.2189 49.9665 68.648 50.2942C69.0771 50.6218 69.6115 50.7807 70.1499 50.7407C70.6883 50.7006 71.1933 50.4645 71.5692 50.077C71.9452 49.6895 72.1659 49.1776 72.1896 48.6382Z" fill="#FFB6B6"/>
<path d="M57.2235 35.5046L53.9616 39.2509C53.8688 39.3575 53.7541 39.4428 53.6254 39.5011C53.4966 39.5593 53.3568 39.5892 53.2154 39.5885C53.0741 39.5879 52.9346 39.5568 52.8063 39.4974C52.6781 39.438 52.5642 39.3516 52.4723 39.2442L49.2543 35.48C48.7116 35.0021 48.3806 34.3284 48.3338 33.6068C48.2871 32.8852 48.5284 32.1745 49.0048 31.6305C49.4813 31.0865 50.154 30.7537 50.8755 30.7049C51.597 30.6562 52.3083 30.8956 52.8536 31.3705L57.0119 34.0304C57.131 34.1066 57.2322 34.2076 57.3087 34.3264C57.3852 34.4452 57.4352 34.5792 57.4552 34.7191C57.4753 34.859 57.465 35.0016 57.425 35.1371C57.385 35.2727 57.3163 35.398 57.2235 35.5046Z" fill="#E4E4E4"/>
<path d="M73.7478 54.0507H67.6875V51.9374C67.6875 51.1337 68.0067 50.363 68.575 49.7947C69.1433 49.2265 69.914 48.9072 70.7177 48.9072C71.5213 48.9072 72.292 49.2265 72.8603 49.7947C73.4286 50.363 73.7478 51.1337 73.7478 51.9374L73.7478 54.0507ZM67.8217 53.9165H73.6136V51.9374C73.6136 51.1693 73.3085 50.4327 72.7654 49.8896C72.2223 49.3465 71.4857 49.0414 70.7176 49.0414C69.9496 49.0414 69.213 49.3465 68.6699 49.8896C68.1268 50.4327 67.8217 51.1693 67.8217 51.9374V53.9165Z" fill="#3F3D56"/>
<path d="M76.7436 53.7595V52.9336L61.3315 53.3467L60.8438 74.2661L63.1247 77.0839L76.7436 53.7595Z" fill="#3F3D56"/>
<path d="M79.4745 53.4683L62.7695 53.8484L63.1272 77.0834L79.2485 75.3458L79.4745 53.4683Z" fill="#F9A826"/>
<path d="M46.0866 28.2837C49.6951 28.2837 52.6204 25.3584 52.6204 21.7499C52.6204 18.1414 49.6951 15.2161 46.0866 15.2161C42.478 15.2161 39.5527 18.1414 39.5527 21.7499C39.5527 25.3584 42.478 28.2837 46.0866 28.2837Z" fill="#FFB6B6"/>
<path d="M43.0792 18.8382C45.3395 21.0533 49.2728 21.2656 51.7584 19.3067C52.4483 21.686 52.5238 24.2015 51.978 26.618C51.4321 29.0344 50.2826 31.2731 48.6369 33.1249C50.0195 33.6245 51.6112 33.2958 52.8471 32.4995C54.0829 31.7033 54.9982 30.4875 55.6888 29.1897C57.3986 25.9769 57.8266 22.0541 56.617 18.6216C55.4075 15.1891 52.5096 12.3429 48.9889 11.4213C45.4682 10.4997 41.4314 11.6381 39.0791 14.4151C36.6195 17.3191 36.221 21.574 37.2988 25.2238C38.3767 28.8736 40.7408 32.0079 43.3383 34.7892C42.0907 31.581 41.2633 28.2249 40.8769 24.8044C40.7448 23.6329 40.6675 22.4254 40.9985 21.2939C41.3294 20.1625 42.1439 19.1086 43.2791 18.7906" fill="#2F2E41"/>
</g>
</svg>
