<svg width="57" height="49" viewBox="0 0 57 49" fill="none" xmlns="http://www.w3.org/2000/svg">
<path d="M26.4645 24.4908C26.4645 25.0321 26.2501 25.5512 25.8683 25.934C25.4865 26.3167 24.9687 26.5317 24.4288 26.5317H12.2144C11.6745 26.5317 11.1567 26.3167 10.7749 25.934C10.3932 25.5512 10.1787 25.0321 10.1787 24.4908C10.1787 23.9495 10.3932 23.4304 10.7749 23.0477C11.1567 22.6649 11.6745 22.4499 12.2144 22.4499H24.4288C24.9687 22.4499 25.4865 22.6649 25.8683 23.0477C26.2501 23.4304 26.4645 23.9495 26.4645 24.4908ZM24.4288 14.2863H12.2144C11.6745 14.2863 11.1567 14.5013 10.7749 14.8841C10.3932 15.2668 10.1787 15.7859 10.1787 16.3272C10.1787 16.8685 10.3932 17.3876 10.7749 17.7703C11.1567 18.1531 11.6745 18.3681 12.2144 18.3681H24.4288C24.9687 18.3681 25.4865 18.1531 25.8683 17.7703C26.2501 17.3876 26.4645 16.8685 26.4645 16.3272C26.4645 15.7859 26.2501 15.2668 25.8683 14.8841C25.4865 14.5013 24.9687 14.2863 24.4288 14.2863ZM52.9291 30.9885V46.9407C52.9323 47.3005 52.8406 47.6548 52.6633 47.9676C52.4859 48.2804 52.2292 48.5407 51.9192 48.722C51.6092 48.9033 51.2569 48.9992 50.8979 49C50.539 49.0008 50.1863 48.9065 49.8755 48.7265L43.7683 45.2213L37.6611 48.7265C37.3503 48.9065 36.9975 49.0008 36.6386 49C36.2797 48.9992 35.9274 48.9033 35.6174 48.722C35.3074 48.5407 35.0507 48.2804 34.8733 47.9676C34.696 47.6548 34.6043 47.3005 34.6075 46.9407V40.818H4.07147C2.99165 40.818 1.95605 40.388 1.19251 39.6225C0.428957 38.857 0 37.8188 0 36.7362V4.0818C0 2.99924 0.428957 1.96102 1.19251 1.19553C1.95605 0.430046 2.99165 0 4.07147 0H48.8576C49.9374 0 50.973 0.430046 51.7366 1.19553C52.5001 1.96102 52.9291 2.99924 52.9291 4.0818V11.8704C54.216 13.1059 55.2401 14.5897 55.9397 16.2325C56.6393 17.8754 57 19.6432 57 21.4295C57 23.2158 56.6393 24.9836 55.9397 26.6264C55.2401 28.2692 54.216 29.7531 52.9291 30.9885ZM34.6075 36.7362V30.9885C32.3891 28.8436 30.9871 25.9897 30.6434 22.9191C30.2997 19.8486 31.0359 16.754 32.725 14.1696C34.4141 11.5851 36.95 9.67274 39.8953 8.76257C42.8405 7.85239 46.0103 8.00146 48.8576 9.18406V4.0818H4.07147V36.7362H34.6075ZM48.8576 33.6749C47.2454 34.3502 45.5155 34.6979 43.7683 34.6979C42.021 34.6979 40.2912 34.3502 38.679 33.6749V43.4253L42.7504 41.0885C43.0581 40.9122 43.4063 40.8194 43.7607 40.8194C44.115 40.8194 44.4632 40.9122 44.7709 41.0885L48.8424 43.4253L48.8576 33.6749ZM52.9291 21.4295C52.9291 19.613 52.3918 17.8374 51.3852 16.3271C50.3786 14.8168 48.9479 13.6396 47.274 12.9445C45.6001 12.2494 43.7581 12.0675 41.9811 12.4219C40.2041 12.7762 38.5718 13.6509 37.2906 14.9354C36.0095 16.2198 35.137 17.8562 34.7835 19.6377C34.43 21.4193 34.6115 23.2659 35.3048 24.9441C35.9982 26.6222 37.1723 28.0566 38.6788 29.0657C40.1853 30.0749 41.9565 30.6135 43.7683 30.6135C44.9713 30.6135 46.1625 30.376 47.274 29.9144C48.3854 29.4529 49.3953 28.7764 50.246 27.9236C51.0966 27.0708 51.7714 26.0583 52.2318 24.9441C52.6921 23.8298 52.9291 22.6355 52.9291 21.4295Z" fill="#F9A826"/>
</svg>
