<svg width="336" height="133" viewBox="0 0 336 133" fill="none" xmlns="http://www.w3.org/2000/svg">
<path d="M188.043 29.4999C188.047 30.9586 187.472 32.3592 186.444 33.3938C185.415 34.4283 184.018 35.0119 182.56 35.0163C181.101 35.0206 179.7 34.4454 178.666 33.417C177.631 32.3886 177.048 30.9914 177.043 29.5327L177.012 19.0328C177.009 17.9719 177.427 16.9533 178.175 16.2009C178.923 15.4485 179.939 15.024 181 15.0209C182.061 15.0177 183.079 15.4361 183.832 16.184C184.584 16.9319 185.009 17.948 185.012 19.0089L185.037 27.5089C185.039 28.1719 184.778 28.8086 184.31 29.2788C183.843 29.749 183.208 30.0143 182.545 30.0163C181.882 30.0183 181.245 29.7568 180.775 29.2894C180.304 28.8219 180.039 28.1868 180.037 27.5238L180.015 20.0238L181.515 20.0193L181.537 27.5193C181.538 27.7845 181.644 28.0386 181.832 28.2255C182.02 28.4125 182.275 28.5171 182.54 28.5163C182.805 28.5155 183.059 28.4094 183.246 28.2213C183.433 28.0332 183.538 27.7786 183.537 27.5133L183.512 19.0134C183.511 18.6851 183.445 18.3602 183.319 18.0572C183.192 17.7543 183.007 17.4793 182.774 17.2478C182.541 17.0163 182.265 16.833 181.962 16.7083C181.658 16.5836 181.333 16.5199 181.004 16.5209C180.676 16.5218 180.351 16.5875 180.048 16.714C179.745 16.8406 179.47 17.0255 179.239 17.2584C179.007 17.4912 178.824 17.7673 178.699 18.071C178.574 18.3747 178.511 18.7 178.512 19.0283L178.543 29.5283C178.546 30.5891 178.971 31.6053 179.723 32.3532C180.476 33.1011 181.494 33.5195 182.555 33.5163C183.616 33.5131 184.632 33.0887 185.38 32.3363C186.128 31.5839 186.546 30.5652 186.543 29.5044L186.515 20.0044L188.015 19.9999L188.043 29.4999Z" fill="#FB8C00"/>
<rect y="74.1465" width="336" height="58.7352" fill="#FB8C00"/>
<path d="M124.075 108.246C122.905 108.246 121.938 107.974 121.173 107.431C120.418 106.878 120.008 106.072 119.943 105.012H123.205C123.251 105.574 123.5 105.855 123.951 105.855C124.117 105.855 124.255 105.818 124.366 105.745C124.485 105.662 124.545 105.537 124.545 105.372C124.545 105.141 124.421 104.957 124.172 104.819C123.923 104.671 123.536 104.506 123.011 104.321C122.385 104.1 121.864 103.884 121.45 103.672C121.044 103.46 120.694 103.151 120.399 102.746C120.104 102.34 119.962 101.82 119.971 101.184C119.971 100.548 120.132 100.009 120.455 99.5672C120.786 99.1157 121.233 98.7748 121.795 98.5445C122.366 98.3141 123.007 98.199 123.716 98.199C124.914 98.199 125.863 98.4754 126.563 99.0282C127.272 99.581 127.646 100.36 127.682 101.364H124.379C124.37 101.087 124.301 100.889 124.172 100.77C124.043 100.65 123.887 100.59 123.702 100.59C123.573 100.59 123.467 100.636 123.384 100.728C123.301 100.811 123.26 100.931 123.26 101.087C123.26 101.308 123.38 101.493 123.619 101.64C123.868 101.778 124.26 101.949 124.794 102.152C125.411 102.382 125.918 102.603 126.314 102.815C126.72 103.027 127.07 103.322 127.365 103.699C127.659 104.077 127.807 104.552 127.807 105.123C127.807 105.722 127.659 106.261 127.365 106.74C127.07 107.21 126.641 107.578 126.079 107.845C125.517 108.113 124.849 108.246 124.075 108.246ZM136.431 104.183C136.431 104.395 136.417 104.598 136.389 104.791H131.455C131.501 105.464 131.782 105.8 132.298 105.8C132.63 105.8 132.87 105.648 133.017 105.344H136.265C136.154 105.897 135.919 106.394 135.56 106.837C135.21 107.27 134.763 107.615 134.219 107.873C133.685 108.122 133.095 108.246 132.45 108.246C131.676 108.246 130.985 108.085 130.377 107.762C129.778 107.44 129.309 106.979 128.968 106.38C128.636 105.772 128.47 105.063 128.47 104.252C128.47 103.441 128.636 102.737 128.968 102.138C129.309 101.53 129.778 101.064 130.377 100.742C130.985 100.419 131.676 100.258 132.45 100.258C133.224 100.258 133.911 100.419 134.51 100.742C135.118 101.055 135.587 101.507 135.919 102.096C136.26 102.686 136.431 103.381 136.431 104.183ZM133.321 103.451C133.321 103.193 133.238 102.999 133.072 102.87C132.906 102.732 132.699 102.663 132.45 102.663C131.907 102.663 131.589 102.925 131.497 103.451H133.321ZM142.86 100.3C143.753 100.3 144.449 100.599 144.947 101.198C145.453 101.797 145.707 102.608 145.707 103.63V108.149H142.652V104.017C142.652 103.649 142.551 103.358 142.348 103.147C142.155 102.925 141.892 102.815 141.561 102.815C141.22 102.815 140.953 102.925 140.759 103.147C140.566 103.358 140.469 103.649 140.469 104.017V108.149H137.401V100.355H140.469V101.543C140.708 101.175 141.026 100.875 141.422 100.645C141.828 100.415 142.307 100.3 142.86 100.3ZM146.622 104.252C146.622 103.432 146.761 102.723 147.037 102.124C147.323 101.516 147.71 101.055 148.198 100.742C148.686 100.419 149.234 100.258 149.843 100.258C150.349 100.258 150.782 100.364 151.142 100.576C151.51 100.779 151.791 101.06 151.985 101.419V97.9226H155.053V108.149H151.985V107.085C151.791 107.445 151.51 107.73 151.142 107.942C150.782 108.145 150.349 108.246 149.843 108.246C149.234 108.246 148.686 108.09 148.198 107.776C147.71 107.454 147.323 106.993 147.037 106.394C146.761 105.786 146.622 105.072 146.622 104.252ZM151.998 104.252C151.998 103.838 151.893 103.515 151.681 103.285C151.469 103.054 151.197 102.939 150.865 102.939C150.534 102.939 150.262 103.054 150.05 103.285C149.838 103.515 149.732 103.838 149.732 104.252C149.732 104.667 149.838 104.989 150.05 105.22C150.262 105.45 150.534 105.565 150.865 105.565C151.197 105.565 151.469 105.45 151.681 105.22C151.893 104.989 151.998 104.667 151.998 104.252ZM158.364 104.252C158.364 103.432 158.502 102.723 158.779 102.124C159.064 101.516 159.451 101.055 159.94 100.742C160.428 100.419 160.976 100.258 161.584 100.258C162.091 100.258 162.529 100.364 162.897 100.576C163.266 100.779 163.547 101.06 163.74 101.419V100.355H166.794V108.149H163.74V107.085C163.547 107.445 163.266 107.73 162.897 107.942C162.529 108.145 162.091 108.246 161.584 108.246C160.976 108.246 160.428 108.09 159.94 107.776C159.451 107.454 159.064 106.993 158.779 106.394C158.502 105.786 158.364 105.072 158.364 104.252ZM163.74 104.252C163.74 103.838 163.634 103.515 163.422 103.285C163.21 103.054 162.939 102.939 162.607 102.939C162.275 102.939 162.003 103.054 161.791 103.285C161.58 103.515 161.474 103.838 161.474 104.252C161.474 104.667 161.58 104.989 161.791 105.22C162.003 105.45 162.275 105.565 162.607 105.565C162.939 105.565 163.21 105.45 163.422 105.22C163.634 104.989 163.74 104.667 163.74 104.252ZM173.631 100.3C174.525 100.3 175.22 100.599 175.718 101.198C176.225 101.797 176.478 102.608 176.478 103.63V108.149H173.424V104.017C173.424 103.649 173.322 103.358 173.12 103.147C172.926 102.925 172.664 102.815 172.332 102.815C171.991 102.815 171.724 102.925 171.53 103.147C171.337 103.358 171.24 103.649 171.24 104.017V108.149H168.172V100.355H171.24V101.543C171.48 101.175 171.798 100.875 172.194 100.645C172.599 100.415 173.078 100.3 173.631 100.3ZM183.86 108.246C183.077 108.246 182.372 108.085 181.746 107.762C181.119 107.44 180.626 106.979 180.267 106.38C179.917 105.772 179.742 105.063 179.742 104.252C179.742 103.441 179.917 102.737 180.267 102.138C180.626 101.53 181.119 101.064 181.746 100.742C182.372 100.419 183.077 100.258 183.86 100.258C184.644 100.258 185.348 100.419 185.975 100.742C186.601 101.064 187.09 101.53 187.44 102.138C187.799 102.737 187.979 103.441 187.979 104.252C187.979 105.063 187.799 105.772 187.44 106.38C187.09 106.979 186.601 107.44 185.975 107.762C185.348 108.085 184.644 108.246 183.86 108.246ZM183.86 105.593C184.146 105.593 184.386 105.482 184.579 105.261C184.773 105.031 184.869 104.694 184.869 104.252C184.869 103.81 184.773 103.478 184.579 103.257C184.386 103.027 184.146 102.912 183.86 102.912C183.575 102.912 183.335 103.027 183.142 103.257C182.948 103.478 182.852 103.81 182.852 104.252C182.852 104.694 182.944 105.031 183.128 105.261C183.321 105.482 183.566 105.593 183.86 105.593ZM193.434 99.8021C193.268 99.7837 193.153 99.7745 193.089 99.7745C192.858 99.7745 192.683 99.8205 192.563 99.9127C192.444 99.9956 192.361 100.143 192.315 100.355H193.434V102.912H192.287V108.149H189.219V102.912H188.39V100.355H189.219C189.237 99.3414 189.555 98.5583 190.173 98.0055C190.799 97.4435 191.674 97.1625 192.798 97.1625C192.927 97.1625 193.139 97.1717 193.434 97.1901V99.8021ZM198.752 99.8021C198.586 99.7837 198.471 99.7745 198.406 99.7745C198.176 99.7745 198.001 99.8205 197.881 99.9127C197.761 99.9956 197.678 100.143 197.632 100.355H198.752V102.912H197.605V108.149H194.536V102.912H193.707V100.355H194.536C194.555 99.3414 194.873 98.5583 195.49 98.0055C196.117 97.4435 196.992 97.1625 198.116 97.1625C198.245 97.1625 198.457 97.1717 198.752 97.1901V99.8021ZM207.123 104.183C207.123 104.395 207.109 104.598 207.082 104.791H202.148C202.194 105.464 202.475 105.8 202.991 105.8C203.323 105.8 203.562 105.648 203.71 105.344H206.957C206.847 105.897 206.612 106.394 206.253 106.837C205.903 107.27 205.456 107.615 204.912 107.873C204.378 108.122 203.788 108.246 203.143 108.246C202.369 108.246 201.678 108.085 201.07 107.762C200.471 107.44 200.001 106.979 199.66 106.38C199.329 105.772 199.163 105.063 199.163 104.252C199.163 103.441 199.329 102.737 199.66 102.138C200.001 101.53 200.471 101.064 201.07 100.742C201.678 100.419 202.369 100.258 203.143 100.258C203.917 100.258 204.603 100.419 205.202 100.742C205.81 101.055 206.28 101.507 206.612 102.096C206.953 102.686 207.123 103.381 207.123 104.183ZM204.014 103.451C204.014 103.193 203.931 102.999 203.765 102.87C203.599 102.732 203.392 102.663 203.143 102.663C202.6 102.663 202.282 102.925 202.19 103.451H204.014ZM211.162 101.792C211.475 101.341 211.857 100.981 212.309 100.714C212.76 100.438 213.23 100.3 213.718 100.3V103.575H212.848C212.267 103.575 211.839 103.676 211.562 103.879C211.295 104.082 211.162 104.441 211.162 104.957V108.149H208.094V100.355H211.162V101.792Z" fill="white"/>
<rect x="8.43188" y="0.431877" width="146.136" height="53.1362" rx="20.2982" stroke="#FB8C00" stroke-width="0.863753"/>
<path d="M35.4391 21.0967C34.8033 21.0967 34.2321 20.9862 33.7254 20.7651C33.2279 20.5347 32.8363 20.2215 32.5507 19.8253C32.2651 19.4199 32.1176 18.9546 32.1084 18.4295H33.449C33.495 18.8809 33.6793 19.2633 34.0018 19.5765C34.3335 19.8806 34.8126 20.0326 35.4391 20.0326C36.0379 20.0326 36.5078 19.8852 36.8487 19.5904C37.1988 19.2863 37.3739 18.8994 37.3739 18.4295C37.3739 18.0609 37.2725 17.7615 37.0698 17.5312C36.8671 17.3008 36.6138 17.1258 36.3097 17.006C36.0057 16.8862 35.5957 16.7572 35.0797 16.619C34.444 16.4532 33.9327 16.2874 33.5457 16.1215C33.168 15.9557 32.8409 15.6977 32.5645 15.3476C32.2973 14.9883 32.1637 14.5092 32.1637 13.9103C32.1637 13.3852 32.2973 12.9199 32.5645 12.5145C32.8317 12.1091 33.2048 11.7958 33.6839 11.5747C34.1722 11.3536 34.7296 11.243 35.3561 11.243C36.2591 11.243 36.9961 11.4688 37.5674 11.9202C38.1478 12.3717 38.4749 12.9705 38.5486 13.7168H37.1666C37.1205 13.3483 36.927 13.0258 36.5861 12.7494C36.2452 12.4638 35.7938 12.321 35.2318 12.321C34.7066 12.321 34.2782 12.4592 33.9465 12.7356C33.6148 13.0028 33.449 13.3805 33.449 13.8689C33.449 14.219 33.5457 14.5046 33.7392 14.7257C33.9419 14.9468 34.1861 15.1173 34.4717 15.237C34.7665 15.3476 35.1765 15.4766 35.7016 15.624C36.3374 15.7991 36.8487 15.9741 37.2357 16.1492C37.6226 16.315 37.9543 16.5776 38.2307 16.9369C38.5071 17.287 38.6453 17.7661 38.6453 18.3742C38.6453 18.8441 38.5209 19.2863 38.2722 19.7009C38.0234 20.1155 37.6549 20.4518 37.1666 20.7098C36.6783 20.9678 36.1024 21.0967 35.4391 21.0967ZM47.406 16.9231C47.406 17.1626 47.3922 17.416 47.3646 17.6832H41.3114C41.3575 18.4295 41.6108 19.0145 42.0715 19.4383C42.5414 19.8529 43.108 20.0602 43.7714 20.0602C44.315 20.0602 44.7664 19.9359 45.1257 19.6871C45.4943 19.4291 45.7522 19.0882 45.8997 18.6644H47.254C47.0513 19.3923 46.6459 19.9865 46.0379 20.4472C45.4298 20.8987 44.6743 21.1244 43.7714 21.1244C43.0527 21.1244 42.4078 20.9631 41.8366 20.6407C41.2745 20.3182 40.8323 19.8621 40.5098 19.2725C40.1874 18.6736 40.0261 17.9826 40.0261 17.1995C40.0261 16.4163 40.1828 15.73 40.496 15.1403C40.8093 14.5506 41.2469 14.0992 41.8089 13.7859C42.3802 13.4635 43.0343 13.3022 43.7714 13.3022C44.49 13.3022 45.1257 13.4589 45.6785 13.7721C46.2313 14.0854 46.6552 14.5184 46.95 15.0712C47.254 15.6148 47.406 16.2321 47.406 16.9231ZM46.107 16.6605C46.107 16.1814 46.001 15.7714 45.7891 15.4305C45.5772 15.0804 45.287 14.8178 44.9184 14.6428C44.5591 14.4585 44.1583 14.3664 43.7161 14.3664C43.0804 14.3664 42.5368 14.5691 42.0853 14.9745C41.6431 15.3798 41.3897 15.9419 41.3252 16.6605H46.107ZM52.756 13.2884C53.6774 13.2884 54.4236 13.5694 54.9949 14.1314C55.5661 14.6842 55.8517 15.4858 55.8517 16.5361V21H54.6079V16.7158C54.6079 15.9603 54.419 15.3845 54.0413 14.9883C53.6635 14.5829 53.1476 14.3802 52.4934 14.3802C51.8301 14.3802 51.3003 14.5875 50.9041 15.0021C50.5172 15.4167 50.3237 16.0202 50.3237 16.8125V21H49.0661V13.4266H50.3237V14.5046C50.5725 14.1176 50.9087 13.8182 51.3326 13.6063C51.7656 13.3944 52.2401 13.2884 52.756 13.2884ZM57.4362 17.1857C57.4362 16.4117 57.5928 15.7346 57.906 15.1541C58.2193 14.5645 58.6477 14.1084 59.1913 13.7859C59.7441 13.4635 60.3614 13.3022 61.0432 13.3022C61.6329 13.3022 62.181 13.4404 62.6878 13.7168C63.1945 13.984 63.5815 14.3387 63.8487 14.781V10.7732H65.1201V21H63.8487V19.5765C63.5999 20.028 63.2314 20.4011 62.7431 20.696C62.2548 20.9816 61.6835 21.1244 61.0294 21.1244C60.3568 21.1244 59.7441 20.9585 59.1913 20.6269C58.6477 20.2952 58.2193 19.8299 57.906 19.231C57.5928 18.6322 57.4362 17.9504 57.4362 17.1857ZM63.8487 17.1995C63.8487 16.6283 63.7335 16.1307 63.5032 15.7069C63.2728 15.2831 62.9596 14.9606 62.5634 14.7395C62.1764 14.5092 61.748 14.394 61.2781 14.394C60.8083 14.394 60.3798 14.5046 59.9929 14.7257C59.6059 14.9468 59.2973 15.2693 59.0669 15.6931C58.8366 16.1169 58.7214 16.6144 58.7214 17.1857C58.7214 17.7661 58.8366 18.2728 59.0669 18.7059C59.2973 19.1297 59.6059 19.4568 59.9929 19.6871C60.3798 19.9082 60.8083 20.0188 61.2781 20.0188C61.748 20.0188 62.1764 19.9082 62.5634 19.6871C62.9596 19.4568 63.2728 19.1297 63.5032 18.7059C63.7335 18.2728 63.8487 17.7707 63.8487 17.1995ZM80.0372 13.2884C80.6269 13.2884 81.1521 13.4128 81.6127 13.6616C82.0734 13.9011 82.4373 14.265 82.7045 14.7533C82.9717 15.2416 83.1053 15.8359 83.1053 16.5361V21H81.8615V16.7158C81.8615 15.9603 81.6726 15.3845 81.2949 14.9883C80.9263 14.5829 80.4242 14.3802 79.7885 14.3802C79.1343 14.3802 78.6138 14.5921 78.2268 15.0159C77.8399 15.4305 77.6464 16.034 77.6464 16.8263V21H76.4026V16.7158C76.4026 15.9603 76.2137 15.3845 75.8359 14.9883C75.4674 14.5829 74.9653 14.3802 74.3296 14.3802C73.6754 14.3802 73.1549 14.5921 72.7679 15.0159C72.3809 15.4305 72.1874 16.034 72.1874 16.8263V21H70.9298V13.4266H72.1874V14.5184C72.4362 14.1222 72.7679 13.8182 73.1825 13.6063C73.6063 13.3944 74.0716 13.2884 74.5783 13.2884C75.214 13.2884 75.7761 13.4312 76.2644 13.7168C76.7527 14.0024 77.1166 14.4217 77.3561 14.9745C77.5681 14.4401 77.9182 14.0255 78.4065 13.7307C78.8948 13.4358 79.4384 13.2884 80.0372 13.2884ZM92.0783 16.9231C92.0783 17.1626 92.0645 17.416 92.0368 17.6832H85.9836C86.0297 18.4295 86.2831 19.0145 86.7437 19.4383C87.2136 19.8529 87.7802 20.0602 88.4436 20.0602C88.9872 20.0602 89.4387 19.9359 89.798 19.6871C90.1665 19.4291 90.4245 19.0882 90.5719 18.6644H91.9263C91.7236 19.3923 91.3182 19.9865 90.7101 20.4472C90.102 20.8987 89.3465 21.1244 88.4436 21.1244C87.725 21.1244 87.08 20.9631 86.5088 20.6407C85.9468 20.3182 85.5045 19.8621 85.1821 19.2725C84.8596 18.6736 84.6984 17.9826 84.6984 17.1995C84.6984 16.4163 84.855 15.73 85.1683 15.1403C85.4815 14.5506 85.9191 14.0992 86.4812 13.7859C87.0524 13.4635 87.7065 13.3022 88.4436 13.3022C89.1622 13.3022 89.798 13.4589 90.3508 13.7721C90.9036 14.0854 91.3274 14.5184 91.6222 15.0712C91.9263 15.6148 92.0783 16.2321 92.0783 16.9231ZM90.7792 16.6605C90.7792 16.1814 90.6732 15.7714 90.4613 15.4305C90.2494 15.0804 89.9592 14.8178 89.5907 14.6428C89.2313 14.4585 88.8306 14.3664 88.3883 14.3664C87.7526 14.3664 87.209 14.5691 86.7576 14.9745C86.3153 15.3798 86.062 15.9419 85.9975 16.6605H90.7792ZM96.4194 21.1244C95.839 21.1244 95.3184 21.0276 94.8577 20.8342C94.3971 20.6315 94.0331 20.3551 93.7659 20.005C93.4988 19.6456 93.3513 19.2356 93.3237 18.775H94.6228C94.6596 19.1527 94.8347 19.4614 95.148 19.7009C95.4704 19.9405 95.8896 20.0602 96.4056 20.0602C96.8847 20.0602 97.2624 19.9543 97.5388 19.7424C97.8152 19.5305 97.9534 19.2633 97.9534 18.9408C97.9534 18.6091 97.806 18.365 97.5112 18.2083C97.2164 18.0425 96.7603 17.8813 96.143 17.7246C95.581 17.5772 95.1203 17.4298 94.761 17.2824C94.4109 17.1258 94.1068 16.9001 93.8489 16.6052C93.6001 16.3012 93.4757 15.905 93.4757 15.4167C93.4757 15.0297 93.5909 14.675 93.8212 14.3526C94.0516 14.0301 94.3786 13.7767 94.8025 13.5925C95.2263 13.399 95.71 13.3022 96.2536 13.3022C97.092 13.3022 97.7692 13.5141 98.2851 13.938C98.8011 14.3618 99.0775 14.9422 99.1143 15.6793H97.8567C97.829 15.2831 97.6678 14.9652 97.373 14.7257C97.0874 14.4861 96.7004 14.3664 96.2121 14.3664C95.7606 14.3664 95.4013 14.4631 95.1341 14.6566C94.8669 14.8501 94.7334 15.1034 94.7334 15.4167C94.7334 15.6655 94.8117 15.8728 94.9683 16.0386C95.1341 16.1952 95.3368 16.3242 95.5764 16.4256C95.8251 16.5177 96.166 16.6237 96.5991 16.7434C97.1426 16.8908 97.5849 17.0383 97.9258 17.1857C98.2667 17.3239 98.5569 17.5358 98.7964 17.8214C99.0452 18.107 99.1742 18.4801 99.1834 18.9408C99.1834 19.3554 99.0682 19.7286 98.8379 20.0602C98.6076 20.3919 98.2805 20.6545 97.8567 20.848C97.4421 21.0322 96.963 21.1244 96.4194 21.1244ZM103.64 21.1244C103.059 21.1244 102.539 21.0276 102.078 20.8342C101.617 20.6315 101.254 20.3551 100.986 20.005C100.719 19.6456 100.572 19.2356 100.544 18.775H101.843C101.88 19.1527 102.055 19.4614 102.368 19.7009C102.691 19.9405 103.11 20.0602 103.626 20.0602C104.105 20.0602 104.483 19.9543 104.759 19.7424C105.036 19.5305 105.174 19.2633 105.174 18.9408C105.174 18.6091 105.026 18.365 104.732 18.2083C104.437 18.0425 103.981 17.8813 103.363 17.7246C102.801 17.5772 102.341 17.4298 101.981 17.2824C101.631 17.1258 101.327 16.9001 101.069 16.6052C100.821 16.3012 100.696 15.905 100.696 15.4167C100.696 15.0297 100.811 14.675 101.042 14.3526C101.272 14.0301 101.599 13.7767 102.023 13.5925C102.447 13.399 102.93 13.3022 103.474 13.3022C104.312 13.3022 104.99 13.5141 105.506 13.938C106.021 14.3618 106.298 14.9422 106.335 15.6793H105.077C105.049 15.2831 104.888 14.9652 104.593 14.7257C104.308 14.4861 103.921 14.3664 103.433 14.3664C102.981 14.3664 102.622 14.4631 102.355 14.6566C102.087 14.8501 101.954 15.1034 101.954 15.4167C101.954 15.6655 102.032 15.8728 102.189 16.0386C102.355 16.1952 102.557 16.3242 102.797 16.4256C103.046 16.5177 103.386 16.6237 103.819 16.7434C104.363 16.8908 104.805 17.0383 105.146 17.1857C105.487 17.3239 105.777 17.5358 106.017 17.8214C106.266 18.107 106.395 18.4801 106.404 18.9408C106.404 19.3554 106.289 19.7286 106.058 20.0602C105.828 20.3919 105.501 20.6545 105.077 20.848C104.663 21.0322 104.183 21.1244 103.64 21.1244ZM107.709 17.1857C107.709 16.4117 107.866 15.7346 108.179 15.1541C108.492 14.5645 108.921 14.1084 109.464 13.7859C110.017 13.4635 110.63 13.3022 111.303 13.3022C111.966 13.3022 112.542 13.445 113.03 13.7307C113.518 14.0163 113.882 14.3756 114.122 14.8086V13.4266H115.393V21H114.122V19.5904C113.873 20.0326 113.5 20.4011 113.002 20.696C112.514 20.9816 111.943 21.1244 111.289 21.1244C110.616 21.1244 110.008 20.9585 109.464 20.6269C108.921 20.2952 108.492 19.8299 108.179 19.231C107.866 18.6322 107.709 17.9504 107.709 17.1857ZM114.122 17.1995C114.122 16.6283 114.007 16.1307 113.776 15.7069C113.546 15.2831 113.233 14.9606 112.837 14.7395C112.45 14.5092 112.021 14.394 111.551 14.394C111.081 14.394 110.653 14.5046 110.266 14.7257C109.879 14.9468 109.57 15.2693 109.34 15.6931C109.11 16.1169 108.995 16.6144 108.995 17.1857C108.995 17.7661 109.11 18.2728 109.34 18.7059C109.57 19.1297 109.879 19.4568 110.266 19.6871C110.653 19.9082 111.081 20.0188 111.551 20.0188C112.021 20.0188 112.45 19.9082 112.837 19.6871C113.233 19.4568 113.546 19.1297 113.776 18.7059C114.007 18.2728 114.122 17.7707 114.122 17.1995ZM120.642 13.3022C121.296 13.3022 121.867 13.445 122.356 13.7307C122.853 14.0163 123.222 14.3756 123.461 14.8086V13.4266H124.733V21.1658C124.733 21.8568 124.585 22.4695 124.29 23.0039C123.996 23.5475 123.572 23.9713 123.019 24.2754C122.475 24.5794 121.84 24.7314 121.112 24.7314C120.117 24.7314 119.287 24.4965 118.624 24.0266C117.961 23.5567 117.569 22.9164 117.449 22.1056H118.693C118.831 22.5663 119.117 22.9348 119.55 23.2112C119.983 23.4968 120.504 23.6396 121.112 23.6396C121.803 23.6396 122.365 23.4231 122.798 22.9901C123.24 22.5571 123.461 21.949 123.461 21.1658V19.5765C123.212 20.0188 122.844 20.3873 122.356 20.6821C121.867 20.977 121.296 21.1244 120.642 21.1244C119.969 21.1244 119.357 20.9585 118.804 20.6269C118.26 20.2952 117.832 19.8299 117.519 19.231C117.205 18.6322 117.049 17.9504 117.049 17.1857C117.049 16.4117 117.205 15.7346 117.519 15.1541C117.832 14.5645 118.26 14.1084 118.804 13.7859C119.357 13.4635 119.969 13.3022 120.642 13.3022ZM123.461 17.1995C123.461 16.6283 123.346 16.1307 123.116 15.7069C122.885 15.2831 122.572 14.9606 122.176 14.7395C121.789 14.5092 121.36 14.394 120.891 14.394C120.421 14.394 119.992 14.5046 119.605 14.7257C119.218 14.9468 118.91 15.2693 118.679 15.6931C118.449 16.1169 118.334 16.6144 118.334 17.1857C118.334 17.7661 118.449 18.2728 118.679 18.7059C118.91 19.1297 119.218 19.4568 119.605 19.6871C119.992 19.9082 120.421 20.0188 120.891 20.0188C121.36 20.0188 121.789 19.9082 122.176 19.6871C122.572 19.4568 122.885 19.1297 123.116 18.7059C123.346 18.2728 123.461 17.7707 123.461 17.1995ZM133.768 16.9231C133.768 17.1626 133.754 17.416 133.726 17.6832H127.673C127.719 18.4295 127.973 19.0145 128.433 19.4383C128.903 19.8529 129.47 20.0602 130.133 20.0602C130.677 20.0602 131.128 19.9359 131.488 19.6871C131.856 19.4291 132.114 19.0882 132.261 18.6644H133.616C133.413 19.3923 133.008 19.9865 132.4 20.4472C131.792 20.8987 131.036 21.1244 130.133 21.1244C129.415 21.1244 128.77 20.9631 128.198 20.6407C127.636 20.3182 127.194 19.8621 126.872 19.2725C126.549 18.6736 126.388 17.9826 126.388 17.1995C126.388 16.4163 126.545 15.73 126.858 15.1403C127.171 14.5506 127.609 14.0992 128.171 13.7859C128.742 13.4635 129.396 13.3022 130.133 13.3022C130.852 13.3022 131.488 13.4589 132.04 13.7721C132.593 14.0854 133.017 14.5184 133.312 15.0712C133.616 15.6148 133.768 16.2321 133.768 16.9231ZM132.469 16.6605C132.469 16.1814 132.363 15.7714 132.151 15.4305C131.939 15.0804 131.649 14.8178 131.28 14.6428C130.921 14.4585 130.52 14.3664 130.078 14.3664C129.442 14.3664 128.899 14.5691 128.447 14.9745C128.005 15.3798 127.752 15.9419 127.687 16.6605H132.469ZM41.6724 35.4631V39.927C41.6724 40.2955 41.7507 40.5581 41.9073 40.7147C42.064 40.8621 42.3358 40.9359 42.7227 40.9359H43.6487V42H42.5154C41.8152 42 41.29 41.8388 40.9399 41.5163C40.5898 41.1938 40.4148 40.6641 40.4148 39.927V35.4631H39.4336V34.4266H40.4148V32.5194H41.6724V34.4266H43.6487V35.4631H41.6724ZM48.4754 42.1244C47.766 42.1244 47.1211 41.9631 46.5406 41.6407C45.9694 41.3182 45.5179 40.8621 45.1863 40.2725C44.8638 39.6736 44.7026 38.9826 44.7026 38.1995C44.7026 37.4256 44.8684 36.7438 45.2001 36.1541C45.541 35.5552 46.0016 35.0992 46.5821 34.7859C47.1625 34.4635 47.8121 34.3022 48.5307 34.3022C49.2494 34.3022 49.8989 34.4635 50.4793 34.7859C51.0598 35.0992 51.5158 35.5506 51.8475 36.1403C52.1884 36.73 52.3589 37.4163 52.3589 38.1995C52.3589 38.9826 52.1838 39.6736 51.8337 40.2725C51.4928 40.8621 51.0275 41.3182 50.4379 41.6407C49.8482 41.9631 49.1941 42.1244 48.4754 42.1244ZM48.4754 41.0188C48.9269 41.0188 49.3507 40.9128 49.7469 40.7009C50.143 40.489 50.4609 40.1711 50.7005 39.7473C50.9492 39.3235 51.0736 38.8076 51.0736 38.1995C51.0736 37.5914 50.9538 37.0755 50.7143 36.6516C50.4747 36.2278 50.1615 35.9146 49.7745 35.7119C49.3876 35.5 48.9683 35.394 48.5169 35.394C48.0562 35.394 47.6324 35.5 47.2454 35.7119C46.8677 35.9146 46.5637 36.2278 46.3333 36.6516C46.103 37.0755 45.9878 37.5914 45.9878 38.1995C45.9878 38.8168 46.0984 39.3373 46.3195 39.7612C46.5498 40.185 46.8539 40.5028 47.2316 40.7147C47.6094 40.9174 48.024 41.0188 48.4754 41.0188ZM57.227 38.1995C57.227 37.4163 57.3836 36.7346 57.6969 36.1541C58.0101 35.5645 58.4431 35.1084 58.9959 34.7859C59.558 34.4635 60.1983 34.3022 60.9169 34.3022C61.8475 34.3022 62.6122 34.528 63.2111 34.9794C63.8191 35.4309 64.2199 36.0574 64.4134 36.8589H63.059C62.9301 36.3983 62.6767 36.0343 62.2989 35.7672C61.9304 35.5 61.4697 35.3664 60.9169 35.3664C60.1983 35.3664 59.6178 35.6151 59.1756 36.1127C58.7334 36.601 58.5122 37.2966 58.5122 38.1995C58.5122 39.1116 58.7334 39.8164 59.1756 40.314C59.6178 40.8115 60.1983 41.0602 60.9169 41.0602C61.4697 41.0602 61.9304 40.9312 62.2989 40.6733C62.6675 40.4153 62.9208 40.0468 63.059 39.5677H64.4134C64.2107 40.3416 63.8053 40.9635 63.1972 41.4334C62.5892 41.894 61.8291 42.1244 60.9169 42.1244C60.1983 42.1244 59.558 41.9631 58.9959 41.6407C58.4431 41.3182 58.0101 40.8621 57.6969 40.2725C57.3836 39.6828 57.227 38.9918 57.227 38.1995ZM72.808 34.4266V42H71.5504V40.8806C71.3108 41.2675 70.9745 41.5716 70.5415 41.7927C70.1177 42.0046 69.6478 42.1106 69.1319 42.1106C68.5422 42.1106 68.0124 41.9908 67.5426 41.7512C67.0727 41.5025 66.6995 41.1339 66.4231 40.6456C66.156 40.1573 66.0224 39.5631 66.0224 38.8628V34.4266H67.2662V38.697C67.2662 39.4433 67.455 40.0191 67.8328 40.4245C68.2105 40.8207 68.7265 41.0188 69.3806 41.0188C70.0532 41.0188 70.583 40.8115 70.9699 40.3969C71.3569 39.9823 71.5504 39.3788 71.5504 38.5864V34.4266H72.808ZM77.6125 42.1244C77.0321 42.1244 76.5115 42.0276 76.0509 41.8342C75.5902 41.6315 75.2263 41.3551 74.9591 41.005C74.6919 40.6456 74.5445 40.2356 74.5168 39.775H75.8159C75.8528 40.1527 76.0278 40.4614 76.3411 40.7009C76.6635 40.9405 77.0828 41.0602 77.5987 41.0602C78.0778 41.0602 78.4555 40.9543 78.7319 40.7424C79.0083 40.5305 79.1466 40.2633 79.1466 39.9408C79.1466 39.6091 78.9991 39.365 78.7043 39.2083C78.4095 39.0425 77.9534 38.8813 77.3361 38.7246C76.7741 38.5772 76.3134 38.4298 75.9541 38.2824C75.604 38.1258 75.3 37.9001 75.042 37.6052C74.7932 37.3012 74.6689 36.905 74.6689 36.4167C74.6689 36.0297 74.784 35.675 75.0144 35.3526C75.2447 35.0301 75.5718 34.7767 75.9956 34.5925C76.4194 34.399 76.9031 34.3022 77.4467 34.3022C78.2851 34.3022 78.9623 34.5141 79.4782 34.938C79.9942 35.3618 80.2706 35.9422 80.3074 36.6793H79.0498C79.0222 36.2831 78.8609 35.9652 78.5661 35.7257C78.2805 35.4861 77.8935 35.3664 77.4052 35.3664C76.9538 35.3664 76.5944 35.4631 76.3273 35.6566C76.0601 35.8501 75.9265 36.1034 75.9265 36.4167C75.9265 36.6655 76.0048 36.8728 76.1614 37.0386C76.3273 37.1952 76.53 37.3242 76.7695 37.4256C77.0183 37.5177 77.3592 37.6237 77.7922 37.7434C78.3358 37.8908 78.778 38.0383 79.1189 38.1857C79.4598 38.3239 79.75 38.5358 79.9896 38.8214C80.2383 39.107 80.3673 39.4801 80.3765 39.9408C80.3765 40.3554 80.2614 40.7286 80.031 41.0602C79.8007 41.3919 79.4736 41.6545 79.0498 41.848C78.6352 42.0322 78.1561 42.1244 77.6125 42.1244ZM83.6859 35.4631V39.927C83.6859 40.2955 83.7642 40.5581 83.9208 40.7147C84.0775 40.8621 84.3493 40.9359 84.7362 40.9359H85.6622V42H84.5289C83.8287 42 83.3035 41.8388 82.9534 41.5163C82.6033 41.1938 82.4283 40.6641 82.4283 39.927V35.4631H81.447V34.4266H82.4283V32.5194H83.6859V34.4266H85.6622V35.4631H83.6859ZM90.4889 42.1244C89.7795 42.1244 89.1346 41.9631 88.5541 41.6407C87.9829 41.3182 87.5314 40.8621 87.1998 40.2725C86.8773 39.6736 86.7161 38.9826 86.7161 38.1995C86.7161 37.4256 86.8819 36.7438 87.2136 36.1541C87.5545 35.5552 88.0151 35.0992 88.5956 34.7859C89.176 34.4635 89.8256 34.3022 90.5442 34.3022C91.2628 34.3022 91.9124 34.4635 92.4928 34.7859C93.0733 35.0992 93.5293 35.5506 93.861 36.1403C94.2019 36.73 94.3724 37.4163 94.3724 38.1995C94.3724 38.9826 94.1973 39.6736 93.8472 40.2725C93.5063 40.8621 93.041 41.3182 92.4514 41.6407C91.8617 41.9631 91.2076 42.1244 90.4889 42.1244ZM90.4889 41.0188C90.9404 41.0188 91.3642 40.9128 91.7604 40.7009C92.1565 40.489 92.4744 40.1711 92.714 39.7473C92.9627 39.3235 93.0871 38.8076 93.0871 38.1995C93.0871 37.5914 92.9673 37.0755 92.7278 36.6516C92.4882 36.2278 92.175 35.9146 91.788 35.7119C91.401 35.5 90.9818 35.394 90.5304 35.394C90.0697 35.394 89.6459 35.5 89.2589 35.7119C88.8812 35.9146 88.5772 36.2278 88.3468 36.6516C88.1165 37.0755 88.0013 37.5914 88.0013 38.1995C88.0013 38.8168 88.1119 39.3373 88.333 39.7612C88.5633 40.185 88.8674 40.5028 89.2451 40.7147C89.6229 40.9174 90.0375 41.0188 90.4889 41.0188ZM105.133 34.2884C105.723 34.2884 106.248 34.4128 106.709 34.6616C107.169 34.9011 107.533 35.265 107.801 35.7533C108.068 36.2416 108.201 36.8359 108.201 37.5361V42H106.958V37.7158C106.958 36.9603 106.769 36.3845 106.391 35.9883C106.022 35.5829 105.52 35.3802 104.885 35.3802C104.23 35.3802 103.71 35.5921 103.323 36.0159C102.936 36.4305 102.742 37.034 102.742 37.8263V42H101.499V37.7158C101.499 36.9603 101.31 36.3845 100.932 35.9883C100.563 35.5829 100.061 35.3802 99.4256 35.3802C98.7715 35.3802 98.2509 35.5921 97.864 36.0159C97.477 36.4305 97.2835 37.034 97.2835 37.8263V42H96.0259V34.4266H97.2835V35.5184C97.5323 35.1222 97.864 34.8182 98.2786 34.6063C98.7024 34.3944 99.1677 34.2884 99.6744 34.2884C100.31 34.2884 100.872 34.4312 101.36 34.7168C101.849 35.0024 102.213 35.4217 102.452 35.9745C102.664 35.4401 103.014 35.0255 103.503 34.7307C103.991 34.4358 104.534 34.2884 105.133 34.2884ZM117.174 37.9231C117.174 38.1626 117.161 38.416 117.133 38.6832H111.08C111.126 39.4295 111.379 40.0145 111.84 40.4383C112.31 40.8529 112.876 41.0602 113.54 41.0602C114.083 41.0602 114.535 40.9359 114.894 40.6871C115.263 40.4291 115.521 40.0882 115.668 39.6644H117.022C116.82 40.3923 116.414 40.9865 115.806 41.4472C115.198 41.8987 114.443 42.1244 113.54 42.1244C112.821 42.1244 112.176 41.9631 111.605 41.6407C111.043 41.3182 110.601 40.8621 110.278 40.2725C109.956 39.6736 109.794 38.9826 109.794 38.1995C109.794 37.4163 109.951 36.73 110.264 36.1403C110.578 35.5506 111.015 35.0992 111.577 34.7859C112.148 34.4635 112.803 34.3022 113.54 34.3022C114.258 34.3022 114.894 34.4589 115.447 34.7721C116 35.0854 116.423 35.5184 116.718 36.0712C117.022 36.6148 117.174 37.2321 117.174 37.9231ZM115.875 37.6605C115.875 37.1814 115.769 36.7714 115.557 36.4305C115.346 36.0804 115.055 35.8178 114.687 35.6428C114.327 35.4585 113.927 35.3664 113.484 35.3664C112.849 35.3664 112.305 35.5691 111.854 35.9745C111.411 36.3798 111.158 36.9419 111.094 37.6605H115.875ZM120.092 35.6566C120.313 35.2236 120.626 34.8873 121.032 34.6477C121.446 34.4082 121.949 34.2884 122.538 34.2884V35.5875H122.206C120.797 35.5875 120.092 36.3522 120.092 37.8816V42H118.834V34.4266H120.092V35.6566Z" fill="#FB8C00"/>
<rect x="163.432" y="0.431877" width="163.136" height="53.1362" rx="20.2982" stroke="#FB8C00" stroke-width="0.863753"/>
<path d="M198.428 30.5079C197.793 30.5079 197.221 30.3973 196.715 30.1762C196.217 29.9459 195.826 29.6326 195.54 29.2364C195.254 28.831 195.107 28.3658 195.098 27.8406H196.438C196.484 28.2921 196.669 28.6744 196.991 28.9877C197.323 29.2917 197.802 29.4437 198.428 29.4437C199.027 29.4437 199.497 29.2963 199.838 29.0015C200.188 28.6974 200.363 28.3105 200.363 27.8406C200.363 27.4721 200.262 27.1726 200.059 26.9423C199.857 26.712 199.603 26.5369 199.299 26.4171C198.995 26.2974 198.585 26.1684 198.069 26.0302C197.433 25.8643 196.922 25.6985 196.535 25.5327C196.157 25.3668 195.83 25.1088 195.554 24.7587C195.287 24.3994 195.153 23.9203 195.153 23.3214C195.153 22.7963 195.287 22.331 195.554 21.9256C195.821 21.5202 196.194 21.207 196.673 20.9859C197.162 20.7647 197.719 20.6542 198.346 20.6542C199.248 20.6542 199.985 20.8799 200.557 21.3314C201.137 21.7828 201.464 22.3817 201.538 23.128H200.156C200.11 22.7594 199.916 22.437 199.575 22.1606C199.235 21.8749 198.783 21.7321 198.221 21.7321C197.696 21.7321 197.268 21.8703 196.936 22.1467C196.604 22.4139 196.438 22.7917 196.438 23.28C196.438 23.6301 196.535 23.9157 196.729 24.1368C196.931 24.358 197.175 24.5284 197.461 24.6482C197.756 24.7587 198.166 24.8877 198.691 25.0351C199.327 25.2102 199.838 25.3852 200.225 25.5603C200.612 25.7261 200.944 25.9887 201.22 26.348C201.496 26.6981 201.635 27.1772 201.635 27.7853C201.635 28.2552 201.51 28.6974 201.262 29.112C201.013 29.5266 200.644 29.8629 200.156 30.1209C199.668 30.3789 199.092 30.5079 198.428 30.5079ZM210.395 26.3342C210.395 26.5738 210.382 26.8271 210.354 27.0943H204.301C204.347 27.8406 204.6 28.4257 205.061 28.8495C205.531 29.2641 206.097 29.4714 206.761 29.4714C207.304 29.4714 207.756 29.347 208.115 29.0982C208.484 28.8403 208.742 28.4994 208.889 28.0755H210.243C210.041 28.8034 209.635 29.3977 209.027 29.8583C208.419 30.3098 207.664 30.5355 206.761 30.5355C206.042 30.5355 205.397 30.3743 204.826 30.0518C204.264 29.7293 203.822 29.2733 203.499 28.6836C203.177 28.0848 203.015 27.3938 203.015 26.6106C203.015 25.8275 203.172 25.1411 203.485 24.5514C203.799 23.9618 204.236 23.5103 204.798 23.1971C205.37 22.8746 206.024 22.7134 206.761 22.7134C207.479 22.7134 208.115 22.87 208.668 23.1832C209.221 23.4965 209.645 23.9295 209.939 24.4823C210.243 25.0259 210.395 25.6432 210.395 26.3342ZM209.096 26.0716C209.096 25.5925 208.99 25.1825 208.778 24.8417C208.567 24.4915 208.276 24.229 207.908 24.0539C207.548 23.8696 207.148 23.7775 206.705 23.7775C206.07 23.7775 205.526 23.9802 205.075 24.3856C204.632 24.791 204.379 25.353 204.315 26.0716H209.096ZM215.745 22.6995C216.667 22.6995 217.413 22.9806 217.984 23.5426C218.555 24.0954 218.841 24.8969 218.841 25.9473V30.4111H217.597V26.1269C217.597 25.3714 217.408 24.7956 217.031 24.3994C216.653 23.994 216.137 23.7913 215.483 23.7913C214.819 23.7913 214.29 23.9986 213.893 24.4132C213.507 24.8278 213.313 25.4313 213.313 26.2237V30.4111H212.055V22.8377H213.313V23.9157C213.562 23.5287 213.898 23.2293 214.322 23.0174C214.755 22.8055 215.229 22.6995 215.745 22.6995ZM220.426 26.5968C220.426 25.8229 220.582 25.1457 220.895 24.5653C221.209 23.9756 221.637 23.5195 222.181 23.1971C222.733 22.8746 223.351 22.7134 224.033 22.7134C224.622 22.7134 225.17 22.8516 225.677 23.128C226.184 23.3952 226.571 23.7499 226.838 24.1921V20.1843H228.109V30.4111H226.838V28.9877C226.589 29.4391 226.221 29.8123 225.732 30.1071C225.244 30.3927 224.673 30.5355 224.019 30.5355C223.346 30.5355 222.733 30.3697 222.181 30.038C221.637 29.7063 221.209 29.241 220.895 28.6422C220.582 28.0433 220.426 27.3615 220.426 26.5968ZM226.838 26.6106C226.838 26.0394 226.723 25.5419 226.493 25.1181C226.262 24.6942 225.949 24.3718 225.553 24.1506C225.166 23.9203 224.737 23.8051 224.267 23.8051C223.798 23.8051 223.369 23.9157 222.982 24.1368C222.595 24.358 222.287 24.6804 222.056 25.1042C221.826 25.528 221.711 26.0256 221.711 26.5968C221.711 27.1772 221.826 27.684 222.056 28.117C222.287 28.5408 222.595 28.8679 222.982 29.0982C223.369 29.3193 223.798 29.4299 224.267 29.4299C224.737 29.4299 225.166 29.3193 225.553 29.0982C225.949 28.8679 226.262 28.5408 226.493 28.117C226.723 27.684 226.838 27.1818 226.838 26.6106ZM233.449 26.5968C233.449 25.8229 233.606 25.1457 233.919 24.5653C234.232 23.9756 234.661 23.5195 235.204 23.1971C235.757 22.8746 236.37 22.7134 237.043 22.7134C237.706 22.7134 238.282 22.8562 238.77 23.1418C239.258 23.4274 239.622 23.7867 239.862 24.2197V22.8377H241.133V30.4111H239.862V29.0015C239.613 29.4437 239.24 29.8123 238.742 30.1071C238.254 30.3927 237.683 30.5355 237.029 30.5355C236.356 30.5355 235.748 30.3697 235.204 30.038C234.661 29.7063 234.232 29.241 233.919 28.6422C233.606 28.0433 233.449 27.3615 233.449 26.5968ZM239.862 26.6106C239.862 26.0394 239.747 25.5419 239.516 25.1181C239.286 24.6942 238.973 24.3718 238.577 24.1506C238.19 23.9203 237.761 23.8051 237.291 23.8051C236.821 23.8051 236.393 23.9157 236.006 24.1368C235.619 24.358 235.31 24.6804 235.08 25.1042C234.85 25.528 234.735 26.0256 234.735 26.5968C234.735 27.1772 234.85 27.684 235.08 28.117C235.31 28.5408 235.619 28.8679 236.006 29.0982C236.393 29.3193 236.821 29.4299 237.291 29.4299C237.761 29.4299 238.19 29.3193 238.577 29.0982C238.973 28.8679 239.286 28.5408 239.516 28.117C239.747 27.684 239.862 27.1818 239.862 26.6106ZM244.793 23.8742V28.3381C244.793 28.7067 244.871 28.9692 245.027 29.1259C245.184 29.2733 245.456 29.347 245.843 29.347H246.769V30.4111H245.636C244.935 30.4111 244.41 30.2499 244.06 29.9274C243.71 29.605 243.535 29.0752 243.535 28.3381V23.8742H242.554V22.8377H243.535V20.9306H244.793V22.8377H246.769V23.8742H244.793ZM249.827 23.8742V28.3381C249.827 28.7067 249.905 28.9692 250.062 29.1259C250.218 29.2733 250.49 29.347 250.877 29.347H251.803V30.4111H250.67C249.969 30.4111 249.444 30.2499 249.094 29.9274C248.744 29.605 248.569 29.0752 248.569 28.3381V23.8742H247.588V22.8377H248.569V20.9306H249.827V22.8377H251.803V23.8742H249.827ZM252.857 26.5968C252.857 25.8229 253.013 25.1457 253.327 24.5653C253.64 23.9756 254.068 23.5195 254.612 23.1971C255.165 22.8746 255.777 22.7134 256.45 22.7134C257.113 22.7134 257.689 22.8562 258.177 23.1418C258.666 23.4274 259.03 23.7867 259.269 24.2197V22.8377H260.541V30.4111H259.269V29.0015C259.021 29.4437 258.647 29.8123 258.15 30.1071C257.662 30.3927 257.09 30.5355 256.436 30.5355C255.764 30.5355 255.155 30.3697 254.612 30.038C254.068 29.7063 253.64 29.241 253.327 28.6422C253.013 28.0433 252.857 27.3615 252.857 26.5968ZM259.269 26.6106C259.269 26.0394 259.154 25.5419 258.924 25.1181C258.693 24.6942 258.38 24.3718 257.984 24.1506C257.597 23.9203 257.169 23.8051 256.699 23.8051C256.229 23.8051 255.8 23.9157 255.413 24.1368C255.027 24.358 254.718 24.6804 254.488 25.1042C254.257 25.528 254.142 26.0256 254.142 26.5968C254.142 27.1772 254.257 27.684 254.488 28.117C254.718 28.5408 255.027 28.8679 255.413 29.0982C255.8 29.3193 256.229 29.4299 256.699 29.4299C257.169 29.4299 257.597 29.3193 257.984 29.0982C258.38 28.8679 258.693 28.5408 258.924 28.117C259.154 27.684 259.269 27.1818 259.269 26.6106ZM262.196 26.6106C262.196 25.8275 262.353 25.1457 262.666 24.5653C262.979 23.9756 263.412 23.5195 263.965 23.1971C264.527 22.8746 265.167 22.7134 265.886 22.7134C266.817 22.7134 267.581 22.9391 268.18 23.3905C268.788 23.842 269.189 24.4685 269.383 25.2701H268.028C267.899 24.8094 267.646 24.4455 267.268 24.1783C266.9 23.9111 266.439 23.7775 265.886 23.7775C265.167 23.7775 264.587 24.0263 264.145 24.5238C263.702 25.0121 263.481 25.7077 263.481 26.6106C263.481 27.5227 263.702 28.2276 264.145 28.7251C264.587 29.2226 265.167 29.4714 265.886 29.4714C266.439 29.4714 266.9 29.3424 267.268 29.0844C267.637 28.8264 267.89 28.4579 268.028 27.9788H269.383C269.18 28.7527 268.774 29.3746 268.166 29.8445C267.558 30.3052 266.798 30.5355 265.886 30.5355C265.167 30.5355 264.527 30.3743 263.965 30.0518C263.412 29.7293 262.979 29.2733 262.666 28.6836C262.353 28.094 262.196 27.403 262.196 26.6106ZM274.82 22.6995C275.391 22.6995 275.907 22.8239 276.367 23.0727C276.828 23.3122 277.187 23.6762 277.445 24.1645C277.713 24.6528 277.846 25.247 277.846 25.9473V30.4111H276.602V26.1269C276.602 25.3714 276.414 24.7956 276.036 24.3994C275.658 23.994 275.142 23.7913 274.488 23.7913C273.825 23.7913 273.295 23.9986 272.899 24.4132C272.512 24.8278 272.318 25.4313 272.318 26.2237V30.4111H271.061V20.1843H272.318V23.9157C272.567 23.5287 272.908 23.2293 273.341 23.0174C273.783 22.8055 274.276 22.6995 274.82 22.6995ZM289.008 22.6995C289.598 22.6995 290.123 22.8239 290.583 23.0727C291.044 23.3122 291.408 23.6762 291.675 24.1645C291.942 24.6528 292.076 25.247 292.076 25.9473V30.4111H290.832V26.1269C290.832 25.3714 290.643 24.7956 290.266 24.3994C289.897 23.994 289.395 23.7913 288.759 23.7913C288.105 23.7913 287.585 24.0032 287.198 24.4271C286.811 24.8417 286.617 25.4451 286.617 26.2375V30.4111H285.373V26.1269C285.373 25.3714 285.184 24.7956 284.807 24.3994C284.438 23.994 283.936 23.7913 283.3 23.7913C282.646 23.7913 282.126 24.0032 281.739 24.4271C281.352 24.8417 281.158 25.4451 281.158 26.2375V30.4111H279.901V22.8377H281.158V23.9295C281.407 23.5334 281.739 23.2293 282.153 23.0174C282.577 22.8055 283.042 22.6995 283.549 22.6995C284.185 22.6995 284.747 22.8424 285.235 23.128C285.723 23.4136 286.087 23.8328 286.327 24.3856C286.539 23.8512 286.889 23.4366 287.377 23.1418C287.866 22.847 288.409 22.6995 289.008 22.6995ZM301.049 26.3342C301.049 26.5738 301.035 26.8271 301.008 27.0943H294.954C295 27.8406 295.254 28.4257 295.714 28.8495C296.184 29.2641 296.751 29.4714 297.414 29.4714C297.958 29.4714 298.409 29.347 298.769 29.0982C299.137 28.8403 299.395 28.4994 299.543 28.0755H300.897C300.694 28.8034 300.289 29.3977 299.681 29.8583C299.073 30.3098 298.317 30.5355 297.414 30.5355C296.696 30.5355 296.051 30.3743 295.48 30.0518C294.918 29.7293 294.475 29.2733 294.153 28.6836C293.83 28.0848 293.669 27.3938 293.669 26.6106C293.669 25.8275 293.826 25.1411 294.139 24.5514C294.452 23.9618 294.89 23.5103 295.452 23.1971C296.023 22.8746 296.677 22.7134 297.414 22.7134C298.133 22.7134 298.769 22.87 299.321 23.1832C299.874 23.4965 300.298 23.9295 300.593 24.4823C300.897 25.0259 301.049 25.6432 301.049 26.3342ZM299.75 26.0716C299.75 25.5925 299.644 25.1825 299.432 24.8417C299.22 24.4915 298.93 24.229 298.561 24.0539C298.202 23.8696 297.801 23.7775 297.359 23.7775C296.723 23.7775 296.18 23.9802 295.728 24.3856C295.286 24.791 295.033 25.353 294.968 26.0716H299.75ZM306.399 22.6995C307.32 22.6995 308.067 22.9806 308.638 23.5426C309.209 24.0954 309.495 24.8969 309.495 25.9473V30.4111H308.251V26.1269C308.251 25.3714 308.062 24.7956 307.684 24.3994C307.306 23.994 306.791 23.7913 306.136 23.7913C305.473 23.7913 304.943 23.9986 304.547 24.4132C304.16 24.8278 303.967 25.4313 303.967 26.2237V30.4111H302.709V22.8377H303.967V23.9157C304.215 23.5287 304.552 23.2293 304.976 23.0174C305.409 22.8055 305.883 22.6995 306.399 22.6995ZM313.083 23.8742V28.3381C313.083 28.7067 313.161 28.9692 313.318 29.1259C313.475 29.2733 313.746 29.347 314.133 29.347H315.059V30.4111H313.926C313.226 30.4111 312.701 30.2499 312.351 29.9274C312 29.605 311.825 29.0752 311.825 28.3381V23.8742H310.844V22.8377H311.825V20.9306H313.083V22.8377H315.059V23.8742H313.083Z" fill="#FB8C00"/>
</svg>
