<svg width="336" height="133" viewBox="0 0 336 133" fill="none" xmlns="http://www.w3.org/2000/svg">
<path d="M188.043 29.4999C188.047 30.9586 187.472 32.3592 186.444 33.3938C185.415 34.4283 184.018 35.0119 182.56 35.0163C181.101 35.0206 179.7 34.4454 178.666 33.417C177.631 32.3886 177.048 30.9914 177.043 29.5327L177.012 19.0328C177.009 17.9719 177.427 16.9533 178.175 16.2009C178.923 15.4485 179.939 15.024 181 15.0209C182.061 15.0177 183.079 15.4361 183.832 16.184C184.584 16.9319 185.009 17.948 185.012 19.0089L185.037 27.5089C185.039 28.1719 184.778 28.8086 184.31 29.2788C183.843 29.749 183.208 30.0143 182.545 30.0163C181.882 30.0183 181.245 29.7568 180.775 29.2894C180.304 28.8219 180.039 28.1868 180.037 27.5238L180.015 20.0238L181.515 20.0193L181.537 27.5193C181.538 27.7845 181.644 28.0386 181.832 28.2255C182.02 28.4125 182.275 28.5171 182.54 28.5163C182.805 28.5155 183.059 28.4094 183.246 28.2213C183.433 28.0332 183.538 27.7786 183.537 27.5133L183.512 19.0134C183.511 18.6851 183.445 18.3602 183.319 18.0572C183.192 17.7543 183.007 17.4793 182.774 17.2478C182.541 17.0163 182.265 16.833 181.962 16.7083C181.658 16.5836 181.333 16.5199 181.004 16.5209C180.676 16.5218 180.351 16.5875 180.048 16.714C179.745 16.8406 179.47 17.0255 179.239 17.2584C179.007 17.4912 178.824 17.7673 178.699 18.071C178.574 18.3747 178.511 18.7 178.512 19.0283L178.543 29.5283C178.546 30.5891 178.971 31.6053 179.723 32.3532C180.476 33.1011 181.494 33.5195 182.555 33.5163C183.616 33.5131 184.632 33.0887 185.38 32.3363C186.128 31.5839 186.546 30.5652 186.543 29.5044L186.515 20.0044L188.015 19.9999L188.043 29.4999Z" fill="#FB8C00"/>
<rect y="74.1465" width="336" height="58.7352" fill="#FB8C00"/>
<path d="M124.075 108.246C122.905 108.246 121.938 107.974 121.173 107.431C120.418 106.878 120.008 106.072 119.943 105.012H123.205C123.251 105.574 123.5 105.855 123.951 105.855C124.117 105.855 124.255 105.818 124.366 105.745C124.485 105.662 124.545 105.537 124.545 105.372C124.545 105.141 124.421 104.957 124.172 104.819C123.923 104.671 123.536 104.506 123.011 104.321C122.385 104.1 121.864 103.884 121.45 103.672C121.044 103.46 120.694 103.151 120.399 102.746C120.104 102.34 119.962 101.82 119.971 101.184C119.971 100.548 120.132 100.009 120.455 99.5672C120.786 99.1157 121.233 98.7748 121.795 98.5445C122.366 98.3141 123.007 98.199 123.716 98.199C124.914 98.199 125.863 98.4754 126.563 99.0282C127.272 99.581 127.646 100.36 127.682 101.364H124.379C124.37 101.087 124.301 100.889 124.172 100.77C124.043 100.65 123.887 100.59 123.702 100.59C123.573 100.59 123.467 100.636 123.384 100.728C123.301 100.811 123.26 100.931 123.26 101.087C123.26 101.308 123.38 101.493 123.619 101.64C123.868 101.778 124.26 101.949 124.794 102.152C125.411 102.382 125.918 102.603 126.314 102.815C126.72 103.027 127.07 103.322 127.365 103.699C127.659 104.077 127.807 104.552 127.807 105.123C127.807 105.722 127.659 106.261 127.365 106.74C127.07 107.21 126.641 107.578 126.079 107.845C125.517 108.113 124.849 108.246 124.075 108.246ZM136.431 104.183C136.431 104.395 136.417 104.598 136.389 104.791H131.455C131.501 105.464 131.782 105.8 132.298 105.8C132.63 105.8 132.87 105.648 133.017 105.344H136.265C136.154 105.897 135.919 106.394 135.56 106.837C135.21 107.27 134.763 107.615 134.219 107.873C133.685 108.122 133.095 108.246 132.45 108.246C131.676 108.246 130.985 108.085 130.377 107.762C129.778 107.44 129.309 106.979 128.968 106.38C128.636 105.772 128.47 105.063 128.47 104.252C128.47 103.441 128.636 102.737 128.968 102.138C129.309 101.53 129.778 101.064 130.377 100.742C130.985 100.419 131.676 100.258 132.45 100.258C133.224 100.258 133.911 100.419 134.51 100.742C135.118 101.055 135.587 101.507 135.919 102.096C136.26 102.686 136.431 103.381 136.431 104.183ZM133.321 103.451C133.321 103.193 133.238 102.999 133.072 102.87C132.906 102.732 132.699 102.663 132.45 102.663C131.907 102.663 131.589 102.925 131.497 103.451H133.321ZM142.86 100.3C143.753 100.3 144.449 100.599 144.947 101.198C145.453 101.797 145.707 102.608 145.707 103.63V108.149H142.652V104.017C142.652 103.649 142.551 103.358 142.348 103.147C142.155 102.925 141.892 102.815 141.561 102.815C141.22 102.815 140.953 102.925 140.759 103.147C140.566 103.358 140.469 103.649 140.469 104.017V108.149H137.401V100.355H140.469V101.543C140.708 101.175 141.026 100.875 141.422 100.645C141.828 100.415 142.307 100.3 142.86 100.3ZM146.622 104.252C146.622 103.432 146.761 102.723 147.037 102.124C147.323 101.516 147.71 101.055 148.198 100.742C148.686 100.419 149.234 100.258 149.843 100.258C150.349 100.258 150.782 100.364 151.142 100.576C151.51 100.779 151.791 101.06 151.985 101.419V97.9226H155.053V108.149H151.985V107.085C151.791 107.445 151.51 107.73 151.142 107.942C150.782 108.145 150.349 108.246 149.843 108.246C149.234 108.246 148.686 108.09 148.198 107.776C147.71 107.454 147.323 106.993 147.037 106.394C146.761 105.786 146.622 105.072 146.622 104.252ZM151.998 104.252C151.998 103.838 151.893 103.515 151.681 103.285C151.469 103.054 151.197 102.939 150.865 102.939C150.534 102.939 150.262 103.054 150.05 103.285C149.838 103.515 149.732 103.838 149.732 104.252C149.732 104.667 149.838 104.989 150.05 105.22C150.262 105.45 150.534 105.565 150.865 105.565C151.197 105.565 151.469 105.45 151.681 105.22C151.893 104.989 151.998 104.667 151.998 104.252ZM158.364 104.252C158.364 103.432 158.502 102.723 158.779 102.124C159.064 101.516 159.451 101.055 159.94 100.742C160.428 100.419 160.976 100.258 161.584 100.258C162.091 100.258 162.529 100.364 162.897 100.576C163.266 100.779 163.547 101.06 163.74 101.419V100.355H166.794V108.149H163.74V107.085C163.547 107.445 163.266 107.73 162.897 107.942C162.529 108.145 162.091 108.246 161.584 108.246C160.976 108.246 160.428 108.09 159.94 107.776C159.451 107.454 159.064 106.993 158.779 106.394C158.502 105.786 158.364 105.072 158.364 104.252ZM163.74 104.252C163.74 103.838 163.634 103.515 163.422 103.285C163.21 103.054 162.939 102.939 162.607 102.939C162.275 102.939 162.003 103.054 161.791 103.285C161.58 103.515 161.474 103.838 161.474 104.252C161.474 104.667 161.58 104.989 161.791 105.22C162.003 105.45 162.275 105.565 162.607 105.565C162.939 105.565 163.21 105.45 163.422 105.22C163.634 104.989 163.74 104.667 163.74 104.252ZM173.631 100.3C174.525 100.3 175.22 100.599 175.718 101.198C176.225 101.797 176.478 102.608 176.478 103.63V108.149H173.424V104.017C173.424 103.649 173.322 103.358 173.12 103.147C172.926 102.925 172.664 102.815 172.332 102.815C171.991 102.815 171.724 102.925 171.53 103.147C171.337 103.358 171.24 103.649 171.24 104.017V108.149H168.172V100.355H171.24V101.543C171.48 101.175 171.798 100.875 172.194 100.645C172.599 100.415 173.078 100.3 173.631 100.3ZM183.86 108.246C183.077 108.246 182.372 108.085 181.746 107.762C181.119 107.44 180.626 106.979 180.267 106.38C179.917 105.772 179.742 105.063 179.742 104.252C179.742 103.441 179.917 102.737 180.267 102.138C180.626 101.53 181.119 101.064 181.746 100.742C182.372 100.419 183.077 100.258 183.86 100.258C184.644 100.258 185.348 100.419 185.975 100.742C186.601 101.064 187.09 101.53 187.44 102.138C187.799 102.737 187.979 103.441 187.979 104.252C187.979 105.063 187.799 105.772 187.44 106.38C187.09 106.979 186.601 107.44 185.975 107.762C185.348 108.085 184.644 108.246 183.86 108.246ZM183.86 105.593C184.146 105.593 184.386 105.482 184.579 105.261C184.773 105.031 184.869 104.694 184.869 104.252C184.869 103.81 184.773 103.478 184.579 103.257C184.386 103.027 184.146 102.912 183.86 102.912C183.575 102.912 183.335 103.027 183.142 103.257C182.948 103.478 182.852 103.81 182.852 104.252C182.852 104.694 182.944 105.031 183.128 105.261C183.321 105.482 183.566 105.593 183.86 105.593ZM193.434 99.8021C193.268 99.7837 193.153 99.7745 193.089 99.7745C192.858 99.7745 192.683 99.8205 192.563 99.9127C192.444 99.9956 192.361 100.143 192.315 100.355H193.434V102.912H192.287V108.149H189.219V102.912H188.39V100.355H189.219C189.237 99.3414 189.555 98.5583 190.173 98.0055C190.799 97.4435 191.674 97.1625 192.798 97.1625C192.927 97.1625 193.139 97.1717 193.434 97.1901V99.8021ZM198.752 99.8021C198.586 99.7837 198.471 99.7745 198.406 99.7745C198.176 99.7745 198.001 99.8205 197.881 99.9127C197.761 99.9956 197.678 100.143 197.632 100.355H198.752V102.912H197.605V108.149H194.536V102.912H193.707V100.355H194.536C194.555 99.3414 194.873 98.5583 195.49 98.0055C196.117 97.4435 196.992 97.1625 198.116 97.1625C198.245 97.1625 198.457 97.1717 198.752 97.1901V99.8021ZM207.123 104.183C207.123 104.395 207.109 104.598 207.082 104.791H202.148C202.194 105.464 202.475 105.8 202.991 105.8C203.323 105.8 203.562 105.648 203.71 105.344H206.957C206.847 105.897 206.612 106.394 206.253 106.837C205.903 107.27 205.456 107.615 204.912 107.873C204.378 108.122 203.788 108.246 203.143 108.246C202.369 108.246 201.678 108.085 201.07 107.762C200.471 107.44 200.001 106.979 199.66 106.38C199.329 105.772 199.163 105.063 199.163 104.252C199.163 103.441 199.329 102.737 199.66 102.138C200.001 101.53 200.471 101.064 201.07 100.742C201.678 100.419 202.369 100.258 203.143 100.258C203.917 100.258 204.603 100.419 205.202 100.742C205.81 101.055 206.28 101.507 206.612 102.096C206.953 102.686 207.123 103.381 207.123 104.183ZM204.014 103.451C204.014 103.193 203.931 102.999 203.765 102.87C203.599 102.732 203.392 102.663 203.143 102.663C202.6 102.663 202.282 102.925 202.19 103.451H204.014ZM211.162 101.792C211.475 101.341 211.857 100.981 212.309 100.714C212.76 100.438 213.23 100.3 213.718 100.3V103.575H212.848C212.267 103.575 211.839 103.676 211.562 103.879C211.295 104.082 211.162 104.441 211.162 104.957V108.149H208.094V100.355H211.162V101.792Z" fill="white"/>
<rect x="8.43188" y="0.431877" width="146.136" height="53.1362" rx="20.2982" stroke="#FB8C00" stroke-width="0.863753"/>
<path d="M32.4391 30.0967C31.8033 30.0967 31.2321 29.9862 30.7254 29.7651C30.2279 29.5347 29.8363 29.2215 29.5507 28.8253C29.2651 28.4199 29.1176 27.9546 29.1084 27.4295H30.449C30.495 27.8809 30.6793 28.2633 31.0018 28.5765C31.3335 28.8806 31.8126 29.0326 32.4391 29.0326C33.0379 29.0326 33.5078 28.8852 33.8487 28.5904C34.1988 28.2863 34.3739 27.8994 34.3739 27.4295C34.3739 27.0609 34.2725 26.7615 34.0698 26.5312C33.8671 26.3008 33.6138 26.1258 33.3097 26.006C33.0057 25.8862 32.5957 25.7572 32.0797 25.619C31.444 25.4532 30.9327 25.2874 30.5457 25.1215C30.168 24.9557 29.8409 24.6977 29.5645 24.3476C29.2973 23.9883 29.1637 23.5092 29.1637 22.9103C29.1637 22.3852 29.2973 21.9199 29.5645 21.5145C29.8317 21.1091 30.2048 20.7958 30.6839 20.5747C31.1722 20.3536 31.7296 20.243 32.3561 20.243C33.2591 20.243 33.9961 20.4688 34.5674 20.9202C35.1478 21.3717 35.4749 21.9705 35.5486 22.7168H34.1666C34.1205 22.3483 33.927 22.0258 33.5861 21.7494C33.2452 21.4638 32.7938 21.321 32.2318 21.321C31.7066 21.321 31.2782 21.4592 30.9465 21.7356C30.6148 22.0028 30.449 22.3805 30.449 22.8689C30.449 23.219 30.5457 23.5046 30.7392 23.7257C30.9419 23.9468 31.1861 24.1173 31.4717 24.237C31.7665 24.3476 32.1765 24.4766 32.7016 24.624C33.3374 24.7991 33.8487 24.9741 34.2357 25.1492C34.6226 25.315 34.9543 25.5776 35.2307 25.9369C35.5071 26.287 35.6453 26.7661 35.6453 27.3742C35.6453 27.8441 35.5209 28.2863 35.2722 28.7009C35.0234 29.1155 34.6549 29.4518 34.1666 29.7098C33.6783 29.9678 33.1024 30.0967 32.4391 30.0967ZM44.406 25.9231C44.406 26.1626 44.3922 26.416 44.3646 26.6832H38.3114C38.3575 27.4295 38.6108 28.0145 39.0715 28.4383C39.5414 28.8529 40.108 29.0602 40.7714 29.0602C41.315 29.0602 41.7664 28.9359 42.1257 28.6871C42.4943 28.4291 42.7522 28.0882 42.8997 27.6644H44.254C44.0513 28.3923 43.6459 28.9865 43.0379 29.4472C42.4298 29.8987 41.6743 30.1244 40.7714 30.1244C40.0527 30.1244 39.4078 29.9631 38.8366 29.6407C38.2745 29.3182 37.8323 28.8621 37.5098 28.2725C37.1874 27.6736 37.0261 26.9826 37.0261 26.1995C37.0261 25.4163 37.1828 24.73 37.496 24.1403C37.8093 23.5506 38.2469 23.0992 38.8089 22.7859C39.3802 22.4635 40.0343 22.3022 40.7714 22.3022C41.49 22.3022 42.1257 22.4589 42.6785 22.7721C43.2313 23.0854 43.6552 23.5184 43.95 24.0712C44.254 24.6148 44.406 25.2321 44.406 25.9231ZM43.107 25.6605C43.107 25.1814 43.001 24.7714 42.7891 24.4305C42.5772 24.0804 42.287 23.8178 41.9184 23.6428C41.5591 23.4585 41.1583 23.3664 40.7161 23.3664C40.0804 23.3664 39.5368 23.5691 39.0853 23.9745C38.6431 24.3798 38.3897 24.9419 38.3252 25.6605H43.107ZM49.756 22.2884C50.6774 22.2884 51.4236 22.5694 51.9949 23.1314C52.5661 23.6842 52.8517 24.4858 52.8517 25.5361V30H51.6079V25.7158C51.6079 24.9603 51.419 24.3845 51.0413 23.9883C50.6635 23.5829 50.1476 23.3802 49.4934 23.3802C48.8301 23.3802 48.3003 23.5875 47.9041 24.0021C47.5172 24.4167 47.3237 25.0202 47.3237 25.8125V30H46.0661V22.4266H47.3237V23.5046C47.5725 23.1176 47.9087 22.8182 48.3326 22.6063C48.7656 22.3944 49.2401 22.2884 49.756 22.2884ZM54.4362 26.1857C54.4362 25.4117 54.5928 24.7346 54.906 24.1541C55.2193 23.5645 55.6477 23.1084 56.1913 22.7859C56.7441 22.4635 57.3614 22.3022 58.0432 22.3022C58.6329 22.3022 59.181 22.4404 59.6878 22.7168C60.1945 22.984 60.5815 23.3387 60.8487 23.781V19.7732H62.1201V30H60.8487V28.5765C60.5999 29.028 60.2314 29.4011 59.7431 29.696C59.2548 29.9816 58.6835 30.1244 58.0294 30.1244C57.3568 30.1244 56.7441 29.9585 56.1913 29.6269C55.6477 29.2952 55.2193 28.8299 54.906 28.231C54.5928 27.6322 54.4362 26.9504 54.4362 26.1857ZM60.8487 26.1995C60.8487 25.6283 60.7335 25.1307 60.5032 24.7069C60.2728 24.2831 59.9596 23.9606 59.5634 23.7395C59.1764 23.5092 58.748 23.394 58.2781 23.394C57.8083 23.394 57.3798 23.5046 56.9929 23.7257C56.6059 23.9468 56.2973 24.2693 56.0669 24.6931C55.8366 25.1169 55.7214 25.6144 55.7214 26.1857C55.7214 26.7661 55.8366 27.2728 56.0669 27.7059C56.2973 28.1297 56.6059 28.4568 56.9929 28.6871C57.3798 28.9082 57.8083 29.0188 58.2781 29.0188C58.748 29.0188 59.1764 28.9082 59.5634 28.6871C59.9596 28.4568 60.2728 28.1297 60.5032 27.7059C60.7335 27.2728 60.8487 26.7707 60.8487 26.1995ZM77.0372 22.2884C77.6269 22.2884 78.1521 22.4128 78.6127 22.6616C79.0734 22.9011 79.4373 23.265 79.7045 23.7533C79.9717 24.2416 80.1053 24.8359 80.1053 25.5361V30H78.8615V25.7158C78.8615 24.9603 78.6726 24.3845 78.2949 23.9883C77.9263 23.5829 77.4242 23.3802 76.7885 23.3802C76.1343 23.3802 75.6138 23.5921 75.2268 24.0159C74.8399 24.4305 74.6464 25.034 74.6464 25.8263V30H73.4026V25.7158C73.4026 24.9603 73.2137 24.3845 72.8359 23.9883C72.4674 23.5829 71.9653 23.3802 71.3296 23.3802C70.6754 23.3802 70.1549 23.5921 69.7679 24.0159C69.3809 24.4305 69.1874 25.034 69.1874 25.8263V30H67.9298V22.4266H69.1874V23.5184C69.4362 23.1222 69.7679 22.8182 70.1825 22.6063C70.6063 22.3944 71.0716 22.2884 71.5783 22.2884C72.214 22.2884 72.7761 22.4312 73.2644 22.7168C73.7527 23.0024 74.1166 23.4217 74.3561 23.9745C74.5681 23.4401 74.9182 23.0255 75.4065 22.7307C75.8948 22.4358 76.4384 22.2884 77.0372 22.2884ZM89.0783 25.9231C89.0783 26.1626 89.0645 26.416 89.0368 26.6832H82.9836C83.0297 27.4295 83.2831 28.0145 83.7437 28.4383C84.2136 28.8529 84.7802 29.0602 85.4436 29.0602C85.9872 29.0602 86.4387 28.9359 86.798 28.6871C87.1665 28.4291 87.4245 28.0882 87.5719 27.6644H88.9263C88.7236 28.3923 88.3182 28.9865 87.7101 29.4472C87.102 29.8987 86.3465 30.1244 85.4436 30.1244C84.725 30.1244 84.08 29.9631 83.5088 29.6407C82.9468 29.3182 82.5045 28.8621 82.1821 28.2725C81.8596 27.6736 81.6984 26.9826 81.6984 26.1995C81.6984 25.4163 81.855 24.73 82.1683 24.1403C82.4815 23.5506 82.9191 23.0992 83.4812 22.7859C84.0524 22.4635 84.7065 22.3022 85.4436 22.3022C86.1622 22.3022 86.798 22.4589 87.3508 22.7721C87.9036 23.0854 88.3274 23.5184 88.6222 24.0712C88.9263 24.6148 89.0783 25.2321 89.0783 25.9231ZM87.7792 25.6605C87.7792 25.1814 87.6732 24.7714 87.4613 24.4305C87.2494 24.0804 86.9592 23.8178 86.5907 23.6428C86.2313 23.4585 85.8306 23.3664 85.3883 23.3664C84.7526 23.3664 84.209 23.5691 83.7576 23.9745C83.3153 24.3798 83.062 24.9419 82.9975 25.6605H87.7792ZM93.4194 30.1244C92.839 30.1244 92.3184 30.0276 91.8577 29.8342C91.3971 29.6315 91.0331 29.3551 90.7659 29.005C90.4988 28.6456 90.3513 28.2356 90.3237 27.775H91.6228C91.6596 28.1527 91.8347 28.4614 92.148 28.7009C92.4704 28.9405 92.8896 29.0602 93.4056 29.0602C93.8847 29.0602 94.2624 28.9543 94.5388 28.7424C94.8152 28.5305 94.9534 28.2633 94.9534 27.9408C94.9534 27.6091 94.806 27.365 94.5112 27.2083C94.2164 27.0425 93.7603 26.8813 93.143 26.7246C92.581 26.5772 92.1203 26.4298 91.761 26.2824C91.4109 26.1258 91.1068 25.9001 90.8489 25.6052C90.6001 25.3012 90.4757 24.905 90.4757 24.4167C90.4757 24.0297 90.5909 23.675 90.8212 23.3526C91.0516 23.0301 91.3786 22.7767 91.8025 22.5925C92.2263 22.399 92.71 22.3022 93.2536 22.3022C94.092 22.3022 94.7692 22.5141 95.2851 22.938C95.8011 23.3618 96.0775 23.9422 96.1143 24.6793H94.8567C94.829 24.2831 94.6678 23.9652 94.373 23.7257C94.0874 23.4861 93.7004 23.3664 93.2121 23.3664C92.7606 23.3664 92.4013 23.4631 92.1341 23.6566C91.8669 23.8501 91.7334 24.1034 91.7334 24.4167C91.7334 24.6655 91.8117 24.8728 91.9683 25.0386C92.1341 25.1952 92.3368 25.3242 92.5764 25.4256C92.8251 25.5177 93.166 25.6237 93.5991 25.7434C94.1426 25.8908 94.5849 26.0383 94.9258 26.1857C95.2667 26.3239 95.5569 26.5358 95.7964 26.8214C96.0452 27.107 96.1742 27.4801 96.1834 27.9408C96.1834 28.3554 96.0682 28.7286 95.8379 29.0602C95.6076 29.3919 95.2805 29.6545 94.8567 29.848C94.4421 30.0322 93.963 30.1244 93.4194 30.1244ZM100.64 30.1244C100.059 30.1244 99.5388 30.0276 99.0782 29.8342C98.6175 29.6315 98.2536 29.3551 97.9864 29.005C97.7192 28.6456 97.5718 28.2356 97.5441 27.775H98.8432C98.8801 28.1527 99.0551 28.4614 99.3684 28.7009C99.6909 28.9405 100.11 29.0602 100.626 29.0602C101.105 29.0602 101.483 28.9543 101.759 28.7424C102.036 28.5305 102.174 28.2633 102.174 27.9408C102.174 27.6091 102.026 27.365 101.732 27.2083C101.437 27.0425 100.981 26.8813 100.363 26.7246C99.8014 26.5772 99.3407 26.4298 98.9814 26.2824C98.6313 26.1258 98.3273 25.9001 98.0693 25.6052C97.8205 25.3012 97.6962 24.905 97.6962 24.4167C97.6962 24.0297 97.8113 23.675 98.0417 23.3526C98.272 23.0301 98.5991 22.7767 99.0229 22.5925C99.4467 22.399 99.9304 22.3022 100.474 22.3022C101.312 22.3022 101.99 22.5141 102.506 22.938C103.021 23.3618 103.298 23.9422 103.335 24.6793H102.077C102.049 24.2831 101.888 23.9652 101.593 23.7257C101.308 23.4861 100.921 23.3664 100.433 23.3664C99.9811 23.3664 99.6218 23.4631 99.3546 23.6566C99.0874 23.8501 98.9538 24.1034 98.9538 24.4167C98.9538 24.6655 99.0321 24.8728 99.1887 25.0386C99.3546 25.1952 99.5573 25.3242 99.7968 25.4256C100.046 25.5177 100.386 25.6237 100.819 25.7434C101.363 25.8908 101.805 26.0383 102.146 26.1857C102.487 26.3239 102.777 26.5358 103.017 26.8214C103.266 27.107 103.395 27.4801 103.404 27.9408C103.404 28.3554 103.289 28.7286 103.058 29.0602C102.828 29.3919 102.501 29.6545 102.077 29.848C101.663 30.0322 101.183 30.1244 100.64 30.1244ZM104.709 26.1857C104.709 25.4117 104.866 24.7346 105.179 24.1541C105.492 23.5645 105.921 23.1084 106.464 22.7859C107.017 22.4635 107.63 22.3022 108.303 22.3022C108.966 22.3022 109.542 22.445 110.03 22.7307C110.518 23.0163 110.882 23.3756 111.122 23.8086V22.4266H112.393V30H111.122V28.5904C110.873 29.0326 110.5 29.4011 110.002 29.696C109.514 29.9816 108.943 30.1244 108.289 30.1244C107.616 30.1244 107.008 29.9585 106.464 29.6269C105.921 29.2952 105.492 28.8299 105.179 28.231C104.866 27.6322 104.709 26.9504 104.709 26.1857ZM111.122 26.1995C111.122 25.6283 111.007 25.1307 110.776 24.7069C110.546 24.2831 110.233 23.9606 109.837 23.7395C109.45 23.5092 109.021 23.394 108.551 23.394C108.081 23.394 107.653 23.5046 107.266 23.7257C106.879 23.9468 106.57 24.2693 106.34 24.6931C106.11 25.1169 105.995 25.6144 105.995 26.1857C105.995 26.7661 106.11 27.2728 106.34 27.7059C106.57 28.1297 106.879 28.4568 107.266 28.6871C107.653 28.9082 108.081 29.0188 108.551 29.0188C109.021 29.0188 109.45 28.9082 109.837 28.6871C110.233 28.4568 110.546 28.1297 110.776 27.7059C111.007 27.2728 111.122 26.7707 111.122 26.1995ZM117.642 22.3022C118.296 22.3022 118.867 22.445 119.356 22.7307C119.853 23.0163 120.222 23.3756 120.461 23.8086V22.4266H121.733V30.1658C121.733 30.8568 121.585 31.4695 121.29 32.0039C120.996 32.5475 120.572 32.9713 120.019 33.2754C119.475 33.5794 118.84 33.7314 118.112 33.7314C117.117 33.7314 116.287 33.4965 115.624 33.0266C114.961 32.5567 114.569 31.9164 114.449 31.1056H115.693C115.831 31.5663 116.117 31.9348 116.55 32.2112C116.983 32.4968 117.504 32.6396 118.112 32.6396C118.803 32.6396 119.365 32.4231 119.798 31.9901C120.24 31.5571 120.461 30.949 120.461 30.1658V28.5765C120.212 29.0188 119.844 29.3873 119.356 29.6821C118.867 29.977 118.296 30.1244 117.642 30.1244C116.969 30.1244 116.357 29.9585 115.804 29.6269C115.26 29.2952 114.832 28.8299 114.519 28.231C114.205 27.6322 114.049 26.9504 114.049 26.1857C114.049 25.4117 114.205 24.7346 114.519 24.1541C114.832 23.5645 115.26 23.1084 115.804 22.7859C116.357 22.4635 116.969 22.3022 117.642 22.3022ZM120.461 26.1995C120.461 25.6283 120.346 25.1307 120.116 24.7069C119.885 24.2831 119.572 23.9606 119.176 23.7395C118.789 23.5092 118.36 23.394 117.891 23.394C117.421 23.394 116.992 23.5046 116.605 23.7257C116.218 23.9468 115.91 24.2693 115.679 24.6931C115.449 25.1169 115.334 25.6144 115.334 26.1857C115.334 26.7661 115.449 27.2728 115.679 27.7059C115.91 28.1297 116.218 28.4568 116.605 28.6871C116.992 28.9082 117.421 29.0188 117.891 29.0188C118.36 29.0188 118.789 28.9082 119.176 28.6871C119.572 28.4568 119.885 28.1297 120.116 27.7059C120.346 27.2728 120.461 26.7707 120.461 26.1995ZM130.768 25.9231C130.768 26.1626 130.754 26.416 130.726 26.6832H124.673C124.719 27.4295 124.973 28.0145 125.433 28.4383C125.903 28.8529 126.47 29.0602 127.133 29.0602C127.677 29.0602 128.128 28.9359 128.488 28.6871C128.856 28.4291 129.114 28.0882 129.261 27.6644H130.616C130.413 28.3923 130.008 28.9865 129.4 29.4472C128.792 29.8987 128.036 30.1244 127.133 30.1244C126.415 30.1244 125.77 29.9631 125.198 29.6407C124.636 29.3182 124.194 28.8621 123.872 28.2725C123.549 27.6736 123.388 26.9826 123.388 26.1995C123.388 25.4163 123.545 24.73 123.858 24.1403C124.171 23.5506 124.609 23.0992 125.171 22.7859C125.742 22.4635 126.396 22.3022 127.133 22.3022C127.852 22.3022 128.488 22.4589 129.04 22.7721C129.593 23.0854 130.017 23.5184 130.312 24.0712C130.616 24.6148 130.768 25.2321 130.768 25.9231ZM129.469 25.6605C129.469 25.1814 129.363 24.7714 129.151 24.4305C128.939 24.0804 128.649 23.8178 128.28 23.6428C127.921 23.4585 127.52 23.3664 127.078 23.3664C126.442 23.3664 125.899 23.5691 125.447 23.9745C125.005 24.3798 124.752 24.9419 124.687 25.6605H129.469Z" fill="#FB8C00"/>
<rect x="163.432" y="0.431877" width="163.136" height="53.1362" rx="20.2982" stroke="#FB8C00" stroke-width="0.863753"/>
<path d="M239.616 21.0967C238.98 21.0967 238.409 20.9862 237.902 20.7651C237.405 20.5347 237.013 20.2215 236.727 19.8253C236.442 19.4199 236.294 18.9546 236.285 18.4295H237.626C237.672 18.8809 237.856 19.2633 238.179 19.5765C238.51 19.8806 238.989 20.0326 239.616 20.0326C240.215 20.0326 240.685 19.8852 241.025 19.5904C241.376 19.2863 241.551 18.8994 241.551 18.4295C241.551 18.0609 241.449 17.7615 241.247 17.5312C241.044 17.3008 240.791 17.1258 240.487 17.006C240.182 16.8862 239.772 16.7572 239.257 16.619C238.621 16.4532 238.109 16.2874 237.722 16.1215C237.345 15.9557 237.018 15.6977 236.741 15.3476C236.474 14.9883 236.34 14.5092 236.34 13.9103C236.34 13.3852 236.474 12.9199 236.741 12.5145C237.008 12.1091 237.382 11.7958 237.861 11.5747C238.349 11.3536 238.906 11.243 239.533 11.243C240.436 11.243 241.173 11.4688 241.744 11.9202C242.325 12.3717 242.652 12.9705 242.725 13.7168H241.343C241.297 13.3483 241.104 13.0258 240.763 12.7494C240.422 12.4638 239.971 12.321 239.409 12.321C238.883 12.321 238.455 12.4592 238.123 12.7356C237.792 13.0028 237.626 13.3805 237.626 13.8689C237.626 14.219 237.722 14.5046 237.916 14.7257C238.119 14.9468 238.363 15.1173 238.648 15.237C238.943 15.3476 239.353 15.4766 239.878 15.624C240.514 15.7991 241.025 15.9741 241.412 16.1492C241.799 16.315 242.131 16.5776 242.407 16.9369C242.684 17.287 242.822 17.7661 242.822 18.3742C242.822 18.8441 242.698 19.2863 242.449 19.7009C242.2 20.1155 241.832 20.4518 241.343 20.7098C240.855 20.9678 240.279 21.0967 239.616 21.0967ZM251.583 16.9231C251.583 17.1626 251.569 17.416 251.541 17.6832H245.488C245.534 18.4295 245.788 19.0145 246.248 19.4383C246.718 19.8529 247.285 20.0602 247.948 20.0602C248.492 20.0602 248.943 19.9359 249.303 19.6871C249.671 19.4291 249.929 19.0882 250.076 18.6644H251.431C251.228 19.3923 250.823 19.9865 250.215 20.4472C249.607 20.8987 248.851 21.1244 247.948 21.1244C247.23 21.1244 246.585 20.9631 246.013 20.6407C245.451 20.3182 245.009 19.8621 244.687 19.2725C244.364 18.6736 244.203 17.9826 244.203 17.1995C244.203 16.4163 244.36 15.73 244.673 15.1403C244.986 14.5506 245.424 14.0992 245.986 13.7859C246.557 13.4635 247.211 13.3022 247.948 13.3022C248.667 13.3022 249.303 13.4589 249.855 13.7721C250.408 14.0854 250.832 14.5184 251.127 15.0712C251.431 15.6148 251.583 16.2321 251.583 16.9231ZM250.284 16.6605C250.284 16.1814 250.178 15.7714 249.966 15.4305C249.754 15.0804 249.464 14.8178 249.095 14.6428C248.736 14.4585 248.335 14.3664 247.893 14.3664C247.257 14.3664 246.714 14.5691 246.262 14.9745C245.82 15.3798 245.566 15.9419 245.502 16.6605H250.284ZM256.933 13.2884C257.854 13.2884 258.6 13.5694 259.172 14.1314C259.743 14.6842 260.028 15.4858 260.028 16.5361V21H258.785V16.7158C258.785 15.9603 258.596 15.3845 258.218 14.9883C257.84 14.5829 257.324 14.3802 256.67 14.3802C256.007 14.3802 255.477 14.5875 255.081 15.0021C254.694 15.4167 254.5 16.0202 254.5 16.8125V21H253.243V13.4266H254.5V14.5046C254.749 14.1176 255.086 13.8182 255.509 13.6063C255.942 13.3944 256.417 13.2884 256.933 13.2884ZM261.613 17.1857C261.613 16.4117 261.77 15.7346 262.083 15.1541C262.396 14.5645 262.824 14.1084 263.368 13.7859C263.921 13.4635 264.538 13.3022 265.22 13.3022C265.81 13.3022 266.358 13.4404 266.865 13.7168C267.371 13.984 267.758 14.3387 268.025 14.781V10.7732H269.297V21H268.025V19.5765C267.777 20.028 267.408 20.4011 266.92 20.696C266.432 20.9816 265.86 21.1244 265.206 21.1244C264.534 21.1244 263.921 20.9585 263.368 20.6269C262.824 20.2952 262.396 19.8299 262.083 19.231C261.77 18.6322 261.613 17.9504 261.613 17.1857ZM268.025 17.1995C268.025 16.6283 267.91 16.1307 267.68 15.7069C267.45 15.2831 267.136 14.9606 266.74 14.7395C266.353 14.5092 265.925 14.394 265.455 14.394C264.985 14.394 264.557 14.5046 264.17 14.7257C263.783 14.9468 263.474 15.2693 263.244 15.6931C263.013 16.1169 262.898 16.6144 262.898 17.1857C262.898 17.7661 263.013 18.2728 263.244 18.7059C263.474 19.1297 263.783 19.4568 264.17 19.6871C264.557 19.9082 264.985 20.0188 265.455 20.0188C265.925 20.0188 266.353 19.9082 266.74 19.6871C267.136 19.4568 267.45 19.1297 267.68 18.7059C267.91 18.2728 268.025 17.7707 268.025 17.1995ZM212.19 38.1857C212.19 37.4117 212.347 36.7346 212.66 36.1541C212.973 35.5645 213.402 35.1084 213.945 34.7859C214.498 34.4635 215.111 34.3022 215.783 34.3022C216.447 34.3022 217.022 34.445 217.511 34.7307C217.999 35.0163 218.363 35.3756 218.603 35.8086V34.4266H219.874V42H218.603V40.5904C218.354 41.0326 217.981 41.4011 217.483 41.696C216.995 41.9816 216.424 42.1244 215.769 42.1244C215.097 42.1244 214.489 41.9585 213.945 41.6269C213.402 41.2952 212.973 40.8299 212.66 40.231C212.347 39.6322 212.19 38.9504 212.19 38.1857ZM218.603 38.1995C218.603 37.6283 218.487 37.1307 218.257 36.7069C218.027 36.2831 217.713 35.9606 217.317 35.7395C216.93 35.5092 216.502 35.394 216.032 35.394C215.562 35.394 215.134 35.5046 214.747 35.7257C214.36 35.9468 214.051 36.2693 213.821 36.6931C213.59 37.1169 213.475 37.6144 213.475 38.1857C213.475 38.7661 213.59 39.2728 213.821 39.7059C214.051 40.1297 214.36 40.4568 214.747 40.6871C215.134 40.9082 215.562 41.0188 216.032 41.0188C216.502 41.0188 216.93 40.9082 217.317 40.6871C217.713 40.4568 218.027 40.1297 218.257 39.7059C218.487 39.2728 218.603 38.7707 218.603 38.1995ZM223.533 35.4631V39.927C223.533 40.2955 223.612 40.5581 223.768 40.7147C223.925 40.8621 224.197 40.9359 224.584 40.9359H225.51V42H224.376C223.676 42 223.151 41.8388 222.801 41.5163C222.451 41.1938 222.276 40.6641 222.276 39.927V35.4631H221.294V34.4266H222.276V32.5194H223.533V34.4266H225.51V35.4631H223.533ZM228.567 35.4631V39.927C228.567 40.2955 228.646 40.5581 228.802 40.7147C228.959 40.8621 229.231 40.9359 229.618 40.9359H230.544V42H229.41C228.71 42 228.185 41.8388 227.835 41.5163C227.485 41.1938 227.31 40.6641 227.31 39.927V35.4631H226.329V34.4266H227.31V32.5194H228.567V34.4266H230.544V35.4631H228.567ZM231.598 38.1857C231.598 37.4117 231.754 36.7346 232.067 36.1541C232.381 35.5645 232.809 35.1084 233.353 34.7859C233.905 34.4635 234.518 34.3022 235.191 34.3022C235.854 34.3022 236.43 34.445 236.918 34.7307C237.407 35.0163 237.77 35.3756 238.01 35.8086V34.4266H239.281V42H238.01V40.5904C237.761 41.0326 237.388 41.4011 236.891 41.696C236.402 41.9816 235.831 42.1244 235.177 42.1244C234.504 42.1244 233.896 41.9585 233.353 41.6269C232.809 41.2952 232.381 40.8299 232.067 40.231C231.754 39.6322 231.598 38.9504 231.598 38.1857ZM238.01 38.1995C238.01 37.6283 237.895 37.1307 237.665 36.7069C237.434 36.2831 237.121 35.9606 236.725 35.7395C236.338 35.5092 235.909 35.394 235.439 35.394C234.97 35.394 234.541 35.5046 234.154 35.7257C233.767 35.9468 233.459 36.2693 233.228 36.6931C232.998 37.1169 232.883 37.6144 232.883 38.1857C232.883 38.7661 232.998 39.2728 233.228 39.7059C233.459 40.1297 233.767 40.4568 234.154 40.6871C234.541 40.9082 234.97 41.0188 235.439 41.0188C235.909 41.0188 236.338 40.9082 236.725 40.6871C237.121 40.4568 237.434 40.1297 237.665 39.7059C237.895 39.2728 238.01 38.7707 238.01 38.1995ZM240.937 38.1995C240.937 37.4163 241.093 36.7346 241.407 36.1541C241.72 35.5645 242.153 35.1084 242.706 34.7859C243.268 34.4635 243.908 34.3022 244.627 34.3022C245.557 34.3022 246.322 34.528 246.921 34.9794C247.529 35.4309 247.93 36.0574 248.123 36.8589H246.769C246.64 36.3983 246.387 36.0343 246.009 35.7672C245.64 35.5 245.18 35.3664 244.627 35.3664C243.908 35.3664 243.328 35.6151 242.885 36.1127C242.443 36.601 242.222 37.2966 242.222 38.1995C242.222 39.1116 242.443 39.8164 242.885 40.314C243.328 40.8115 243.908 41.0602 244.627 41.0602C245.18 41.0602 245.64 40.9312 246.009 40.6733C246.377 40.4153 246.631 40.0468 246.769 39.5677H248.123C247.921 40.3416 247.515 40.9635 246.907 41.4334C246.299 41.894 245.539 42.1244 244.627 42.1244C243.908 42.1244 243.268 41.9631 242.706 41.6407C242.153 41.3182 241.72 40.8621 241.407 40.2725C241.093 39.6828 240.937 38.9918 240.937 38.1995ZM253.56 34.2884C254.132 34.2884 254.648 34.4128 255.108 34.6616C255.569 34.9011 255.928 35.265 256.186 35.7533C256.453 36.2416 256.587 36.8359 256.587 37.5361V42H255.343V37.7158C255.343 36.9603 255.154 36.3845 254.777 35.9883C254.399 35.5829 253.883 35.3802 253.229 35.3802C252.565 35.3802 252.036 35.5875 251.639 36.0021C251.252 36.4167 251.059 37.0202 251.059 37.8125V42H249.801V31.7732H251.059V35.5046C251.308 35.1176 251.649 34.8182 252.082 34.6063C252.524 34.3944 253.017 34.2884 253.56 34.2884ZM267.749 34.2884C268.338 34.2884 268.864 34.4128 269.324 34.6616C269.785 34.9011 270.149 35.265 270.416 35.7533C270.683 36.2416 270.817 36.8359 270.817 37.5361V42H269.573V37.7158C269.573 36.9603 269.384 36.3845 269.006 35.9883C268.638 35.5829 268.136 35.3802 267.5 35.3802C266.846 35.3802 266.325 35.5921 265.938 36.0159C265.551 36.4305 265.358 37.034 265.358 37.8263V42H264.114V37.7158C264.114 36.9603 263.925 36.3845 263.547 35.9883C263.179 35.5829 262.677 35.3802 262.041 35.3802C261.387 35.3802 260.866 35.5921 260.479 36.0159C260.092 36.4305 259.899 37.034 259.899 37.8263V42H258.641V34.4266H259.899V35.5184C260.148 35.1222 260.479 34.8182 260.894 34.6063C261.318 34.3944 261.783 34.2884 262.29 34.2884C262.926 34.2884 263.488 34.4312 263.976 34.7168C264.464 35.0024 264.828 35.4217 265.068 35.9745C265.28 35.4401 265.63 35.0255 266.118 34.7307C266.606 34.4358 267.15 34.2884 267.749 34.2884ZM279.79 37.9231C279.79 38.1626 279.776 38.416 279.748 38.6832H273.695C273.741 39.4295 273.995 40.0145 274.455 40.4383C274.925 40.8529 275.492 41.0602 276.155 41.0602C276.699 41.0602 277.15 40.9359 277.509 40.6871C277.878 40.4291 278.136 40.0882 278.283 39.6644H279.638C279.435 40.3923 279.03 40.9865 278.422 41.4472C277.813 41.8987 277.058 42.1244 276.155 42.1244C275.436 42.1244 274.792 41.9631 274.22 41.6407C273.658 41.3182 273.216 40.8621 272.894 40.2725C272.571 39.6736 272.41 38.9826 272.41 38.1995C272.41 37.4163 272.566 36.73 272.88 36.1403C273.193 35.5506 273.631 35.0992 274.193 34.7859C274.764 34.4635 275.418 34.3022 276.155 34.3022C276.874 34.3022 277.509 34.4589 278.062 34.7721C278.615 35.0854 279.039 35.5184 279.334 36.0712C279.638 36.6148 279.79 37.2321 279.79 37.9231ZM278.491 37.6605C278.491 37.1814 278.385 36.7714 278.173 36.4305C277.961 36.0804 277.671 35.8178 277.302 35.6428C276.943 35.4585 276.542 35.3664 276.1 35.3664C275.464 35.3664 274.92 35.5691 274.469 35.9745C274.027 36.3798 273.773 36.9419 273.709 37.6605H278.491ZM285.14 34.2884C286.061 34.2884 286.807 34.5694 287.379 35.1314C287.95 35.6842 288.235 36.4858 288.235 37.5361V42H286.992V37.7158C286.992 36.9603 286.803 36.3845 286.425 35.9883C286.047 35.5829 285.531 35.3802 284.877 35.3802C284.214 35.3802 283.684 35.5875 283.288 36.0021C282.901 36.4167 282.707 37.0202 282.707 37.8125V42H281.45V34.4266H282.707V35.5046C282.956 35.1176 283.292 34.8182 283.716 34.6063C284.149 34.3944 284.624 34.2884 285.14 34.2884ZM291.824 35.4631V39.927C291.824 40.2955 291.902 40.5581 292.059 40.7147C292.215 40.8621 292.487 40.9359 292.874 40.9359H293.8V42H292.667C291.967 42 291.441 41.8388 291.091 41.5163C290.741 41.1938 290.566 40.6641 290.566 39.927V35.4631H289.585V34.4266H290.566V32.5194H291.824V34.4266H293.8V35.4631H291.824Z" fill="#FB8C00"/>
</svg>
