<svg width="388" height="166" viewBox="0 0 388 166" fill="none" xmlns="http://www.w3.org/2000/svg">
<rect x="-1" width="389" height="166" fill="#FFE7C8"/>
<rect x="126" y="20" width="133" height="125.201" rx="6.5679" fill="white"/>
<rect x="126.103" y="20.1026" width="132.795" height="124.995" rx="6.46528" stroke="#2E2C43" stroke-opacity="0.1" stroke-width="0.205247"/>
<path d="M191.098 82.5663H180.186V80.5822H191.098V69.6699H193.082V80.5822H203.994V82.5663H193.082V93.4786H191.098V82.5663Z" fill="#FB8C00"/>
<path d="M161.966 118.178C161.966 117.445 162.125 116.793 162.442 116.222C162.759 115.645 163.199 115.197 163.763 114.88C164.334 114.556 164.978 114.394 165.697 114.394C166.578 114.394 167.332 114.626 167.959 115.091C168.586 115.556 169.006 116.191 169.217 116.994H167.23C167.082 116.684 166.87 116.448 166.596 116.286C166.328 116.124 166.021 116.043 165.676 116.043C165.119 116.043 164.668 116.236 164.323 116.624C163.978 117.012 163.805 117.53 163.805 118.178C163.805 118.826 163.978 119.344 164.323 119.732C164.668 120.119 165.119 120.313 165.676 120.313C166.021 120.313 166.328 120.232 166.596 120.07C166.87 119.908 167.082 119.672 167.23 119.362H169.217C169.006 120.165 168.586 120.799 167.959 121.264C167.332 121.722 166.578 121.951 165.697 121.951C164.978 121.951 164.334 121.793 163.763 121.476C163.199 121.151 162.759 120.704 162.442 120.133C162.125 119.562 161.966 118.911 161.966 118.178ZM172.131 114.077V121.898H170.324V114.077H172.131ZM174.35 115.387C174.033 115.387 173.772 115.296 173.568 115.112C173.371 114.922 173.272 114.69 173.272 114.415C173.272 114.133 173.371 113.9 173.568 113.717C173.772 113.527 174.033 113.432 174.35 113.432C174.66 113.432 174.914 113.527 175.111 113.717C175.316 113.9 175.418 114.133 175.418 114.415C175.418 114.69 175.316 114.922 175.111 115.112C174.914 115.296 174.66 115.387 174.35 115.387ZM175.249 116V121.898H173.441V116H175.249ZM176.199 118.949C176.199 118.336 176.322 117.801 176.569 117.343C176.823 116.885 177.172 116.532 177.616 116.286C178.067 116.039 178.581 115.916 179.159 115.916C179.899 115.916 180.515 116.11 181.009 116.497C181.509 116.885 181.836 117.431 181.992 118.136H180.068C179.906 117.685 179.592 117.459 179.127 117.459C178.796 117.459 178.532 117.589 178.334 117.85C178.137 118.104 178.038 118.47 178.038 118.949C178.038 119.429 178.137 119.799 178.334 120.059C178.532 120.313 178.796 120.44 179.127 120.44C179.592 120.44 179.906 120.214 180.068 119.763H181.992C181.836 120.454 181.509 120.996 181.009 121.391C180.508 121.786 179.892 121.983 179.159 121.983C178.581 121.983 178.067 121.86 177.616 121.613C177.172 121.366 176.823 121.014 176.569 120.556C176.322 120.098 176.199 119.562 176.199 118.949ZM186.563 121.898L184.766 119.425V121.898H182.958V114.077H184.766V118.4L186.552 116H188.782L186.33 118.96L188.804 121.898H186.563ZM199.627 116.867C199.627 117.297 199.529 117.692 199.331 118.051C199.134 118.403 198.831 118.689 198.422 118.907C198.013 119.126 197.506 119.235 196.9 119.235H195.78V121.898H193.972V114.478H196.9C197.492 114.478 197.992 114.58 198.401 114.785C198.81 114.989 199.116 115.271 199.321 115.63C199.525 115.99 199.627 116.402 199.627 116.867ZM196.763 117.797C197.108 117.797 197.365 117.716 197.534 117.554C197.703 117.392 197.788 117.163 197.788 116.867C197.788 116.571 197.703 116.342 197.534 116.18C197.365 116.018 197.108 115.937 196.763 115.937H195.78V117.797H196.763ZM204.194 115.937C204.87 115.937 205.413 116.162 205.821 116.613C206.23 117.057 206.434 117.67 206.434 118.453V121.898H204.638V118.696C204.638 118.301 204.535 117.995 204.331 117.776C204.127 117.558 203.852 117.448 203.507 117.448C203.161 117.448 202.886 117.558 202.682 117.776C202.478 117.995 202.376 118.301 202.376 118.696V121.898H200.568V114.077H202.376V116.793C202.559 116.532 202.809 116.325 203.126 116.169C203.443 116.014 203.799 115.937 204.194 115.937ZM210.375 121.983C209.797 121.983 209.276 121.86 208.811 121.613C208.353 121.366 207.99 121.014 207.722 120.556C207.461 120.098 207.331 119.562 207.331 118.949C207.331 118.343 207.465 117.811 207.733 117.353C208.001 116.888 208.367 116.532 208.832 116.286C209.297 116.039 209.819 115.916 210.396 115.916C210.974 115.916 211.496 116.039 211.961 116.286C212.426 116.532 212.792 116.888 213.06 117.353C213.328 117.811 213.462 118.343 213.462 118.949C213.462 119.555 213.324 120.091 213.049 120.556C212.782 121.014 212.412 121.366 211.94 121.613C211.475 121.86 210.953 121.983 210.375 121.983ZM210.375 120.419C210.721 120.419 211.013 120.292 211.253 120.038C211.499 119.784 211.623 119.422 211.623 118.949C211.623 118.477 211.503 118.114 211.263 117.861C211.031 117.607 210.742 117.48 210.396 117.48C210.044 117.48 209.752 117.607 209.519 117.861C209.287 118.107 209.17 118.47 209.17 118.949C209.17 119.422 209.283 119.784 209.509 120.038C209.741 120.292 210.03 120.419 210.375 120.419ZM217.708 120.366V121.898H216.788C216.133 121.898 215.622 121.74 215.256 121.423C214.889 121.099 214.706 120.574 214.706 119.848V117.501H213.987V116H214.706V114.563H216.513V116H217.697V117.501H216.513V119.869C216.513 120.045 216.556 120.172 216.64 120.25C216.725 120.327 216.866 120.366 217.063 120.366H217.708ZM221.399 121.983C220.822 121.983 220.3 121.86 219.835 121.613C219.377 121.366 219.014 121.014 218.746 120.556C218.486 120.098 218.355 119.562 218.355 118.949C218.355 118.343 218.489 117.811 218.757 117.353C219.025 116.888 219.391 116.532 219.856 116.286C220.321 116.039 220.843 115.916 221.421 115.916C221.998 115.916 222.52 116.039 222.985 116.286C223.45 116.532 223.816 116.888 224.084 117.353C224.352 117.811 224.486 118.343 224.486 118.949C224.486 119.555 224.348 120.091 224.074 120.556C223.806 121.014 223.436 121.366 222.964 121.613C222.499 121.86 221.977 121.983 221.399 121.983ZM221.399 120.419C221.745 120.419 222.037 120.292 222.277 120.038C222.523 119.784 222.647 119.422 222.647 118.949C222.647 118.477 222.527 118.114 222.287 117.861C222.055 117.607 221.766 117.48 221.421 117.48C221.068 117.48 220.776 117.607 220.543 117.861C220.311 118.107 220.194 118.47 220.194 118.949C220.194 119.422 220.307 119.784 220.533 120.038C220.765 120.292 221.054 120.419 221.399 120.419Z" fill="#FB8C00"/>
</svg>
