<svg width="15" height="12" viewBox="0 0 15 12" fill="none" xmlns="http://www.w3.org/2000/svg">
<path d="M7.79686 0.398532C7.98116 0.207894 8.23364 0.0982622 8.49877 0.0937457C8.76389 0.0892291 9.01996 0.190198 9.21065 0.374447L13.7866 4.79715C13.9773 4.98145 14.0869 5.23393 14.0914 5.49906C14.0959 5.76418 13.995 6.02025 13.8107 6.21094L9.38803 10.7869C9.20256 10.9723 8.95171 11.0774 8.68951 11.0796C8.42732 11.0817 8.17475 10.9809 7.98621 10.7986C7.79767 10.6164 7.68824 10.3674 7.6815 10.1053C7.67476 9.84319 7.77123 9.5889 7.95015 9.39723L10.6092 6.55852L1.11057 6.72034C0.845387 6.72485 0.589276 6.62384 0.398572 6.43953C0.207869 6.25521 0.0981948 6.00269 0.0936774 5.73751C0.08916 5.47234 0.190169 5.21622 0.374484 5.02552C0.558799 4.83482 0.811321 4.72514 1.0765 4.72063L10.5751 4.55881L7.82094 1.81233C7.6303 1.62802 7.52067 1.37554 7.51615 1.11042C7.51164 0.845291 7.61261 0.589225 7.79686 0.398532Z" fill="#FB8C00"/>
</svg>
