<svg width="397" height="801" viewBox="0 0 397 801" fill="none" xmlns="http://www.w3.org/2000/svg">
<g filter="url(#filter0_d_137_627)">
<rect width="389" height="793" transform="translate(4)" fill="white"/>
<path d="M134.527 697.52H129.663L128.767 700H127.231L131.263 688.912H132.943L136.959 700H135.423L134.527 697.52ZM134.111 696.336L132.095 690.704L130.079 696.336H134.111ZM140.172 688.16V700H138.716V688.16H140.172ZM144.11 688.16V700H142.654V688.16H144.11ZM152.313 692.656C152.569 692.155 152.932 691.765 153.401 691.488C153.881 691.211 154.462 691.072 155.145 691.072V692.576H154.761C153.129 692.576 152.313 693.461 152.313 695.232V700H150.857V691.232H152.313V692.656ZM157.578 689.808C157.3 689.808 157.066 689.712 156.874 689.52C156.682 689.328 156.586 689.093 156.586 688.816C156.586 688.539 156.682 688.304 156.874 688.112C157.066 687.92 157.3 687.824 157.578 687.824C157.844 687.824 158.068 687.92 158.25 688.112C158.442 688.304 158.538 688.539 158.538 688.816C158.538 689.093 158.442 689.328 158.25 689.52C158.068 689.712 157.844 689.808 157.578 689.808ZM158.282 691.232V700H156.826V691.232H158.282ZM164.379 691.088C165.137 691.088 165.798 691.253 166.363 691.584C166.939 691.915 167.366 692.331 167.643 692.832V691.232H169.115V700.192C169.115 700.992 168.945 701.701 168.603 702.32C168.262 702.949 167.771 703.44 167.131 703.792C166.502 704.144 165.766 704.32 164.923 704.32C163.771 704.32 162.811 704.048 162.043 703.504C161.275 702.96 160.822 702.219 160.683 701.28H162.123C162.283 701.813 162.614 702.24 163.115 702.56C163.617 702.891 164.219 703.056 164.923 703.056C165.723 703.056 166.374 702.805 166.875 702.304C167.387 701.803 167.643 701.099 167.643 700.192V698.352C167.355 698.864 166.929 699.291 166.363 699.632C165.798 699.973 165.137 700.144 164.379 700.144C163.601 700.144 162.891 699.952 162.251 699.568C161.622 699.184 161.126 698.645 160.763 697.952C160.401 697.259 160.219 696.469 160.219 695.584C160.219 694.688 160.401 693.904 160.763 693.232C161.126 692.549 161.622 692.021 162.251 691.648C162.891 691.275 163.601 691.088 164.379 691.088ZM167.643 695.6C167.643 694.939 167.51 694.363 167.243 693.872C166.977 693.381 166.614 693.008 166.155 692.752C165.707 692.485 165.211 692.352 164.667 692.352C164.123 692.352 163.627 692.48 163.179 692.736C162.731 692.992 162.374 693.365 162.107 693.856C161.841 694.347 161.707 694.923 161.707 695.584C161.707 696.256 161.841 696.843 162.107 697.344C162.374 697.835 162.731 698.213 163.179 698.48C163.627 698.736 164.123 698.864 164.667 698.864C165.211 698.864 165.707 698.736 166.155 698.48C166.614 698.213 166.977 697.835 167.243 697.344C167.51 696.843 167.643 696.261 167.643 695.6ZM175.928 691.072C176.589 691.072 177.186 691.216 177.72 691.504C178.253 691.781 178.669 692.203 178.968 692.768C179.277 693.333 179.432 694.021 179.432 694.832V700H177.992V695.04C177.992 694.165 177.773 693.499 177.336 693.04C176.898 692.571 176.301 692.336 175.544 692.336C174.776 692.336 174.162 692.576 173.704 693.056C173.256 693.536 173.032 694.235 173.032 695.152V700H171.576V688.16H173.032V692.48C173.32 692.032 173.714 691.685 174.216 691.44C174.728 691.195 175.298 691.072 175.928 691.072ZM183.586 692.432V697.6C183.586 698.027 183.677 698.331 183.858 698.512C184.039 698.683 184.354 698.768 184.802 698.768H185.874V700H184.562C183.751 700 183.143 699.813 182.738 699.44C182.333 699.067 182.13 698.453 182.13 697.6V692.432H180.994V691.232H182.13V689.024H183.586V691.232H185.874V692.432H183.586ZM193.36 692.656C193.616 692.155 193.979 691.765 194.448 691.488C194.928 691.211 195.509 691.072 196.192 691.072V692.576H195.808C194.176 692.576 193.36 693.461 193.36 695.232V700H191.904V691.232H193.36V692.656ZM205.873 695.28C205.873 695.557 205.857 695.851 205.825 696.16H198.817C198.87 697.024 199.163 697.701 199.697 698.192C200.241 698.672 200.897 698.912 201.665 698.912C202.294 698.912 202.817 698.768 203.233 698.48C203.659 698.181 203.958 697.787 204.129 697.296H205.697C205.462 698.139 204.993 698.827 204.289 699.36C203.585 699.883 202.71 700.144 201.665 700.144C200.833 700.144 200.086 699.957 199.425 699.584C198.774 699.211 198.262 698.683 197.889 698C197.515 697.307 197.329 696.507 197.329 695.6C197.329 694.693 197.51 693.899 197.873 693.216C198.235 692.533 198.742 692.011 199.393 691.648C200.054 691.275 200.811 691.088 201.665 691.088C202.497 691.088 203.233 691.269 203.873 691.632C204.513 691.995 205.003 692.496 205.345 693.136C205.697 693.765 205.873 694.48 205.873 695.28ZM204.369 694.976C204.369 694.421 204.246 693.947 204.001 693.552C203.755 693.147 203.419 692.843 202.993 692.64C202.577 692.427 202.113 692.32 201.601 692.32C200.865 692.32 200.235 692.555 199.713 693.024C199.201 693.493 198.907 694.144 198.833 694.976H204.369ZM210.899 700.144C210.227 700.144 209.624 700.032 209.091 699.808C208.557 699.573 208.136 699.253 207.827 698.848C207.517 698.432 207.347 697.957 207.315 697.424H208.819C208.861 697.861 209.064 698.219 209.427 698.496C209.8 698.773 210.285 698.912 210.883 698.912C211.437 698.912 211.875 698.789 212.195 698.544C212.515 698.299 212.675 697.989 212.675 697.616C212.675 697.232 212.504 696.949 212.163 696.768C211.821 696.576 211.293 696.389 210.579 696.208C209.928 696.037 209.395 695.867 208.979 695.696C208.573 695.515 208.221 695.253 207.923 694.912C207.635 694.56 207.491 694.101 207.491 693.536C207.491 693.088 207.624 692.677 207.891 692.304C208.157 691.931 208.536 691.637 209.027 691.424C209.517 691.2 210.077 691.088 210.707 691.088C211.677 691.088 212.461 691.333 213.059 691.824C213.656 692.315 213.976 692.987 214.019 693.84H212.563C212.531 693.381 212.344 693.013 212.003 692.736C211.672 692.459 211.224 692.32 210.659 692.32C210.136 692.32 209.72 692.432 209.411 692.656C209.101 692.88 208.947 693.173 208.947 693.536C208.947 693.824 209.037 694.064 209.219 694.256C209.411 694.437 209.645 694.587 209.923 694.704C210.211 694.811 210.605 694.933 211.107 695.072C211.736 695.243 212.248 695.413 212.643 695.584C213.037 695.744 213.373 695.989 213.651 696.32C213.939 696.651 214.088 697.083 214.099 697.616C214.099 698.096 213.965 698.528 213.699 698.912C213.432 699.296 213.053 699.6 212.563 699.824C212.083 700.037 211.528 700.144 210.899 700.144ZM224.154 695.28C224.154 695.557 224.138 695.851 224.106 696.16H217.098C217.151 697.024 217.445 697.701 217.978 698.192C218.522 698.672 219.178 698.912 219.946 698.912C220.575 698.912 221.098 698.768 221.514 698.48C221.941 698.181 222.239 697.787 222.41 697.296H223.978C223.743 698.139 223.274 698.827 222.57 699.36C221.866 699.883 220.991 700.144 219.946 700.144C219.114 700.144 218.367 699.957 217.706 699.584C217.055 699.211 216.543 698.683 216.17 698C215.797 697.307 215.61 696.507 215.61 695.6C215.61 694.693 215.791 693.899 216.154 693.216C216.517 692.533 217.023 692.011 217.674 691.648C218.335 691.275 219.093 691.088 219.946 691.088C220.778 691.088 221.514 691.269 222.154 691.632C222.794 691.995 223.285 692.496 223.626 693.136C223.978 693.765 224.154 694.48 224.154 695.28ZM222.65 694.976C222.65 694.421 222.527 693.947 222.282 693.552C222.037 693.147 221.701 692.843 221.274 692.64C220.858 692.427 220.394 692.32 219.882 692.32C219.146 692.32 218.517 692.555 217.994 693.024C217.482 693.493 217.189 694.144 217.114 694.976H222.65ZM227.532 692.656C227.788 692.155 228.15 691.765 228.62 691.488C229.1 691.211 229.681 691.072 230.364 691.072V692.576H229.98C228.348 692.576 227.532 693.461 227.532 695.232V700H226.076V691.232H227.532V692.656ZM235.309 698.656L238.029 691.232H239.581L236.141 700H234.445L231.005 691.232H232.573L235.309 698.656ZM249.013 695.28C249.013 695.557 248.997 695.851 248.965 696.16H241.957C242.011 697.024 242.304 697.701 242.837 698.192C243.381 698.672 244.037 698.912 244.805 698.912C245.435 698.912 245.957 698.768 246.373 698.48C246.8 698.181 247.099 697.787 247.269 697.296H248.837C248.603 698.139 248.133 698.827 247.429 699.36C246.725 699.883 245.851 700.144 244.805 700.144C243.973 700.144 243.227 699.957 242.565 699.584C241.915 699.211 241.403 698.683 241.029 698C240.656 697.307 240.469 696.507 240.469 695.6C240.469 694.693 240.651 693.899 241.013 693.216C241.376 692.533 241.883 692.011 242.533 691.648C243.195 691.275 243.952 691.088 244.805 691.088C245.637 691.088 246.373 691.269 247.013 691.632C247.653 691.995 248.144 692.496 248.485 693.136C248.837 693.765 249.013 694.48 249.013 695.28ZM247.509 694.976C247.509 694.421 247.387 693.947 247.141 693.552C246.896 693.147 246.56 692.843 246.133 692.64C245.717 692.427 245.253 692.32 244.741 692.32C244.005 692.32 243.376 692.555 242.853 693.024C242.341 693.493 242.048 694.144 241.973 694.976H247.509ZM256.977 692.432V697.6C256.977 698.027 257.067 698.331 257.249 698.512C257.43 698.683 257.745 698.768 258.193 698.768H259.265V700H257.953C257.142 700 256.534 699.813 256.129 699.44C255.723 699.067 255.521 698.453 255.521 697.6V692.432H254.385V691.232H255.521V689.024H256.977V691.232H259.265V692.432H256.977ZM264.853 700.144C264.032 700.144 263.285 699.957 262.613 699.584C261.952 699.211 261.429 698.683 261.045 698C260.672 697.307 260.485 696.507 260.485 695.6C260.485 694.704 260.677 693.915 261.061 693.232C261.456 692.539 261.989 692.011 262.661 691.648C263.333 691.275 264.085 691.088 264.917 691.088C265.749 691.088 266.501 691.275 267.173 691.648C267.845 692.011 268.373 692.533 268.757 693.216C269.152 693.899 269.349 694.693 269.349 695.6C269.349 696.507 269.146 697.307 268.741 698C268.346 698.683 267.808 699.211 267.125 699.584C266.442 699.957 265.685 700.144 264.853 700.144ZM264.853 698.864C265.376 698.864 265.866 698.741 266.325 698.496C266.784 698.251 267.152 697.883 267.429 697.392C267.717 696.901 267.861 696.304 267.861 695.6C267.861 694.896 267.722 694.299 267.445 693.808C267.168 693.317 266.805 692.955 266.357 692.72C265.909 692.475 265.424 692.352 264.901 692.352C264.368 692.352 263.877 692.475 263.429 692.72C262.992 692.955 262.64 693.317 262.373 693.808C262.106 694.299 261.973 694.896 261.973 695.6C261.973 696.315 262.101 696.917 262.357 697.408C262.624 697.899 262.976 698.267 263.413 698.512C263.85 698.747 264.33 698.864 264.853 698.864ZM67.6061 718.368C67.6061 717.259 67.8461 716.272 68.3261 715.408C68.8061 714.533 69.4728 713.856 70.3261 713.376C71.1901 712.885 72.1661 712.64 73.2541 712.64C74.5875 712.64 75.7288 712.992 76.6781 713.696C77.6275 714.4 78.2621 715.36 78.5821 716.576H75.5741C75.3501 716.107 75.0301 715.749 74.6141 715.504C74.2088 715.259 73.7448 715.136 73.2221 715.136C72.3795 715.136 71.6968 715.429 71.1741 716.016C70.6515 716.603 70.3901 717.387 70.3901 718.368C70.3901 719.349 70.6515 720.133 71.1741 720.72C71.6968 721.307 72.3795 721.6 73.2221 721.6C73.7448 721.6 74.2088 721.477 74.6141 721.232C75.0301 720.987 75.3501 720.629 75.5741 720.16H78.5821C78.2621 721.376 77.6275 722.336 76.6781 723.04C75.7288 723.733 74.5875 724.08 73.2541 724.08C72.1661 724.08 71.1901 723.84 70.3261 723.36C69.4728 722.869 68.8061 722.192 68.3261 721.328C67.8461 720.464 67.6061 719.477 67.6061 718.368ZM89.0736 715.072V724H86.3376V722.784C86.0603 723.179 85.6816 723.499 85.2016 723.744C84.7323 723.979 84.2096 724.096 83.6336 724.096C82.951 724.096 82.3483 723.947 81.8256 723.648C81.303 723.339 80.8976 722.896 80.6096 722.32C80.3216 721.744 80.1776 721.067 80.1776 720.288V715.072H82.8976V719.92C82.8976 720.517 83.0523 720.981 83.3616 721.312C83.671 721.643 84.087 721.808 84.6096 721.808C85.143 721.808 85.5643 721.643 85.8736 721.312C86.183 720.981 86.3376 720.517 86.3376 719.92V715.072H89.0736ZM93.7749 712.16V724H91.0389V712.16H93.7749ZM100.734 721.68V724H99.3416C98.3496 724 97.5763 723.76 97.0216 723.28C96.467 722.789 96.1896 721.995 96.1896 720.896V717.344H95.1016V715.072H96.1896V712.896H98.9256V715.072H100.718V717.344H98.9256V720.928C98.9256 721.195 98.9896 721.387 99.1176 721.504C99.2456 721.621 99.459 721.68 99.7576 721.68H100.734ZM111.074 715.072V724H108.338V722.784C108.06 723.179 107.682 723.499 107.202 723.744C106.732 723.979 106.21 724.096 105.634 724.096C104.951 724.096 104.348 723.947 103.826 723.648C103.303 723.339 102.898 722.896 102.61 722.32C102.322 721.744 102.178 721.067 102.178 720.288V715.072H104.898V719.92C104.898 720.517 105.052 720.981 105.362 721.312C105.671 721.643 106.087 721.808 106.61 721.808C107.143 721.808 107.564 721.643 107.874 721.312C108.183 720.981 108.338 720.517 108.338 719.92V715.072H111.074ZM115.775 716.56C116.095 716.069 116.495 715.685 116.975 715.408C117.455 715.12 117.988 714.976 118.575 714.976V717.872H117.823C117.14 717.872 116.628 718.021 116.287 718.32C115.946 718.608 115.775 719.12 115.775 719.856V724H113.039V715.072H115.775V716.56ZM127.963 712.768V714.96H124.987V724H122.251V714.96H119.275V712.768H127.963ZM128.792 719.52C128.792 718.603 128.962 717.797 129.304 717.104C129.656 716.411 130.13 715.877 130.728 715.504C131.325 715.131 131.992 714.944 132.728 714.944C133.357 714.944 133.906 715.072 134.376 715.328C134.856 715.584 135.224 715.92 135.48 716.336V715.072H138.216V724H135.48V722.736C135.213 723.152 134.84 723.488 134.36 723.744C133.89 724 133.341 724.128 132.712 724.128C131.986 724.128 131.325 723.941 130.728 723.568C130.13 723.184 129.656 722.645 129.304 721.952C128.962 721.248 128.792 720.437 128.792 719.52ZM135.48 719.536C135.48 718.853 135.288 718.315 134.904 717.92C134.53 717.525 134.072 717.328 133.528 717.328C132.984 717.328 132.52 717.525 132.136 717.92C131.762 718.304 131.576 718.837 131.576 719.52C131.576 720.203 131.762 720.747 132.136 721.152C132.52 721.547 132.984 721.744 133.528 721.744C134.072 721.744 134.53 721.547 134.904 721.152C135.288 720.757 135.48 720.219 135.48 719.536ZM142.931 716.336C143.198 715.92 143.566 715.584 144.035 715.328C144.504 715.072 145.054 714.944 145.683 714.944C146.419 714.944 147.086 715.131 147.683 715.504C148.28 715.877 148.75 716.411 149.091 717.104C149.443 717.797 149.619 718.603 149.619 719.52C149.619 720.437 149.443 721.248 149.091 721.952C148.75 722.645 148.28 723.184 147.683 723.568C147.086 723.941 146.419 724.128 145.683 724.128C145.064 724.128 144.515 724 144.035 723.744C143.566 723.488 143.198 723.157 142.931 722.752V728.256H140.195V715.072H142.931V716.336ZM146.835 719.52C146.835 718.837 146.643 718.304 146.259 717.92C145.886 717.525 145.422 717.328 144.867 717.328C144.323 717.328 143.859 717.525 143.475 717.92C143.102 718.315 142.915 718.853 142.915 719.536C142.915 720.219 143.102 720.757 143.475 721.152C143.859 721.547 144.323 721.744 144.867 721.744C145.411 721.744 145.875 721.547 146.259 721.152C146.643 720.747 146.835 720.203 146.835 719.52ZM162.525 712.768V714.96H159.549V724H156.813V714.96H153.837V712.768H162.525ZM167.962 724.128C167.088 724.128 166.298 723.941 165.594 723.568C164.901 723.195 164.352 722.661 163.946 721.968C163.552 721.275 163.354 720.464 163.354 719.536C163.354 718.619 163.557 717.813 163.962 717.12C164.368 716.416 164.922 715.877 165.626 715.504C166.33 715.131 167.12 714.944 167.994 714.944C168.869 714.944 169.658 715.131 170.362 715.504C171.066 715.877 171.621 716.416 172.026 717.12C172.432 717.813 172.634 718.619 172.634 719.536C172.634 720.453 172.426 721.264 172.01 721.968C171.605 722.661 171.045 723.195 170.33 723.568C169.626 723.941 168.837 724.128 167.962 724.128ZM167.962 721.76C168.485 721.76 168.928 721.568 169.29 721.184C169.664 720.8 169.85 720.251 169.85 719.536C169.85 718.821 169.669 718.272 169.306 717.888C168.954 717.504 168.517 717.312 167.994 717.312C167.461 717.312 167.018 717.504 166.666 717.888C166.314 718.261 166.138 718.811 166.138 719.536C166.138 720.251 166.309 720.8 166.65 721.184C167.002 721.568 167.44 721.76 167.962 721.76ZM182.902 715.072V724H180.166V722.784C179.888 723.179 179.51 723.499 179.03 723.744C178.56 723.979 178.038 724.096 177.462 724.096C176.779 724.096 176.176 723.947 175.654 723.648C175.131 723.339 174.726 722.896 174.438 722.32C174.15 721.744 174.006 721.067 174.006 720.288V715.072H176.726V719.92C176.726 720.517 176.88 720.981 177.19 721.312C177.499 721.643 177.915 721.808 178.438 721.808C178.971 721.808 179.392 721.643 179.702 721.312C180.011 720.981 180.166 720.517 180.166 719.92V715.072H182.902ZM187.603 716.56C187.923 716.069 188.323 715.685 188.803 715.408C189.283 715.12 189.816 714.976 190.403 714.976V717.872H189.651C188.968 717.872 188.456 718.021 188.115 718.32C187.774 718.608 187.603 719.12 187.603 719.856V724H184.867V715.072H187.603V716.56ZM193.087 714.144C192.607 714.144 192.212 714.005 191.903 713.728C191.604 713.44 191.455 713.088 191.455 712.672C191.455 712.245 191.604 711.893 191.903 711.616C192.212 711.328 192.607 711.184 193.087 711.184C193.556 711.184 193.94 711.328 194.239 711.616C194.548 711.893 194.703 712.245 194.703 712.672C194.703 713.088 194.548 713.44 194.239 713.728C193.94 714.005 193.556 714.144 193.087 714.144ZM194.447 715.072V724H191.711V715.072H194.447ZM200.062 724.128C199.283 724.128 198.59 723.995 197.982 723.728C197.374 723.461 196.894 723.099 196.542 722.64C196.19 722.171 195.992 721.648 195.95 721.072H198.654C198.686 721.381 198.83 721.632 199.086 721.824C199.342 722.016 199.656 722.112 200.03 722.112C200.371 722.112 200.632 722.048 200.814 721.92C201.006 721.781 201.102 721.605 201.102 721.392C201.102 721.136 200.968 720.949 200.702 720.832C200.435 720.704 200.003 720.565 199.406 720.416C198.766 720.267 198.232 720.112 197.806 719.952C197.379 719.781 197.011 719.52 196.702 719.168C196.392 718.805 196.238 718.32 196.238 717.712C196.238 717.2 196.376 716.736 196.654 716.32C196.942 715.893 197.358 715.557 197.902 715.312C198.456 715.067 199.112 714.944 199.87 714.944C200.99 714.944 201.87 715.221 202.51 715.776C203.16 716.331 203.534 717.067 203.63 717.984H201.102C201.059 717.675 200.92 717.429 200.686 717.248C200.462 717.067 200.163 716.976 199.79 716.976C199.47 716.976 199.224 717.04 199.054 717.168C198.883 717.285 198.798 717.451 198.798 717.664C198.798 717.92 198.931 718.112 199.198 718.24C199.475 718.368 199.902 718.496 200.478 718.624C201.139 718.795 201.678 718.965 202.094 719.136C202.51 719.296 202.872 719.563 203.182 719.936C203.502 720.299 203.667 720.789 203.678 721.408C203.678 721.931 203.528 722.4 203.23 722.816C202.942 723.221 202.52 723.541 201.966 723.776C201.422 724.011 200.787 724.128 200.062 724.128ZM216.743 714.976C217.853 714.976 218.733 715.312 219.383 715.984C220.045 716.656 220.375 717.589 220.375 718.784V724H217.655V719.152C217.655 718.576 217.501 718.133 217.191 717.824C216.893 717.504 216.477 717.344 215.943 717.344C215.41 717.344 214.989 717.504 214.679 717.824C214.381 718.133 214.231 718.576 214.231 719.152V724H211.511V719.152C211.511 718.576 211.357 718.133 211.047 717.824C210.749 717.504 210.333 717.344 209.799 717.344C209.266 717.344 208.845 717.504 208.535 717.824C208.237 718.133 208.087 718.576 208.087 719.152V724H205.351V715.072H208.087V716.192C208.365 715.819 208.727 715.525 209.175 715.312C209.623 715.088 210.13 714.976 210.695 714.976C211.367 714.976 211.965 715.12 212.487 715.408C213.021 715.696 213.437 716.107 213.735 716.64C214.045 716.149 214.466 715.749 214.999 715.44C215.533 715.131 216.114 714.976 216.743 714.976ZM228.416 712.768V724H225.68V712.768H228.416ZM235.838 714.976C236.884 714.976 237.716 715.317 238.334 716C238.964 716.672 239.278 717.6 239.278 718.784V724H236.558V719.152C236.558 718.555 236.404 718.091 236.094 717.76C235.785 717.429 235.369 717.264 234.846 717.264C234.324 717.264 233.908 717.429 233.598 717.76C233.289 718.091 233.134 718.555 233.134 719.152V724H230.398V715.072H233.134V716.256C233.412 715.861 233.785 715.552 234.254 715.328C234.724 715.093 235.252 714.976 235.838 714.976ZM240.636 719.52C240.636 718.603 240.806 717.797 241.148 717.104C241.5 716.411 241.974 715.877 242.572 715.504C243.169 715.131 243.836 714.944 244.572 714.944C245.158 714.944 245.692 715.067 246.172 715.312C246.662 715.557 247.046 715.888 247.324 716.304V712.16H250.06V724H247.324V722.72C247.068 723.147 246.7 723.488 246.22 723.744C245.75 724 245.201 724.128 244.572 724.128C243.836 724.128 243.169 723.941 242.572 723.568C241.974 723.184 241.5 722.645 241.148 721.952C240.806 721.248 240.636 720.437 240.636 719.52ZM247.324 719.536C247.324 718.853 247.132 718.315 246.748 717.92C246.374 717.525 245.916 717.328 245.372 717.328C244.828 717.328 244.364 717.525 243.98 717.92C243.606 718.304 243.42 718.837 243.42 719.52C243.42 720.203 243.606 720.747 243.98 721.152C244.364 721.547 244.828 721.744 245.372 721.744C245.916 721.744 246.374 721.547 246.748 721.152C247.132 720.757 247.324 720.219 247.324 719.536ZM253.415 714.144C252.935 714.144 252.54 714.005 252.231 713.728C251.932 713.44 251.783 713.088 251.783 712.672C251.783 712.245 251.932 711.893 252.231 711.616C252.54 711.328 252.935 711.184 253.415 711.184C253.884 711.184 254.268 711.328 254.567 711.616C254.876 711.893 255.031 712.245 255.031 712.672C255.031 713.088 254.876 713.44 254.567 713.728C254.268 714.005 253.884 714.144 253.415 714.144ZM254.775 715.072V724H252.039V715.072H254.775ZM256.214 719.52C256.214 718.603 256.384 717.797 256.726 717.104C257.078 716.411 257.552 715.877 258.15 715.504C258.747 715.131 259.414 714.944 260.15 714.944C260.779 714.944 261.328 715.072 261.798 715.328C262.278 715.584 262.646 715.92 262.902 716.336V715.072H265.638V724H262.902V722.736C262.635 723.152 262.262 723.488 261.782 723.744C261.312 724 260.763 724.128 260.134 724.128C259.408 724.128 258.747 723.941 258.15 723.568C257.552 723.184 257.078 722.645 256.726 721.952C256.384 721.248 256.214 720.437 256.214 719.52ZM262.902 719.536C262.902 718.853 262.71 718.315 262.326 717.92C261.952 717.525 261.494 717.328 260.95 717.328C260.406 717.328 259.942 717.525 259.558 717.92C259.184 718.304 258.998 718.837 258.998 719.52C258.998 720.203 259.184 720.747 259.558 721.152C259.942 721.547 260.406 721.744 260.95 721.744C261.494 721.744 261.952 721.547 262.326 721.152C262.71 720.757 262.902 720.219 262.902 719.536ZM279.568 716.384C279.568 717.035 279.418 717.632 279.12 718.176C278.821 718.709 278.362 719.141 277.744 719.472C277.125 719.803 276.357 719.968 275.44 719.968H273.744V724H271.008V712.768H275.44C276.336 712.768 277.093 712.923 277.712 713.232C278.33 713.541 278.794 713.968 279.104 714.512C279.413 715.056 279.568 715.68 279.568 716.384ZM275.232 717.792C275.754 717.792 276.144 717.669 276.4 717.424C276.656 717.179 276.784 716.832 276.784 716.384C276.784 715.936 276.656 715.589 276.4 715.344C276.144 715.099 275.754 714.976 275.232 714.976H273.744V717.792H275.232ZM285.008 721.44L286.944 715.072H289.856L286.688 724H283.312L280.144 715.072H283.072L285.008 721.44ZM295.984 721.68V724H294.592C293.6 724 292.826 723.76 292.272 723.28C291.717 722.789 291.44 721.995 291.44 720.896V717.344H290.352V715.072H291.44V712.896H294.176V715.072H295.968V717.344H294.176V720.928C294.176 721.195 294.24 721.387 294.368 721.504C294.496 721.621 294.709 721.68 295.008 721.68H295.984ZM298.788 724.128C298.308 724.128 297.913 723.989 297.604 723.712C297.305 723.424 297.156 723.072 297.156 722.656C297.156 722.229 297.305 721.872 297.604 721.584C297.913 721.296 298.308 721.152 298.788 721.152C299.257 721.152 299.641 721.296 299.94 721.584C300.249 721.872 300.404 722.229 300.404 722.656C300.404 723.072 300.249 723.424 299.94 723.712C299.641 723.989 299.257 724.128 298.788 724.128ZM308.15 721.888H311.734V724H305.414V712.768H308.15V721.888ZM318.015 721.68V724H316.623C315.631 724 314.858 723.76 314.303 723.28C313.748 722.789 313.471 721.995 313.471 720.896V717.344H312.383V715.072H313.471V712.896H316.207V715.072H317.999V717.344H316.207V720.928C316.207 721.195 316.271 721.387 316.399 721.504C316.527 721.621 316.74 721.68 317.039 721.68H318.015ZM318.995 719.52C318.995 718.603 319.166 717.797 319.507 717.104C319.859 716.411 320.334 715.877 320.931 715.504C321.528 715.131 322.195 714.944 322.931 714.944C323.518 714.944 324.051 715.067 324.531 715.312C325.022 715.557 325.406 715.888 325.683 716.304V712.16H328.419V724H325.683V722.72C325.427 723.147 325.059 723.488 324.579 723.744C324.11 724 323.56 724.128 322.931 724.128C322.195 724.128 321.528 723.941 320.931 723.568C320.334 723.184 319.859 722.645 319.507 721.952C319.166 721.248 318.995 720.437 318.995 719.52ZM325.683 719.536C325.683 718.853 325.491 718.315 325.107 717.92C324.734 717.525 324.275 717.328 323.731 717.328C323.187 717.328 322.723 717.525 322.339 717.92C321.966 718.304 321.779 718.837 321.779 719.52C321.779 720.203 321.966 720.747 322.339 721.152C322.723 721.547 323.187 721.744 323.731 721.744C324.275 721.744 324.734 721.547 325.107 721.152C325.491 720.757 325.683 720.219 325.683 719.536ZM331.678 724.128C331.198 724.128 330.804 723.989 330.494 723.712C330.196 723.424 330.046 723.072 330.046 722.656C330.046 722.229 330.196 721.872 330.494 721.584C330.804 721.296 331.198 721.152 331.678 721.152C332.148 721.152 332.532 721.296 332.83 721.584C333.14 721.872 333.294 722.229 333.294 722.656C333.294 723.072 333.14 723.424 332.83 723.712C332.532 723.989 332.148 724.128 331.678 724.128Z" fill="#2E2C43"/>
<path d="M232.982 312.158L235.908 321.263L231.745 339.601L212.724 360.431C232.171 361.607 251.458 356.297 267.561 345.331C267.561 345.331 274.903 297.606 230.849 297.606C219.13 305.418 209.093 310.818 197.808 310.796H198.267C186.982 310.818 176.945 305.418 165.226 297.606C121.172 297.606 128.514 345.331 128.514 345.331C165.145 367.436 181.262 358.944 231.745 339.601L234.01 326.674L145.651 331.63L165.145 328.297" fill="#FB8C00"/>
<path d="M267.506 345.335C267.506 345.335 274.848 297.609 230.794 297.609C219.075 305.422 209.035 310.818 197.753 310.796H198.212C186.927 310.818 176.889 305.422 165.171 297.609C121.116 297.609 128.459 345.335 128.459 345.335" fill="#FB8C00"/>
<path d="M231.829 297.609C222.291 304.896 210.949 309.45 199.02 310.782C246.973 312.298 246.973 330.654 249.77 345.339H268.541C268.541 345.339 275.884 297.609 231.829 297.609Z" fill="#FFC882"/>
<path d="M268.541 345.335C268.541 345.335 225.382 378.471 192.411 356.213L231.744 339.6L235.908 321.263C235.908 321.263 268.86 312.217 268.541 345.335Z" fill="#FFC882"/>
<path d="M198.039 289.066C221.03 289.066 239.667 265.771 239.667 237.034C239.667 208.298 221.03 185.002 198.039 185.002C175.049 185.002 156.412 208.298 156.412 237.034C156.412 265.771 175.049 289.066 198.039 289.066Z" fill="#FB8C00"/>
<path d="M246.393 180.402C198.039 195.517 156.411 230.033 156.411 230.033C156.411 230.033 141.873 210.429 148.199 190.652C148.199 190.652 156.411 161 196.057 161C224.336 161 238.628 172.638 246.393 180.402C268.96 212.434 238.555 230.345 238.555 230.345C226.231 220.744 214.4 210.525 203.109 199.728" fill="white"/>
<path d="M246.393 180.402C268.956 212.434 238.555 230.345 238.555 230.345C226.231 220.744 214.401 210.525 203.109 199.728" fill="#D0CFCE"/>
<path d="M198.039 221.123C196.092 221.123 194.224 220.35 192.847 218.973C191.47 217.596 190.697 215.728 190.697 213.781V199.096C190.697 197.149 191.47 195.281 192.847 193.904C194.224 192.527 196.092 191.754 198.039 191.754C199.987 191.754 201.854 192.527 203.231 193.904C204.608 195.281 205.382 197.149 205.382 199.096V213.781C205.382 215.728 204.608 217.596 203.231 218.973C201.854 220.35 199.987 221.123 198.039 221.123ZM231.745 339.601L215.547 346.323V327.067H234.01L231.745 339.601Z" fill="#FCEA2B"/>
<path d="M212.724 360.431C232.168 361.609 251.454 356.301 267.557 345.339C267.557 345.339 274.899 297.613 230.845 297.613C219.127 305.425 209.089 310.822 197.804 310.8H198.263C186.978 310.822 176.941 305.425 165.222 297.613C121.168 297.613 128.51 345.339 128.51 345.339C165.141 367.439 181.258 358.951 231.741 339.604L234.006 326.682L145.647 331.638" stroke="black" stroke-width="2" stroke-linecap="round" stroke-linejoin="round"/>
<path d="M232.982 312.158L235.908 321.263L231.745 339.601" stroke="black" stroke-width="2" stroke-linecap="round" stroke-linejoin="round"/>
<path d="M220.067 232.038C220.067 233.49 219.636 234.91 218.829 236.117C218.022 237.325 216.876 238.266 215.534 238.821C214.192 239.377 212.716 239.522 211.292 239.239C209.868 238.956 208.559 238.257 207.532 237.23C206.506 236.203 205.806 234.895 205.523 233.47C205.24 232.046 205.385 230.57 205.941 229.228C206.497 227.886 207.438 226.74 208.645 225.933C209.853 225.126 211.272 224.695 212.724 224.695C214.672 224.695 216.539 225.469 217.916 226.846C219.293 228.223 220.067 230.091 220.067 232.038ZM190.697 232.038C190.697 233.49 190.266 234.91 189.46 236.117C188.653 237.325 187.506 238.266 186.164 238.821C184.823 239.377 183.346 239.522 181.922 239.239C180.498 238.956 179.19 238.257 178.163 237.23C177.136 236.203 176.437 234.895 176.153 233.47C175.87 232.046 176.015 230.57 176.571 229.228C177.127 227.886 178.068 226.74 179.275 225.933C180.483 225.126 181.902 224.695 183.355 224.695C185.302 224.695 187.17 225.469 188.546 226.846C189.923 228.223 190.697 230.091 190.697 232.038ZM198.039 268.757C193.631 268.715 189.295 267.636 185.381 265.607C184.51 265.172 183.848 264.408 183.54 263.484C183.232 262.56 183.304 261.552 183.74 260.681C184.176 259.81 184.94 259.147 185.864 258.84C186.788 258.532 187.796 258.604 188.667 259.04C191.546 260.593 194.766 261.406 198.038 261.406C201.309 261.406 204.529 260.593 207.408 259.04C208.28 258.604 209.289 258.532 210.213 258.84C211.137 259.148 211.901 259.811 212.337 260.682C212.773 261.554 212.844 262.563 212.536 263.487C212.228 264.411 211.566 265.175 210.694 265.611C206.781 267.638 202.446 268.715 198.039 268.757Z" fill="black"/>
<path d="M190.704 206.266C186.005 209.093 181.636 211.883 177.745 214.489C166.254 222.162 158.618 228.256 156.819 229.688C156.562 229.909 156.415 230.019 156.415 230.019C156.415 230.019 141.877 210.414 148.192 190.663C148.192 190.663 156.415 161 196.064 161C224.332 161 238.613 172.638 246.396 180.421C266.882 209.46 243.753 226.861 239.274 229.872C238.797 230.202 238.54 230.349 238.54 230.349C238.54 230.349 222.35 217.94 205.389 201.897" stroke="black" stroke-width="2" stroke-linecap="round" stroke-linejoin="round"/>
<path d="M205.279 197.969C218.418 190.873 232.182 184.999 246.396 180.421" stroke="black" stroke-width="2" stroke-linecap="round" stroke-linejoin="round"/>
<path d="M215.547 328.143V345.574M156.698 230.357C156.465 232.603 156.349 234.86 156.349 237.119C156.349 265.857 174.988 289.151 197.977 289.151C220.966 289.151 239.601 265.857 239.601 237.119C239.603 234.789 239.48 232.46 239.234 230.144M198.039 221.123C196.092 221.123 194.224 220.35 192.847 218.973C191.47 217.596 190.697 215.728 190.697 213.781V199.096C190.697 197.149 191.47 195.281 192.847 193.904C194.224 192.527 196.092 191.754 198.039 191.754C199.987 191.754 201.854 192.527 203.231 193.904C204.608 195.281 205.382 197.149 205.382 199.096V213.781C205.382 215.728 204.608 217.596 203.231 218.973C201.854 220.35 199.987 221.123 198.039 221.123Z" stroke="black" stroke-width="2" stroke-linecap="round" stroke-linejoin="round"/>
<rect x="96" y="397" width="190" height="100" rx="7.86885" fill="#FB8C00"/>
<path d="M119.784 461.833C120.388 458.341 121.664 455.236 123.611 452.516C125.592 449.763 128.026 447.631 130.914 446.12C133.801 444.576 136.873 443.804 140.13 443.804C143.923 443.804 147.029 444.76 149.446 446.674C151.897 448.554 153.475 451.173 154.18 454.53H151.561C150.991 451.878 149.665 449.763 147.583 448.185C145.535 446.607 142.933 445.818 139.777 445.818C136.99 445.818 134.355 446.473 131.87 447.782C129.386 449.092 127.271 450.955 125.525 453.372C123.813 455.789 122.671 458.61 122.1 461.833C121.899 463.041 121.798 464.216 121.798 465.358C121.798 467.91 122.319 470.125 123.359 472.006C124.4 473.852 125.844 475.279 127.69 476.286C129.571 477.293 131.719 477.797 134.137 477.797C136.823 477.797 139.357 477.193 141.741 475.984C144.158 474.775 146.206 473.063 147.885 470.847C149.597 468.598 150.789 465.962 151.461 462.941H135.698L136.05 461.077H154.13L153.828 462.588C153.156 465.878 151.847 468.833 149.9 471.452C147.986 474.037 145.619 476.085 142.799 477.596C139.978 479.073 136.974 479.812 133.784 479.812C130.93 479.812 128.412 479.224 126.23 478.049C124.081 476.874 122.403 475.212 121.194 473.063C120.019 470.881 119.431 468.38 119.431 465.559C119.431 464.284 119.549 463.041 119.784 461.833ZM174.481 451.761C176.798 451.761 178.762 452.214 180.373 453.12C182.018 453.993 183.244 455.185 184.05 456.696C184.889 458.173 185.309 459.835 185.309 461.682C185.309 462.487 185.241 463.226 185.107 463.898C184.906 465.106 184.704 466.013 184.503 466.617H160.884C160.749 467.691 160.682 468.464 160.682 468.934C160.682 471.821 161.555 474.037 163.301 475.581C165.047 477.126 167.246 477.898 169.898 477.898C172.551 477.898 174.901 477.243 176.949 475.934C179.03 474.591 180.508 472.778 181.38 470.495H183.747C182.673 473.281 180.877 475.548 178.359 477.293C175.874 479.006 172.937 479.862 169.546 479.862C166.188 479.862 163.486 478.888 161.438 476.941C159.423 474.994 158.416 472.341 158.416 468.984C158.416 467.943 158.517 466.869 158.718 465.761C159.222 462.907 160.229 460.423 161.74 458.308C163.251 456.192 165.097 454.581 167.279 453.473C169.495 452.331 171.896 451.761 174.481 451.761ZM182.69 464.854C182.925 463.881 183.042 462.89 183.042 461.883C183.042 459.231 182.186 457.2 180.474 455.789C178.795 454.379 176.663 453.674 174.078 453.674C172.164 453.674 170.318 454.094 168.538 454.933C166.759 455.773 165.215 457.032 163.905 458.71C162.596 460.389 161.689 462.437 161.186 464.854H182.69ZM206.46 451.559C209.247 451.559 211.479 452.315 213.158 453.825C214.837 455.303 215.676 457.502 215.676 460.423C215.676 461.329 215.575 462.336 215.374 463.444L212.554 479.459H210.338L213.158 463.595C213.326 462.521 213.41 461.631 213.41 460.926C213.41 458.509 212.738 456.679 211.395 455.437C210.052 454.161 208.172 453.523 205.755 453.523C202.935 453.523 200.501 454.396 198.453 456.142C196.405 457.888 194.995 460.456 194.222 463.847L191.453 479.459H189.186L194.071 452.113H196.338L195.33 457.854C196.472 455.806 198.016 454.245 199.964 453.171C201.944 452.096 204.11 451.559 206.46 451.559ZM227.614 446.02C227.144 446.02 226.758 445.885 226.456 445.617C226.153 445.314 226.002 444.928 226.002 444.458C226.002 443.787 226.237 443.233 226.707 442.796C227.177 442.326 227.715 442.091 228.319 442.091C228.789 442.091 229.175 442.242 229.477 442.545C229.813 442.847 229.981 443.233 229.981 443.703C229.981 444.374 229.729 444.928 229.225 445.365C228.755 445.801 228.218 446.02 227.614 446.02ZM227.715 452.113L222.83 479.459H220.563L225.448 452.113H227.715ZM247.907 451.761C250.224 451.761 252.188 452.214 253.799 453.12C255.445 453.993 256.67 455.185 257.476 456.696C258.315 458.173 258.735 459.835 258.735 461.682C258.735 462.487 258.668 463.226 258.533 463.898C258.332 465.106 258.13 466.013 257.929 466.617H234.31C234.176 467.691 234.108 468.464 234.108 468.934C234.108 471.821 234.981 474.037 236.727 475.581C238.473 477.126 240.672 477.898 243.324 477.898C245.977 477.898 248.327 477.243 250.375 475.934C252.457 474.591 253.934 472.778 254.807 470.495H257.174C256.099 473.281 254.303 475.548 251.785 477.293C249.301 479.006 246.363 479.862 242.972 479.862C239.615 479.862 236.912 478.888 234.864 476.941C232.849 474.994 231.842 472.341 231.842 468.984C231.842 467.943 231.943 466.869 232.144 465.761C232.648 462.907 233.655 460.423 235.166 458.308C236.677 456.192 238.523 454.581 240.706 453.473C242.922 452.331 245.322 451.761 247.907 451.761ZM256.116 464.854C256.351 463.881 256.469 462.89 256.469 461.883C256.469 459.231 255.612 457.2 253.9 455.789C252.221 454.379 250.09 453.674 247.504 453.674C245.591 453.674 243.744 454.094 241.965 454.933C240.185 455.773 238.641 457.032 237.332 458.71C236.022 460.389 235.116 462.437 234.612 464.854H256.116Z" fill="white"/>
<path fill-rule="evenodd" clip-rule="evenodd" d="M129.07 414.057C128.031 414.151 127.583 414.296 125.803 415.116C124.712 415.619 122.564 417.563 122.564 418.048C122.564 418.245 122.444 418.407 122.298 418.407C122.152 418.407 122.033 418.633 122.033 418.909C122.033 419.186 121.926 419.412 121.795 419.412C121.527 419.412 121.209 421.037 121.181 422.55C121.157 423.884 121.514 425.688 121.802 425.688C121.929 425.688 122.033 425.914 122.033 426.19C122.033 426.466 122.152 426.692 122.298 426.692C122.444 426.692 122.564 426.835 122.564 427.009C122.564 427.444 124.663 429.454 125.117 429.454C125.32 429.454 125.485 429.559 125.485 429.687C125.485 429.815 126.155 430.157 126.974 430.447C129.283 431.264 134.892 431.093 135.962 430.173C136.1 430.054 136.378 429.956 136.578 429.956C137.062 429.956 137.701 429.333 137.701 428.86C137.701 428.341 134.758 422.926 134.476 422.926C134.351 422.926 134.249 423.039 134.249 423.178C134.249 423.325 133.329 423.429 132.02 423.429C129.687 423.429 129.469 423.321 129.469 422.173C129.469 421.55 130.673 421.322 132.816 421.539C134.586 421.718 135.311 421.439 135.311 420.58C135.311 420.375 135.4 420.169 135.51 420.123C135.826 419.99 137.701 416.393 137.701 415.919C137.701 415.497 136.076 414.641 135.275 414.641C135.061 414.641 134.772 414.542 134.634 414.42C134.339 414.161 130.613 413.918 129.07 414.057ZM158.045 414.536C157.759 415.243 157.863 429.953 158.159 430.475C158.408 430.915 158.743 430.96 161.744 430.96H165.054V422.55V414.139H161.63C158.753 414.139 158.181 414.203 158.045 414.536ZM174.45 414.719C174.14 415.022 173.551 415.495 173.141 415.771C172.73 416.047 172.147 416.502 171.845 416.782C171.542 417.062 170.875 417.535 170.361 417.833C169.847 418.132 169.139 418.665 168.788 419.019C168.436 419.373 168.049 419.663 167.927 419.663C167.586 419.663 166.116 421.061 166.116 421.384C166.116 421.557 166.593 421.671 167.311 421.671H168.506V424.035C168.506 426.559 169.06 428.362 170.087 429.181C170.361 429.4 170.805 429.751 171.073 429.96C172.477 431.056 175.883 431.252 177.868 430.351L178.863 429.899V427.432C178.863 426.058 178.746 424.896 178.598 424.809C178.452 424.724 178.332 424.761 178.332 424.891C178.332 425.187 177.121 425.419 176.447 425.252C176.013 425.145 175.942 424.886 175.942 423.399V421.671H177.084C177.712 421.671 178.37 421.536 178.545 421.37C178.723 421.201 178.863 420.393 178.863 419.537C178.863 418.681 178.723 417.873 178.545 417.704C178.37 417.539 177.712 417.403 177.084 417.403H175.942V415.771C175.942 414.379 175.874 414.141 175.478 414.155C175.222 414.163 174.759 414.417 174.45 414.719ZM213.918 417.894V421.649L215.843 421.723L217.769 421.797L217.815 425.939C217.841 428.218 217.871 430.283 217.881 430.528C217.9 430.937 218.215 430.969 221.686 430.904L225.47 430.835L225.542 426.253L225.615 421.671H227.601H229.586V417.905V414.139H221.752H213.918V417.894ZM139.19 417.8C138.865 418.6 139.014 427.678 139.361 428.249C139.882 429.105 141.214 430.302 142.029 430.647C143.697 431.351 146.323 430.865 147.593 429.617C148.287 428.935 148.324 428.926 148.324 429.444C148.324 429.744 148.447 430.208 148.598 430.475C148.847 430.913 149.181 430.96 152.041 430.96C154.902 430.96 155.236 430.913 155.485 430.475C155.652 430.179 155.759 427.666 155.759 424.055C155.759 419.246 155.687 418.052 155.38 417.762C155.093 417.491 154.22 417.403 151.8 417.403C147.99 417.403 148.347 416.909 148.255 422.299L148.191 426.065L147.289 426.146C146.747 426.195 146.299 426.095 146.165 425.895C146.042 425.712 145.94 423.862 145.938 421.784C145.935 419.185 145.834 417.912 145.615 417.704C145.405 417.506 144.281 417.403 142.324 417.403C139.858 417.403 139.324 417.471 139.19 417.8ZM180.484 417.748C180.126 418.157 180.21 426.779 180.585 428.051C181.477 431.073 186.52 431.984 189.061 429.582C189.428 429.235 189.793 428.952 189.872 428.952C189.952 428.952 190.017 429.404 190.017 429.956V430.96H193.049C194.717 430.96 196.271 430.892 196.502 430.808C196.869 430.675 196.922 429.867 196.922 424.331C196.922 419.746 196.834 417.923 196.603 417.704C196.164 417.289 190.244 417.289 189.805 417.704C189.583 417.914 189.486 419.25 189.486 422.098V426.19H188.67C187.226 426.19 187.117 425.878 187.036 421.507L186.963 417.529L183.882 417.458C181.461 417.403 180.733 417.465 180.484 417.748ZM199.639 417.613C199.379 417.769 199.319 419.284 199.374 424.325L199.445 430.835H202.897H206.349L206.517 427.446C206.609 425.581 206.772 423.802 206.88 423.491C207.122 422.791 207.832 422.761 208.341 423.429C208.648 423.831 209.029 423.931 210.259 423.931C211.105 423.931 211.793 423.818 211.793 423.68C211.793 423.542 211.929 423.429 212.094 423.429C212.596 423.429 213.365 422.411 213.543 421.513C213.893 419.753 213.315 418.624 211.598 417.717C210.348 417.057 208.345 417.559 207.321 418.791C206.769 419.453 206.482 419.368 206.482 418.541C206.482 417.556 206 417.403 202.91 417.407C201.296 417.409 199.824 417.502 199.639 417.613ZM234.499 417.654C234.207 417.773 233.669 417.879 233.304 417.89C232.939 417.901 232.102 418.165 231.445 418.475L230.25 419.04L230.173 420.983C230.13 422.052 230.19 422.925 230.305 422.923C230.421 422.921 230.994 422.756 231.578 422.557C233.163 422.017 235.768 422.059 236.317 422.632C236.559 422.885 236.756 423.167 236.756 423.26C236.756 423.353 235.989 423.429 235.052 423.429C233.076 423.429 231.225 424.07 230.607 424.968C230.382 425.295 230.054 425.979 229.877 426.488C229.416 427.818 230.269 429.662 231.696 430.42C232.87 431.044 234.934 431.132 235.946 430.602C236.498 430.313 236.685 430.316 237.174 430.619C237.611 430.89 238.522 430.96 240.906 430.906L244.059 430.835L244.132 426.325C244.214 421.231 244.024 420.4 242.462 419.047C241.966 418.618 240.893 418.072 240.077 417.835C238.526 417.383 235.414 417.283 234.499 417.654ZM246.635 417.704C246.401 417.926 246.317 420.082 246.317 425.843C246.317 430.154 246.389 433.86 246.478 434.078C246.613 434.412 247.186 434.475 250.063 434.475H253.487V432.44C253.487 430.597 253.531 430.422 253.952 430.594C254.207 430.698 255.133 430.833 256.01 430.894C258.707 431.081 261.361 429.559 262.403 427.227C263.143 425.571 262.845 421.172 261.916 420.039C261.051 418.986 260.623 418.649 259.405 418.066C257.741 417.27 256.263 417.215 254.774 417.895C253.705 418.384 253.696 418.384 253.561 417.895C253.435 417.44 253.179 417.403 250.189 417.403C248.027 417.403 246.848 417.503 246.635 417.704ZM255.498 423.285C255.706 423.482 255.877 424.104 255.877 424.666V425.688H254.682H253.487V424.673C253.487 423.131 254.555 422.393 255.498 423.285ZM236.705 426.881C236.787 427.945 236.784 427.948 235.871 427.948C235.104 427.948 234.927 427.841 234.78 427.29C234.572 426.503 235.279 425.678 236.093 425.76C236.516 425.803 236.64 426.029 236.705 426.881Z" fill="white"/>
<rect x="97.5" y="494.5" width="187" height="35" fill="white" stroke="#FB8C00" stroke-width="3"/>
<path d="M147.898 506.44C147.692 507.597 147.207 508.559 146.442 509.324C145.695 510.071 144.78 510.612 143.698 510.948C144.612 511.097 145.359 511.545 145.938 512.292C146.516 513.02 146.806 513.888 146.806 514.896C146.806 515.195 146.778 515.484 146.722 515.764C146.554 516.753 146.143 517.649 145.49 518.452C144.855 519.236 144.015 519.861 142.97 520.328C141.924 520.776 140.748 521 139.442 521H132.162L135.634 501.484H142.634C144.388 501.484 145.714 501.857 146.61 502.604C147.524 503.351 147.982 504.321 147.982 505.516C147.982 505.815 147.954 506.123 147.898 506.44ZM145.266 506.748C145.303 506.58 145.322 506.347 145.322 506.048C145.322 505.245 145.042 504.62 144.482 504.172C143.922 503.724 143.11 503.5 142.046 503.5H137.818L136.67 509.968H140.954C142.13 509.968 143.1 509.688 143.866 509.128C144.631 508.549 145.098 507.756 145.266 506.748ZM144.202 515.512C144.258 515.251 144.286 515.008 144.286 514.784C144.286 513.925 143.968 513.244 143.334 512.74C142.699 512.236 141.831 511.984 140.73 511.984H136.306L135.074 518.984H139.582C140.832 518.984 141.868 518.676 142.69 518.06C143.511 517.444 144.015 516.595 144.202 515.512ZM165.657 505.656L162.941 521H160.393L160.785 518.76C160.169 519.544 159.385 520.151 158.433 520.58C157.481 521.009 156.492 521.224 155.465 521.224C153.86 521.224 152.572 520.795 151.601 519.936C150.649 519.059 150.173 517.808 150.173 516.184C150.173 515.773 150.22 515.26 150.313 514.644L151.909 505.656H154.429L152.917 514.308C152.843 514.7 152.805 515.111 152.805 515.54C152.805 516.679 153.113 517.547 153.729 518.144C154.364 518.723 155.241 519.012 156.361 519.012C157.705 519.012 158.844 518.592 159.777 517.752C160.729 516.912 161.336 515.689 161.597 514.084V514.168L163.109 505.656H165.657ZM172.648 521.252C171.042 521.252 169.726 520.869 168.7 520.104C167.673 519.339 167.16 518.312 167.16 517.024C167.16 516.781 167.169 516.604 167.188 516.492H169.68C169.605 517.295 169.838 517.948 170.38 518.452C170.94 518.956 171.742 519.208 172.788 519.208C173.833 519.208 174.673 519.012 175.308 518.62C175.961 518.209 176.288 517.64 176.288 516.912C176.288 516.296 176.026 515.811 175.504 515.456C174.981 515.101 174.178 514.719 173.096 514.308C172.144 513.953 171.36 513.617 170.744 513.3C170.128 512.983 169.605 512.544 169.176 511.984C168.746 511.405 168.532 510.677 168.532 509.8C168.532 508.941 168.774 508.176 169.26 507.504C169.764 506.832 170.454 506.319 171.332 505.964C172.228 505.591 173.245 505.404 174.384 505.404C175.952 505.404 177.24 505.796 178.248 506.58C179.256 507.364 179.76 508.391 179.76 509.66C179.76 509.903 179.75 510.089 179.732 510.22H177.296L177.324 509.884C177.324 509.137 177.034 508.549 176.456 508.12C175.896 507.672 175.149 507.448 174.216 507.448C173.301 507.448 172.545 507.653 171.948 508.064C171.369 508.475 171.08 509.025 171.08 509.716C171.08 510.369 171.35 510.883 171.892 511.256C172.433 511.629 173.273 512.04 174.412 512.488C175.364 512.861 176.129 513.207 176.708 513.524C177.286 513.823 177.781 514.243 178.192 514.784C178.602 515.325 178.808 516.007 178.808 516.828C178.808 517.724 178.537 518.508 177.996 519.18C177.473 519.852 176.745 520.365 175.812 520.72C174.878 521.075 173.824 521.252 172.648 521.252ZM186.325 503.164C185.914 503.164 185.569 503.033 185.289 502.772C185.027 502.492 184.897 502.147 184.897 501.736C184.897 501.176 185.102 500.7 185.513 500.308C185.923 499.897 186.399 499.692 186.941 499.692C187.37 499.692 187.715 499.823 187.977 500.084C188.238 500.345 188.369 500.691 188.369 501.12C188.369 501.68 188.163 502.165 187.753 502.576C187.342 502.968 186.866 503.164 186.325 503.164ZM187.137 505.656L184.421 521H181.873L184.589 505.656H187.137ZM199.011 505.376C200.598 505.376 201.867 505.805 202.819 506.664C203.771 507.504 204.247 508.736 204.247 510.36C204.247 510.957 204.2 511.489 204.107 511.956L202.511 521H199.991L201.531 512.32C201.606 511.928 201.643 511.517 201.643 511.088C201.643 509.949 201.326 509.081 200.691 508.484C200.075 507.887 199.207 507.588 198.087 507.588C196.743 507.588 195.595 508.008 194.643 508.848C193.71 509.688 193.103 510.911 192.823 512.516V512.46L191.311 521H188.763L191.479 505.656H194.027L193.635 507.868C194.27 507.065 195.063 506.449 196.015 506.02C196.967 505.591 197.966 505.376 199.011 505.376ZM216.053 505.404C217.341 505.404 218.452 505.656 219.385 506.16C220.337 506.645 221.056 507.336 221.541 508.232C222.045 509.109 222.297 510.117 222.297 511.256C222.297 511.648 222.251 512.124 222.157 512.684C222.083 513.169 221.961 513.673 221.793 514.196H209.529C209.492 514.569 209.473 514.84 209.473 515.008C209.473 516.296 209.856 517.304 210.621 518.032C211.405 518.741 212.423 519.096 213.673 519.096C214.775 519.096 215.736 518.844 216.557 518.34C217.397 517.817 218.032 517.127 218.461 516.268H221.205C220.533 517.743 219.497 518.947 218.097 519.88C216.716 520.795 215.111 521.252 213.281 521.252C211.359 521.252 209.809 520.701 208.633 519.6C207.476 518.48 206.897 516.959 206.897 515.036C206.897 514.495 206.953 513.916 207.065 513.3C207.345 511.713 207.915 510.323 208.773 509.128C209.632 507.933 210.687 507.019 211.937 506.384C213.207 505.731 214.579 505.404 216.053 505.404ZM219.581 512.348C219.637 511.975 219.665 511.629 219.665 511.312C219.665 510.117 219.283 509.193 218.517 508.54C217.771 507.887 216.791 507.56 215.577 507.56C214.271 507.56 213.085 507.989 212.021 508.848C210.957 509.688 210.239 510.855 209.865 512.348H219.581ZM229.441 521.252C227.835 521.252 226.519 520.869 225.493 520.104C224.466 519.339 223.953 518.312 223.953 517.024C223.953 516.781 223.962 516.604 223.981 516.492H226.473C226.398 517.295 226.631 517.948 227.173 518.452C227.733 518.956 228.535 519.208 229.581 519.208C230.626 519.208 231.466 519.012 232.101 518.62C232.754 518.209 233.081 517.64 233.081 516.912C233.081 516.296 232.819 515.811 232.297 515.456C231.774 515.101 230.971 514.719 229.889 514.308C228.937 513.953 228.153 513.617 227.537 513.3C226.921 512.983 226.398 512.544 225.969 511.984C225.539 511.405 225.325 510.677 225.325 509.8C225.325 508.941 225.567 508.176 226.053 507.504C226.557 506.832 227.247 506.319 228.125 505.964C229.021 505.591 230.038 505.404 231.177 505.404C232.745 505.404 234.033 505.796 235.041 506.58C236.049 507.364 236.553 508.391 236.553 509.66C236.553 509.903 236.543 510.089 236.525 510.22H234.089L234.117 509.884C234.117 509.137 233.827 508.549 233.249 508.12C232.689 507.672 231.942 507.448 231.009 507.448C230.094 507.448 229.338 507.653 228.741 508.064C228.162 508.475 227.873 509.025 227.873 509.716C227.873 510.369 228.143 510.883 228.685 511.256C229.226 511.629 230.066 512.04 231.205 512.488C232.157 512.861 232.922 513.207 233.501 513.524C234.079 513.823 234.574 514.243 234.985 514.784C235.395 515.325 235.601 516.007 235.601 516.828C235.601 517.724 235.33 518.508 234.789 519.18C234.266 519.852 233.538 520.365 232.605 520.72C231.671 521.075 230.617 521.252 229.441 521.252ZM244.07 521.252C242.464 521.252 241.148 520.869 240.122 520.104C239.095 519.339 238.582 518.312 238.582 517.024C238.582 516.781 238.591 516.604 238.61 516.492H241.102C241.027 517.295 241.26 517.948 241.802 518.452C242.362 518.956 243.164 519.208 244.21 519.208C245.255 519.208 246.095 519.012 246.73 518.62C247.383 518.209 247.71 517.64 247.71 516.912C247.71 516.296 247.448 515.811 246.926 515.456C246.403 515.101 245.6 514.719 244.518 514.308C243.566 513.953 242.782 513.617 242.166 513.3C241.55 512.983 241.027 512.544 240.598 511.984C240.168 511.405 239.954 510.677 239.954 509.8C239.954 508.941 240.196 508.176 240.682 507.504C241.186 506.832 241.876 506.319 242.754 505.964C243.65 505.591 244.667 505.404 245.806 505.404C247.374 505.404 248.662 505.796 249.67 506.58C250.678 507.364 251.182 508.391 251.182 509.66C251.182 509.903 251.172 510.089 251.154 510.22H248.718L248.746 509.884C248.746 509.137 248.456 508.549 247.878 508.12C247.318 507.672 246.571 507.448 245.638 507.448C244.723 507.448 243.967 507.653 243.37 508.064C242.791 508.475 242.502 509.025 242.502 509.716C242.502 510.369 242.772 510.883 243.314 511.256C243.855 511.629 244.695 512.04 245.834 512.488C246.786 512.861 247.551 513.207 248.13 513.524C248.708 513.823 249.203 514.243 249.614 514.784C250.024 515.325 250.23 516.007 250.23 516.828C250.23 517.724 249.959 518.508 249.418 519.18C248.895 519.852 248.167 520.365 247.234 520.72C246.3 521.075 245.246 521.252 244.07 521.252Z" fill="#FB8C00"/>
<path d="M117.072 603.074H112.824L112.194 605H108L112.662 592.256H117.27L121.914 605H117.702L117.072 603.074ZM116.1 600.068L114.948 596.522L113.796 600.068H116.1ZM134.412 598.466C135.18 598.646 135.774 599.018 136.194 599.582C136.626 600.134 136.842 600.776 136.842 601.508C136.842 602.624 136.47 603.488 135.726 604.1C134.994 604.7 133.938 605 132.558 605H125.88V592.256H132.378C133.674 592.256 134.694 592.538 135.438 593.102C136.182 593.666 136.554 594.488 136.554 595.568C136.554 596.312 136.356 596.942 135.96 597.458C135.576 597.962 135.06 598.298 134.412 598.466ZM129.876 597.224H131.424C131.784 597.224 132.048 597.152 132.216 597.008C132.396 596.864 132.486 596.642 132.486 596.342C132.486 596.03 132.396 595.802 132.216 595.658C132.048 595.502 131.784 595.424 131.424 595.424H129.876V597.224ZM131.694 601.796C132.054 601.796 132.318 601.73 132.486 601.598C132.666 601.454 132.756 601.226 132.756 600.914C132.756 600.302 132.402 599.996 131.694 599.996H129.876V601.796H131.694ZM137.645 599.924C137.645 598.856 137.825 597.932 138.185 597.152C138.557 596.36 139.061 595.76 139.697 595.352C140.333 594.932 141.047 594.722 141.839 594.722C142.499 594.722 143.069 594.86 143.549 595.136C144.029 595.4 144.395 595.766 144.647 596.234V594.848H148.625V605H144.647V603.614C144.395 604.082 144.029 604.454 143.549 604.73C143.069 604.994 142.499 605.126 141.839 605.126C141.047 605.126 140.333 604.922 139.697 604.514C139.061 604.094 138.557 603.494 138.185 602.714C137.825 601.922 137.645 600.992 137.645 599.924ZM144.647 599.924C144.647 599.384 144.509 598.964 144.233 598.664C143.957 598.364 143.603 598.214 143.171 598.214C142.739 598.214 142.385 598.364 142.109 598.664C141.833 598.964 141.695 599.384 141.695 599.924C141.695 600.464 141.833 600.884 142.109 601.184C142.385 601.484 142.739 601.634 143.171 601.634C143.603 601.634 143.957 601.484 144.233 601.184C144.509 600.884 144.647 600.464 144.647 599.924ZM154.416 596.72C154.824 596.132 155.322 595.664 155.91 595.316C156.498 594.956 157.11 594.776 157.746 594.776V599.042H156.612C155.856 599.042 155.298 599.174 154.938 599.438C154.59 599.702 154.416 600.17 154.416 600.842V605H150.42V594.848H154.416V596.72ZM162.476 594.722C163.136 594.722 163.706 594.86 164.186 595.136C164.666 595.4 165.032 595.766 165.284 596.234V594.848H169.262V604.82C169.262 605.768 169.088 606.632 168.74 607.412C168.392 608.192 167.828 608.816 167.048 609.284C166.28 609.752 165.29 609.986 164.078 609.986C162.446 609.986 161.15 609.602 160.19 608.834C159.242 608.078 158.702 607.046 158.57 605.738H162.494C162.602 606.266 163.034 606.53 163.79 606.53C164.258 606.53 164.624 606.41 164.888 606.17C165.152 605.93 165.284 605.48 165.284 604.82V603.614C165.032 604.082 164.666 604.454 164.186 604.73C163.706 604.994 163.136 605.126 162.476 605.126C161.684 605.126 160.97 604.922 160.334 604.514C159.698 604.094 159.194 603.494 158.822 602.714C158.462 601.922 158.282 600.992 158.282 599.924C158.282 598.856 158.462 597.932 158.822 597.152C159.194 596.36 159.698 595.76 160.334 595.352C160.97 594.932 161.684 594.722 162.476 594.722ZM165.284 599.924C165.284 599.384 165.146 598.964 164.87 598.664C164.594 598.364 164.24 598.214 163.808 598.214C163.376 598.214 163.022 598.364 162.746 598.664C162.47 598.964 162.332 599.384 162.332 599.924C162.332 600.464 162.47 600.884 162.746 601.184C163.022 601.484 163.376 601.634 163.808 601.634C164.24 601.634 164.594 601.484 164.87 601.184C165.146 600.884 165.284 600.464 165.284 599.924ZM170.516 599.924C170.516 598.856 170.696 597.932 171.056 597.152C171.428 596.36 171.932 595.76 172.568 595.352C173.204 594.932 173.918 594.722 174.71 594.722C175.37 594.722 175.94 594.86 176.42 595.136C176.9 595.4 177.266 595.766 177.518 596.234V594.848H181.496V605H177.518V603.614C177.266 604.082 176.9 604.454 176.42 604.73C175.94 604.994 175.37 605.126 174.71 605.126C173.918 605.126 173.204 604.922 172.568 604.514C171.932 604.094 171.428 603.494 171.056 602.714C170.696 601.922 170.516 600.992 170.516 599.924ZM177.518 599.924C177.518 599.384 177.38 598.964 177.104 598.664C176.828 598.364 176.474 598.214 176.042 598.214C175.61 598.214 175.256 598.364 174.98 598.664C174.704 598.964 174.566 599.384 174.566 599.924C174.566 600.464 174.704 600.884 174.98 601.184C175.256 601.484 175.61 601.634 176.042 601.634C176.474 601.634 176.828 601.484 177.104 601.184C177.38 600.884 177.518 600.464 177.518 599.924ZM185.307 594.038C184.611 594.038 184.053 593.852 183.633 593.48C183.213 593.108 183.003 592.64 183.003 592.076C183.003 591.5 183.213 591.026 183.633 590.654C184.053 590.27 184.611 590.078 185.307 590.078C185.991 590.078 186.543 590.27 186.963 590.654C187.383 591.026 187.593 591.5 187.593 592.076C187.593 592.64 187.383 593.108 186.963 593.48C186.543 593.852 185.991 594.038 185.307 594.038ZM187.287 594.848V605H183.291V594.848H187.287ZM196.201 594.776C197.365 594.776 198.271 595.166 198.919 595.946C199.579 596.726 199.909 597.782 199.909 599.114V605H195.931V599.618C195.931 599.138 195.799 598.76 195.535 598.484C195.283 598.196 194.941 598.052 194.509 598.052C194.065 598.052 193.717 598.196 193.465 598.484C193.213 598.76 193.087 599.138 193.087 599.618V605H189.091V594.848H193.087V596.396C193.399 595.916 193.813 595.526 194.329 595.226C194.857 594.926 195.481 594.776 196.201 594.776ZM203.658 594.038C202.962 594.038 202.404 593.852 201.984 593.48C201.564 593.108 201.354 592.64 201.354 592.076C201.354 591.5 201.564 591.026 201.984 590.654C202.404 590.27 202.962 590.078 203.658 590.078C204.342 590.078 204.894 590.27 205.314 590.654C205.734 591.026 205.944 591.5 205.944 592.076C205.944 592.64 205.734 593.108 205.314 593.48C204.894 593.852 204.342 594.038 203.658 594.038ZM205.638 594.848V605H201.642V594.848H205.638ZM214.553 594.776C215.717 594.776 216.623 595.166 217.271 595.946C217.931 596.726 218.261 597.782 218.261 599.114V605H214.283V599.618C214.283 599.138 214.151 598.76 213.887 598.484C213.635 598.196 213.293 598.052 212.861 598.052C212.417 598.052 212.069 598.196 211.817 598.484C211.565 598.76 211.439 599.138 211.439 599.618V605H207.443V594.848H211.439V596.396C211.751 595.916 212.165 595.526 212.681 595.226C213.209 594.926 213.833 594.776 214.553 594.776ZM223.648 594.722C224.308 594.722 224.878 594.86 225.358 595.136C225.838 595.4 226.204 595.766 226.456 596.234V594.848H230.434V604.82C230.434 605.768 230.26 606.632 229.912 607.412C229.564 608.192 229 608.816 228.22 609.284C227.452 609.752 226.462 609.986 225.25 609.986C223.618 609.986 222.322 609.602 221.362 608.834C220.414 608.078 219.874 607.046 219.742 605.738H223.666C223.774 606.266 224.206 606.53 224.962 606.53C225.43 606.53 225.796 606.41 226.06 606.17C226.324 605.93 226.456 605.48 226.456 604.82V603.614C226.204 604.082 225.838 604.454 225.358 604.73C224.878 604.994 224.308 605.126 223.648 605.126C222.856 605.126 222.142 604.922 221.506 604.514C220.87 604.094 220.366 603.494 219.994 602.714C219.634 601.922 219.454 600.992 219.454 599.924C219.454 598.856 219.634 597.932 219.994 597.152C220.366 596.36 220.87 595.76 221.506 595.352C222.142 594.932 222.856 594.722 223.648 594.722ZM226.456 599.924C226.456 599.384 226.318 598.964 226.042 598.664C225.766 598.364 225.412 598.214 224.98 598.214C224.548 598.214 224.194 598.364 223.918 598.664C223.642 598.964 223.504 599.384 223.504 599.924C223.504 600.464 223.642 600.884 223.918 601.184C224.194 601.484 224.548 601.634 224.98 601.634C225.412 601.634 225.766 601.484 226.042 601.184C226.318 600.884 226.456 600.464 226.456 599.924ZM243.459 603.074H239.211L238.581 605H234.387L239.049 592.256H243.657L248.301 605H244.089L243.459 603.074ZM242.487 600.068L241.335 596.522L240.183 600.068H242.487ZM253.205 596.234C253.457 595.766 253.817 595.4 254.285 595.136C254.765 594.86 255.335 594.722 255.995 594.722C256.787 594.722 257.501 594.932 258.137 595.352C258.773 595.76 259.271 596.36 259.631 597.152C260.003 597.932 260.189 598.856 260.189 599.924C260.189 600.992 260.003 601.922 259.631 602.714C259.271 603.494 258.773 604.094 258.137 604.514C257.501 604.922 256.787 605.126 255.995 605.126C255.335 605.126 254.765 604.994 254.285 604.73C253.817 604.454 253.457 604.082 253.205 603.614V609.86H249.209V594.848H253.205V596.234ZM256.139 599.924C256.139 599.384 256.001 598.964 255.725 598.664C255.449 598.364 255.095 598.214 254.663 598.214C254.231 598.214 253.877 598.364 253.601 598.664C253.325 598.964 253.187 599.384 253.187 599.924C253.187 600.464 253.325 600.884 253.601 601.184C253.877 601.484 254.231 601.634 254.663 601.634C255.095 601.634 255.449 601.484 255.725 601.184C256.001 600.884 256.139 600.464 256.139 599.924ZM265.439 596.234C265.691 595.766 266.051 595.4 266.519 595.136C266.999 594.86 267.569 594.722 268.229 594.722C269.021 594.722 269.735 594.932 270.371 595.352C271.007 595.76 271.505 596.36 271.865 597.152C272.237 597.932 272.423 598.856 272.423 599.924C272.423 600.992 272.237 601.922 271.865 602.714C271.505 603.494 271.007 604.094 270.371 604.514C269.735 604.922 269.021 605.126 268.229 605.126C267.569 605.126 266.999 604.994 266.519 604.73C266.051 604.454 265.691 604.082 265.439 603.614V609.86H261.443V594.848H265.439V596.234ZM268.373 599.924C268.373 599.384 268.235 598.964 267.959 598.664C267.683 598.364 267.329 598.214 266.897 598.214C266.465 598.214 266.111 598.364 265.835 598.664C265.559 598.964 265.421 599.384 265.421 599.924C265.421 600.464 265.559 600.884 265.835 601.184C266.111 601.484 266.465 601.634 266.897 601.634C267.329 601.634 267.683 601.484 267.959 601.184C268.235 600.884 268.373 600.464 268.373 599.924ZM279.059 591.41L278.591 599.942H275.171L274.703 591.41H279.059ZM276.881 605.144C276.185 605.144 275.627 604.958 275.207 604.586C274.787 604.214 274.577 603.746 274.577 603.182C274.577 602.606 274.787 602.132 275.207 601.76C275.627 601.376 276.185 601.184 276.881 601.184C277.565 601.184 278.117 601.376 278.537 601.76C278.957 602.132 279.167 602.606 279.167 603.182C279.167 603.746 278.957 604.214 278.537 604.586C278.117 604.958 277.565 605.144 276.881 605.144Z" fill="#2E2C43"/>
</g>
<defs>
<filter id="filter0_d_137_627" x="0" y="0" width="397" height="801" filterUnits="userSpaceOnUse" color-interpolation-filters="sRGB">
<feFlood flood-opacity="0" result="BackgroundImageFix"/>
<feColorMatrix in="SourceAlpha" type="matrix" values="0 0 0 0 0 0 0 0 0 0 0 0 0 0 0 0 0 0 127 0" result="hardAlpha"/>
<feOffset dy="4"/>
<feGaussianBlur stdDeviation="2"/>
<feComposite in2="hardAlpha" operator="out"/>
<feColorMatrix type="matrix" values="0 0 0 0 0 0 0 0 0 0 0 0 0 0 0 0 0 0 0.25 0"/>
<feBlend mode="normal" in2="BackgroundImageFix" result="effect1_dropShadow_137_627"/>
<feBlend mode="normal" in="SourceGraphic" in2="effect1_dropShadow_137_627" result="shape"/>
</filter>
</defs>
</svg>
