<svg width="19" height="19" viewBox="0 0 19 19" fill="none" xmlns="http://www.w3.org/2000/svg">
<path d="M9.47656 0.074707C4.50647 0.074707 0.476562 4.10462 0.476562 9.07471C0.476562 14.0448 4.50647 18.0747 9.47656 18.0747C14.4467 18.0747 18.4766 14.0448 18.4766 9.07471C18.4766 4.10462 14.4467 0.074707 9.47656 0.074707ZM9.47656 16.5479C5.35022 16.5479 2.00335 13.201 2.00335 9.07471C2.00335 4.94837 5.35022 1.60149 9.47656 1.60149C13.6029 1.60149 16.9498 4.94837 16.9498 9.07471C16.9498 13.201 13.6029 16.5479 9.47656 16.5479Z" fill="#E76063"/>
<path d="M12.9884 11.6176L10.1237 9.54639V4.57429C10.1237 4.4859 10.0513 4.41357 9.96295 4.41357H8.99665C8.90826 4.41357 8.83594 4.4859 8.83594 4.57429V10.1069C8.83594 10.1591 8.86004 10.2073 8.90223 10.2375L12.225 12.6602C12.2973 12.7125 12.3978 12.6964 12.45 12.6261L13.0246 11.8426C13.0768 11.7683 13.0607 11.6678 12.9884 11.6176Z" fill="#E76063"/>
</svg>
